{
.appVersion = "3151";
.formatVersion = 3;
.storedFormatVersion = 1;
DisplayStrings = (
"Strokes/space and/space bars:\012/space \012/strokeshortcomb/strokelongcomb/dothorizontalbarmod/dotverticalbarmod \012/Astroke/Astroke.ss01/Estroke.ss01/Estroke/Cstroke/uniA7B8/Tdiagonalstroke.ss01/Tdiagonalstroke/Sobliquestroke/space/Gstroke/Gstroke.ss01/Obarred-cy/Cbar/Istroke/Jstroke/Zstroke/Istroke.ss01/Jstroke.ss01/Ubar/Ubar.ss01/Lbar/Tbar/Tbar.ss01/Ldoublebar/Pstroke/Rstroke/Bstroke/Ystroke/Ystroke.ss01/Hbar/Kstroke/Dtopbar \012\012/astroke/cstroke/estroke/astroke.ss01/estroke.ss01/uniA7B9/tdiagonalstroke/tdiagonalstroke.ss01/space/gstroke/Ismallstroke/obarred/pstroke/obarred-cy/obarreddieresis-cy/cbar/zstroke/Ismall/Ismallstroke/istroke.dotless/istroke/ldoublebar/jdotlessstroke/jstroke/ldoublebar.ss01/tbar/tbar.ss01/rstroke/rstroke/ubar/Usmallstroke/space/ystroke.ss01/ystroke/lbar/lbar.ss01/bstroke/hbar/kstroke/lambdastroke/lambdastroke.ss01/space/btopbar/dtopbar \012\012/astroke.sc/astroke.sc.ss01/cstroke.sc/estroke.sc/estroke.sc.ss01/tdiagonalstroke.sc/tdiagonalstroke.sc.ss01/sobliquestroke.sc/space/gstroke.sc.ss01/gstroke.sc/cbar.sc/obarred.sc/cbar.sc/istroke.sc/istroke.dotless.sc/Ismallstroke.sc/istroke.sc.ss01/jstroke.sc.ss01/jdotlessstroke.sc/jstroke.sc/ubar.sc/Usmallstroke.sc/ubar.sc.ss01/space/lbar.sc.ss01/ldoublebar.sc/ldoublebar.sc.ss01/tbar.sc/tbar.sc.ss01/zstroke.sc/zstroke.sc.ss01/space/ystroke.sc/ystroke.sc.ss01/hbar.sc/kstroke.sc/dhookandtail.sc/pstroke.sc/rstroke.sc/bstroke.sc/lambdastroke.sc/lambdastroke.sc.ss01/btopbar.sc/dtopbar.sc \012\012/istrokemod/istrokemod.dotless/ubarmod \012\012",
"/ldot l/space l/periodcentered.loclCAT l/space l·l/space \012/ldot.ss01/l.ss01/space/l.ss01/periodcentered.loclCAT/l.ss01/space/l.ss01 ·/l.ss01 \012L/periodcentered.loclCAT.case L/space/Ldot L/space \012/l.sc/periodcentered.loclCAT.sc/l.sc/space/ldot.sc/l.sc/space",

glyphs = (
{
glyphname = A;
kernLeft = A;
kernRight = A;
layers = (
{
anchors = (
{
name = bottom;
pos = (344,0);
},
{
name = ogonek;
pos = (679,0);
},
{
name = top;
pos = (344,700);
},
{
name = topleft;
pos = (106,700);
}
);
layerId = UUID0;
shapes = (
{
closed = 1;
nodes = (
(32,0,l),
(349,684,l),
(339,684,l),
(656,0,l),
(679,0,l),
(354,700,l),
(334,700,l),
(9,0,l)
);
},
{
closed = 1;
nodes = (
(571,211,l),
(561,230,l),
(126,230,l),
(116,211,l)
);
}
);
width = 688;
},
{
anchors = (
{
name = bottom;
pos = (403,0);
},
{
name = ogonek;
pos = (825,0);
},
{
name = top;
pos = (403,700);
},
{
name = topleft;
pos = (121,701);
}
);
guides = (
{
angle = 245.556;
pos = (234,56);
}
);
layerId = "5DA6E103-6A94-47F2-987D-4952DB8EA68E";
shapes = (
{
closed = 1;
nodes = (
(221,0,l),
(447,588,l),
(355,588,l),
(581,0,l),
(825,0,l),
(519,700,l),
(287,700,l),
(-19,0,l)
);
},
{
closed = 1;
nodes = (
(605,122,l),
(545,292,l),
(223,292,l),
(163,122,l)
);
}
);
width = 806;
},
{
anchors = (
{
name = bottom;
pos = (370,0);
},
{
name = ogonek;
pos = (743,0);
},
{
name = top;
pos = (370,700);
},
{
name = topleft;
pos = (113,700);
}
);
layerId = "708134FE-A11E-43C9-84F0-594DA15B6BD1";
shapes = (
{
closed = 1;
nodes = (
(115,0,l),
(392,637,l),
(346,637,l),
(623,0,l),
(743,0,l),
(426,700,l),
(313,700,l),
(-3,0,l)
);
},
{
closed = 1;
nodes = (
(586,168,l),
(554,260,l),
(168,260,l),
(137,168,l)
);
}
);
width = 740;
}
);
metricRight = "=|";
unicode = 65;
},
{
color = 3;
glyphname = "Alpha-latin";
kernLeft = O;
kernRight = H;
layers = (
{
anchors = (
{
name = bottom;
pos = (434,0);
},
{
name = ogonek;
pos = (776,0);
},
{
name = top;
pos = (434,702);
}
);
background = {
shapes = (
{
ref = O;
}
);
};
layerId = UUID0;
shapes = (
{
closed = 1;
nodes = (
(624,-4,o),
(778,146,o),
(778,352,cs),
(778,555,o),
(624,703,o),
(419,703,cs),
(216,703,o),
(59,556,o),
(59,352,cs),
(59,145,o),
(215,-4,o),
(419,-4,cs)
);
},
{
closed = 1;
nodes = (
(224,16,o),
(79,155,o),
(79,352,cs),
(79,546,o),
(225,683,o),
(418,683,cs),
(611,683,o),
(756,546,o),
(756,352,cs),
(756,155,o),
(611,16,o),
(418,16,cs)
);
},
{
closed = 1;
nodes = (
(776,0,l),
(776,700,l),
(756,700,l),
(756,443,l),
(771,353,l),
(756,263,l),
(756,0,l)
);
}
);
userData = {
RMXScaler = {
height = 136;
width = 144;
};
};
width = 911;
},
{
anchors = (
{
name = bottom;
pos = (443,0);
},
{
name = ogonek;
pos = (792,0);
},
{
name = top;
pos = (443,702);
}
);
background = {
shapes = (
{
pos = (1,0);
ref = O;
}
);
};
layerId = "708134FE-A11E-43C9-84F0-594DA15B6BD1";
shapes = (
{
closed = 1;
nodes = (
(601,-7,o),
(745,117,o),
(745,351,cs),
(745,586,o),
(599,709,o),
(408,709,cs),
(202,709,o),
(46,565,o),
(46,351,cs),
(46,137,o),
(203,-7,o),
(409,-7,cs)
);
},
{
closed = 1;
nodes = (
(273,94,o),
(162,197,o),
(162,351,cs),
(162,506,o),
(274,608,o),
(421,608,cs),
(568,608,o),
(679,506,o),
(679,351,cs),
(679,197,o),
(568,94,o),
(421,94,cs)
);
},
{
closed = 1;
nodes = (
(792,0,l),
(792,700,l),
(677,700,l),
(677,508,l),
(691,353,l),
(682,198,l),
(682,0,l)
);
}
);
userData = {
RMXScaler = {
height = 133;
weight = 5;
width = 138;
};
};
width = 892;
},
{
anchors = (
{
name = bottom;
pos = (456,0);
},
{
name = ogonek;
pos = (815,0);
},
{
name = top;
pos = (456,698);
}
);
background = {
shapes = (
{
pos = (1,0);
ref = O;
}
);
};
layerId = "5DA6E103-6A94-47F2-987D-4952DB8EA68E";
shapes = (
{
closed = 1;
nodes = (
(565,-11,o),
(667,102,o),
(667,348,cs),
(667,599,o),
(560,714,o),
(381,714,cs),
(184,714,o),
(29,575,o),
(29,351,cs),
(29,129,o),
(182,-11,o),
(384,-11,cs)
);
},
{
closed = 1;
nodes = (
(336,177,o),
(267,241,o),
(267,350,cs),
(267,460,o),
(336,524,o),
(426,524,cs),
(515,524,o),
(584,461,o),
(584,350,cs),
(584,240,o),
(515,177,o),
(426,177,cs)
);
},
{
closed = 1;
nodes = (
(815,0,l),
(815,700,l),
(580,700,l),
(580,577,l),
(593,350,l),
(591,125,l),
(591,0,l)
);
}
);
userData = {
RMXScaler = {
height = 129;
weight = 9;
width = 131;
};
};
width = 872;
}
);
metricLeft = O;
metricRight = H;
unicode = 11373;
userData = {
RMXScaler = {
source = a.ss01;
};
};
},
{
color = 4;
glyphname = Astroke;
kernLeft = A;
kernRight = A;
layers = (
{
background = {
anchors = (
{
name = _center;
pos = (409,350);
},
{
name = bottom;
pos = (344,0);
},
{
name = ogonek;
pos = (679,0);
},
{
name = top;
pos = (344,700);
},
{
name = topleft;
pos = (106,700);
}
);
shapes = (
{
closed = 1;
nodes = (
(32,0,l),
(349,684,l),
(339,684,l),
(656,0,l),
(679,0,l),
(354,700,l),
(334,700,l),
(9,0,l)
);
},
{
closed = 1;
nodes = (
(571,211,l),
(561,230,l),
(126,230,l),
(116,211,l)
);
},
{
closed = 1;
nodes = (
(171,-70,l),
(561,770,l),
(539,770,l),
(149,-70,l)
);
}
);
};
layerId = UUID0;
shapes = (
{
closed = 1;
nodes = (
(32,0,l),
(349,684,l),
(339,684,l),
(656,0,l),
(679,0,l),
(354,700,l),
(334,700,l),
(9,0,l)
);
},
{
closed = 1;
nodes = (
(571,211,l),
(561,230,l),
(126,230,l),
(116,211,l)
);
},
{
closed = 1;
nodes = (
(201,-70,l),
(591,770,l),
(569,770,l),
(179,-70,l)
);
}
);
width = 688;
},
{
background = {
shapes = (
{
closed = 1;
nodes = (
(98,0,l),
(383,649,l),
(342,649,l),
(627,0,l),
(730,0,l),
(412,700,l),
(315,700,l),
(-3,0,l)
);
},
{
closed = 1;
nodes = (
(581,179,l),
(553,252,l),
(159,252,l),
(131,179,l)
);
},
{
closed = 1;
nodes = (
(289,-70,l),
(656,770,l),
(595,770,l),
(229,-70,l)
);
}
);
};
layerId = "708134FE-A11E-43C9-84F0-594DA15B6BD1";
shapes = (
{
closed = 1;
nodes = (
(115,0,l),
(392,642,l),
(346,642,l),
(623,0,l),
(743,0,l),
(426,700,l),
(313,700,l),
(-3,0,l)
);
},
{
closed = 1;
nodes = (
(586,172,l),
(554,257,l),
(168,257,l),
(137,172,l)
);
},
{
closed = 1;
nodes = (
(271,-70,l),
(632,770,l),
(541,770,l),
(179,-70,l)
);
}
);
width = 740;
},
{
background = {
anchors = (
{
name = _center;
pos = (453,350);
},
{
name = bottom;
pos = (388,0);
},
{
name = ogonek;
pos = (795,0);
},
{
name = top;
pos = (388,700);
},
{
name = topleft;
pos = (114,701);
}
);
shapes = (
{
closed = 1;
nodes = (
(184,0,l),
(426,604,l),
(347,604,l),
(589,0,l),
(795,0,l),
(486,700,l),
(290,700,l),
(-19,0,l)
);
},
{
closed = 1;
nodes = (
(594,137,l),
(543,281,l),
(202,281,l),
(150,137,l)
);
},
{
closed = 1;
nodes = (
(301,-70,l),
(637,770,l),
(527,770,l),
(191,-70,l)
);
}
);
};
layerId = "5DA6E103-6A94-47F2-987D-4952DB8EA68E";
shapes = (
{
closed = 1;
nodes = (
(184,0,l),
(426,604,l),
(347,604,l),
(589,0,l),
(795,0,l),
(486,700,l),
(290,700,l),
(-19,0,l)
);
},
{
closed = 1;
nodes = (
(594,137,l),
(543,281,l),
(202,281,l),
(150,137,l)
);
},
{
closed = 1;
nodes = (
(416,-70,l),
(752,770,l),
(642,770,l),
(306,-70,l)
);
}
);
width = 776;
},
{
associatedMasterId = UUID0;
attr = {
axisRules = (
{
min = 100;
}
);
};
background = {
anchors = (
{
name = _center;
pos = (409,350);
},
{
name = bottom;
pos = (344,0);
},
{
name = ogonek;
pos = (679,0);
},
{
name = top;
pos = (344,700);
},
{
name = topleft;
pos = (106,700);
}
);
shapes = (
{
closed = 1;
nodes = (
(32,0,l),
(349,684,l),
(339,684,l),
(656,0,l),
(679,0,l),
(354,700,l),
(334,700,l),
(9,0,l)
);
},
{
closed = 1;
nodes = (
(571,211,l),
(561,230,l),
(126,230,l),
(116,211,l)
);
},
{
closed = 1;
nodes = (
(171,-70,l),
(561,770,l),
(539,770,l),
(149,-70,l)
);
}
);
};
layerId = "8919DE26-5B9E-430A-A1EE-9EDE4203A8FC";
name = "[100]";
shapes = (
{
closed = 1;
nodes = (
(32,0,l),
(349,684,l),
(339,684,l),
(656,0,l),
(679,0,l),
(354,700,l),
(334,700,l),
(9,0,l)
);
},
{
closed = 1;
nodes = (
(571,211,l),
(561,230,l),
(126,230,l),
(116,211,l)
);
},
{
closed = 1;
nodes = (
(201,-70,l),
(591,770,l),
(569,770,l),
(179,-70,l)
);
}
);
width = 688;
},
{
associatedMasterId = "708134FE-A11E-43C9-84F0-594DA15B6BD1";
attr = {
axisRules = (
{
min = 100;
}
);
};
background = {
shapes = (
{
closed = 1;
nodes = (
(98,0,l),
(383,649,l),
(342,649,l),
(627,0,l),
(730,0,l),
(412,700,l),
(315,700,l),
(-3,0,l)
);
},
{
closed = 1;
nodes = (
(581,179,l),
(553,252,l),
(159,252,l),
(131,179,l)
);
},
{
closed = 1;
nodes = (
(289,-70,l),
(656,770,l),
(595,770,l),
(229,-70,l)
);
}
);
};
layerId = "AA5CE02A-7D7F-4186-8EEF-0CFBD332A281";
name = "[100]";
shapes = (
{
closed = 1;
nodes = (
(115,0,l),
(392,642,l),
(346,642,l),
(623,0,l),
(743,0,l),
(426,700,l),
(313,700,l),
(-3,0,l)
);
},
{
closed = 1;
nodes = (
(586,172,l),
(554,257,l),
(168,257,l),
(137,172,l)
);
},
{
closed = 1;
nodes = (
(411,-70,l),
(772,770,l),
(681,770,l),
(319,-70,l)
);
}
);
width = 740;
},
{
associatedMasterId = "5DA6E103-6A94-47F2-987D-4952DB8EA68E";
attr = {
axisRules = (
{
min = 100;
}
);
};
background = {
anchors = (
{
name = _center;
pos = (453,350);
},
{
name = bottom;
pos = (388,0);
},
{
name = ogonek;
pos = (795,0);
},
{
name = top;
pos = (388,700);
},
{
name = topleft;
pos = (114,701);
}
);
shapes = (
{
closed = 1;
nodes = (
(184,0,l),
(426,604,l),
(347,604,l),
(589,0,l),
(795,0,l),
(486,700,l),
(290,700,l),
(-19,0,l)
);
},
{
closed = 1;
nodes = (
(594,137,l),
(543,281,l),
(202,281,l),
(150,137,l)
);
},
{
closed = 1;
nodes = (
(301,-70,l),
(637,770,l),
(527,770,l),
(191,-70,l)
);
}
);
};
layerId = "93E0E6E4-17BA-45CE-9BB7-EFE80468E838";
name = "[100]";
shapes = (
{
closed = 1;
nodes = (
(184,0,l),
(426,604,l),
(347,604,l),
(589,0,l),
(795,0,l),
(486,700,l),
(290,700,l),
(-19,0,l)
);
},
{
closed = 1;
nodes = (
(594,137,l),
(543,281,l),
(202,281,l),
(150,137,l)
);
},
{
closed = 1;
nodes = (
(416,-70,l),
(752,770,l),
(642,770,l),
(306,-70,l)
);
}
);
width = 776;
}
);
unicode = 570;
},
{
color = 3;
glyphname = Aturned;
kernLeft = V;
kernRight = V;
layers = (
{
anchors = (
{
name = bottom;
pos = (344,0);
},
{
name = ogonek;
pos = (9,700);
},
{
name = top;
pos = (344,700);
}
);
layerId = UUID0;
shapes = (
{
closed = 1;
nodes = (
(656,700,l),
(339,16,l),
(349,16,l),
(32,700,l),
(9,700,l),
(334,0,l),
(354,0,l),
(679,700,l)
);
},
{
closed = 1;
nodes = (
(117,489,l),
(127,470,l),
(562,470,l),
(572,489,l)
);
}
);
width = 688;
},
{
anchors = (
{
name = bottom;
pos = (370,0);
},
{
name = ogonek;
pos = (-3,700);
},
{
name = top;
pos = (370,700);
}
);
layerId = "708134FE-A11E-43C9-84F0-594DA15B6BD1";
shapes = (
{
closed = 1;
nodes = (
(625,700,l),
(348,63,l),
(394,63,l),
(117,700,l),
(-3,700,l),
(314,0,l),
(427,0,l),
(743,700,l)
);
},
{
closed = 1;
nodes = (
(154,532,l),
(186,440,l),
(572,440,l),
(603,532,l)
);
}
);
width = 740;
},
{
anchors = (
{
name = bottom;
pos = (403,0);
},
{
name = ogonek;
pos = (-19,700);
},
{
name = top;
pos = (403,700);
}
);
layerId = "5DA6E103-6A94-47F2-987D-4952DB8EA68E";
shapes = (
{
closed = 1;
nodes = (
(585,700,l),
(359,112,l),
(451,112,l),
(225,700,l),
(-19,700,l),
(287,0,l),
(519,0,l),
(825,700,l)
);
},
{
closed = 1;
nodes = (
(201,578,l),
(261,408,l),
(583,408,l),
(643,578,l)
);
}
);
width = 806;
}
);
unicode = 11375;
},
{
glyphname = AE;
kernLeft = A;
kernRight = E;
layers = (
{
anchors = (
{
name = bottom;
pos = (480,0);
},
{
name = top;
pos = (610,700);
}
);
layerId = UUID0;
shapes = (
{
closed = 1;
nodes = (
(32,0,l),
(467,685,l),
(453,681,l),
(475,681,l),
(475,700,l),
(454,700,l),
(9,0,l)
);
},
{
closed = 1;
nodes = (
(475,211,l),
(475,230,l),
(163,230,l),
(153,211,l)
);
},
{
closed = 1;
nodes = (
(936,0,l),
(936,19,l),
(490,19,l),
(490,681,l),
(921,681,l),
(921,700,l),
(470,700,l),
(470,0,l)
);
},
{
closed = 1;
nodes = (
(876,346,l),
(876,365,l),
(485,365,l),
(485,346,l)
);
}
);
width = 1005;
},
{
anchors = (
{
name = bottom;
pos = (619,0);
},
{
name = top;
pos = (689,700);
}
);
layerId = "5DA6E103-6A94-47F2-987D-4952DB8EA68E";
shapes = (
{
closed = 1;
nodes = (
(221,0,l),
(527,616,l),
(385,522,l),
(584,522,l),
(584,700,l),
(350,700,l),
(-19,0,l)
);
},
{
closed = 1;
nodes = (
(584,122,l),
(584,292,l),
(219,292,l),
(219,122,l)
);
},
{
closed = 1;
nodes = (
(1085,0,l),
(1085,178,l),
(735,178,l),
(735,522,l),
(1072,522,l),
(1072,700,l),
(503,700,l),
(503,0,l)
);
},
{
closed = 1;
nodes = (
(1031,270,l),
(1031,440,l),
(719,440,l),
(719,270,l)
);
}
);
width = 1119;
},
{
anchors = (
{
name = bottom;
pos = (541,0);
},
{
name = top;
pos = (621,700);
}
);
layerId = "708134FE-A11E-43C9-84F0-594DA15B6BD1";
shapes = (
{
closed = 1;
nodes = (
(115,0,l),
(493,652,l),
(423,601,l),
(523,601,l),
(523,700,l),
(409,700,l),
(-3,0,l)
);
},
{
closed = 1;
nodes = (
(523,168,l),
(523,260,l),
(187,260,l),
(182,168,l)
);
},
{
closed = 1;
nodes = (
(1001,0,l),
(1001,99,l),
(599,99,l),
(599,601,l),
(987,601,l),
(987,700,l),
(485,700,l),
(485,0,l)
);
},
{
closed = 1;
nodes = (
(944,307,l),
(944,404,l),
(590,404,l),
(589,307,l)
);
}
);
width = 1055;
}
);
metricLeft = A;
metricRight = E;
unicode = 198;
},
{
glyphname = B;
kernLeft = H;
kernRight = B;
layers = (
{
anchors = (
{
name = bottom;
pos = (377,0);
},
{
name = hook.af;
pos = (133,700);
},
{
name = top;
pos = (377,700);
}
);
layerId = UUID0;
shapes = (
{
closed = 1;
nodes = (
(430,0,ls),
(600,0,o),
(683,65,o),
(683,183,cs),
(683,301,o),
(602,363,o),
(441,363,c),
(424,350,l),
(554,350,o),
(645,406,o),
(645,523,cs),
(645,640,o),
(554,700,o),
(410,700,cs),
(133,700,l),
(133,0,l)
);
},
{
closed = 1;
nodes = (
(153,681,l),
(414,681,ls),
(547,681,o),
(625,627,o),
(625,523,cs),
(625,419,o),
(547,365,o),
(414,365,cs),
(148,365,l),
(148,346,l),
(434,346,ls),
(583,346,o),
(663,296,o),
(663,183,cs),
(663,70,o),
(583,19,o),
(434,19,cs),
(153,19,l)
);
}
);
width = 748;
},
{
anchors = (
{
name = bottom;
pos = (382,0);
},
{
name = hook.af;
pos = (57,700);
},
{
name = top;
pos = (382,700);
}
);
layerId = "5DA6E103-6A94-47F2-987D-4952DB8EA68E";
shapes = (
{
closed = 1;
nodes = (
(451,0,ls),
(644,0,o),
(747,71,o),
(747,193,cs),
(747,315,o),
(644,387,o),
(481,387,c),
(461,333,l),
(624,333,o),
(714,411,o),
(714,517,cs),
(714,623,o),
(624,700,o),
(431,700,cs),
(57,700,l),
(57,0,l)
);
},
{
closed = 1;
nodes = (
(289,535,l),
(399,535,ls),
(452,535,o),
(476,517,o),
(476,483,cs),
(476,449,o),
(452,431,o),
(399,431,cs),
(273,431,l),
(273,275,l),
(431,275,ls),
(483,275,o),
(509,256,o),
(509,220,cs),
(509,184,o),
(483,165,o),
(431,165,cs),
(289,165,l)
);
}
);
width = 773;
},
{
anchors = (
{
name = bottom;
pos = (379,0);
},
{
name = hook.af;
pos = (100,700);
},
{
name = top;
pos = (379,700);
}
);
layerId = "708134FE-A11E-43C9-84F0-594DA15B6BD1";
shapes = (
{
closed = 1;
nodes = (
(441,0,ls),
(619,0,o),
(711,70,o),
(711,190,cs),
(711,310,o),
(623,374,o),
(512,374,c),
(494,341,l),
(588,341,o),
(675,406,o),
(675,518,cs),
(675,630,o),
(585,700,o),
(421,700,cs),
(100,700,l),
(100,0,l)
);
},
{
closed = 1;
nodes = (
(214,607,l),
(409,607,ls),
(505,607,o),
(560,573,o),
(560,504,cs),
(560,435,o),
(505,401,o),
(409,401,cs),
(205,401,l),
(205,308,l),
(435,308,ls),
(539,308,o),
(596,275,o),
(596,200,cs),
(596,125,o),
(539,93,o),
(435,93,cs),
(214,93,l)
);
}
);
width = 759;
}
);
metricLeft = H;
unicode = 66;
},
{
color = 3;
glyphname = "Beta-latin";
kernLeft = H;
kernRight = B;
layers = (
{
anchors = (
{
name = bottom;
pos = (391,0);
},
{
name = hook.af;
pos = (147,700);
},
{
name = top;
pos = (391,700);
}
);
layerId = UUID0;
shapes = (
{
closed = 1;
nodes = (
(167,-194,l),
(167,681,l),
(428,681,ls),
(561,681,o),
(639,627,o),
(639,523,cs),
(639,419,o),
(561,365,o),
(428,365,cs),
(162,365,l),
(162,346,l),
(448,346,ls),
(597,346,o),
(677,296,o),
(677,183,cs),
(677,70,o),
(597,19,o),
(448,19,cs),
(164,19,l),
(164,0,l),
(444,0,ls),
(614,0,o),
(697,65,o),
(697,183,cs),
(697,301,o),
(616,363,o),
(455,363,c),
(438,350,l),
(568,350,o),
(659,406,o),
(659,523,cs),
(659,640,o),
(568,700,o),
(424,700,cs),
(147,700,l),
(147,-194,l)
);
}
);
width = 787;
},
{
anchors = (
{
name = bottom;
pos = (391,0);
},
{
name = hook.af;
pos = (112,700);
},
{
name = top;
pos = (391,700);
}
);
layerId = "708134FE-A11E-43C9-84F0-594DA15B6BD1";
shapes = (
{
closed = 1;
nodes = (
(226,-194,l),
(226,607,l),
(421,607,ls),
(517,607,o),
(572,573,o),
(572,504,cs),
(572,435,o),
(517,401,o),
(421,401,cs),
(217,401,l),
(217,308,l),
(447,308,ls),
(551,308,o),
(608,275,o),
(608,200,cs),
(608,125,o),
(551,93,o),
(447,93,cs),
(217,93,l),
(217,0,l),
(453,0,ls),
(631,0,o),
(723,70,o),
(723,190,cs),
(723,310,o),
(635,374,o),
(524,374,c),
(506,341,l),
(600,341,o),
(687,406,o),
(687,518,cs),
(687,630,o),
(597,700,o),
(433,700,cs),
(112,700,l),
(112,-194,l)
);
}
);
width = 784;
},
{
anchors = (
{
name = bottom;
pos = (391,0);
},
{
name = hook.af;
pos = (66,700);
},
{
name = top;
pos = (391,700);
}
);
layerId = "5DA6E103-6A94-47F2-987D-4952DB8EA68E";
shapes = (
{
closed = 1;
nodes = (
(298,-194,l),
(298,535,l),
(408,535,ls),
(461,535,o),
(485,517,o),
(485,483,cs),
(485,449,o),
(461,431,o),
(408,431,cs),
(285,431,l),
(285,275,l),
(440,275,ls),
(492,275,o),
(518,256,o),
(518,220,cs),
(518,184,o),
(492,165,o),
(440,165,cs),
(285,165,l),
(285,0,l),
(460,0,l),
(653,0,o),
(756,71,o),
(756,193,cs),
(756,315,o),
(653,387,o),
(490,387,c),
(470,333,l),
(633,333,o),
(723,411,o),
(723,517,cs),
(723,623,o),
(633,700,o),
(440,700,cs),
(66,700,l),
(66,-194,l)
);
}
);
width = 781;
}
);
unicode = 42932;
},
{
color = 3;
glyphname = Bhook;
kernLeft = Hhook;
kernRight = B;
layers = (
{
layerId = UUID0;
shapes = (
{
alignment = -1;
pos = (138,0);
ref = B;
},
{
pos = (-47,0);
ref = hookcomb.left;
}
);
width = 886;
},
{
layerId = "708134FE-A11E-43C9-84F0-594DA15B6BD1";
shapes = (
{
alignment = -1;
pos = (171,0);
ref = B;
},
{
pos = (-29,0);
ref = hookcomb.left;
}
);
width = 930;
},
{
background = {
shapes = (
{
closed = 1;
nodes = (
(83,416,o),
(101,355,o),
(127,317,c),
(251,401,l),
(237,420,o),
(230,441,o),
(230,458,cs),
(230,491,o),
(253,517,o),
(301,517,cs),
(519,517,l),
(519,701,l),
(314,701,ls),
(139,701,o),
(83,589,o),
(83,478,cs)
);
},
{
pos = (242,0);
ref = B;
}
);
};
guides = (
{
pos = (1048,535);
}
);
layerId = "5DA6E103-6A94-47F2-987D-4952DB8EA68E";
shapes = (
{
alignment = -1;
pos = (242,0);
ref = B;
},
{
pos = (11,0);
ref = hookcomb.left;
}
);
width = 1015;
}
);
metricLeft = Hhook;
metricRight = B;
unicode = 385;
},
{
color = 4;
glyphname = Bstroke;
kernLeft = Bstroke;
kernRight = B;
layers = (
{
anchors = (
{
name = bottom;
pos = (377,0);
},
{
name = hook.af;
pos = (133,700);
},
{
name = top;
pos = (377,700);
}
);
background = {
anchors = (
{
name = bottom;
pos = (377,0);
},
{
name = hook.af;
pos = (133,700);
},
{
name = top;
pos = (377,700);
}
);
shapes = (
{
closed = 1;
nodes = (
(430,0,ls),
(600,0,o),
(683,65,o),
(683,183,cs),
(683,301,o),
(602,363,o),
(441,363,c),
(424,350,l),
(554,350,o),
(645,406,o),
(645,523,cs),
(645,640,o),
(554,700,o),
(410,700,cs),
(133,700,l),
(133,0,l)
);
},
{
closed = 1;
nodes = (
(135,176,l),
(150,176,l),
(323,176,l),
(323,195,l),
(150,195,l),
(135,195,l),
(13,195,l),
(13,176,l)
);
},
{
closed = 1;
nodes = (
(153,681,l),
(414,681,ls),
(547,681,o),
(625,627,o),
(625,523,cs),
(625,419,o),
(547,365,o),
(414,365,cs),
(148,365,l),
(148,346,l),
(434,346,ls),
(583,346,o),
(663,296,o),
(663,183,cs),
(663,70,o),
(583,19,o),
(434,19,cs),
(153,19,l)
);
}
);
};
layerId = UUID0;
shapes = (
{
closed = 1;
nodes = (
(430,0,ls),
(600,0,o),
(683,65,o),
(683,183,cs),
(683,301,o),
(602,363,o),
(441,363,c),
(424,350,l),
(554,350,o),
(645,406,o),
(645,523,cs),
(645,640,o),
(554,700,o),
(410,700,cs),
(133,700,l),
(133,0,l)
);
},
{
closed = 1;
nodes = (
(135,176,l),
(150,176,l),
(323,176,l),
(323,195,l),
(150,195,l),
(135,195,l),
(13,195,l),
(13,176,l)
);
},
{
closed = 1;
nodes = (
(153,681,l),
(414,681,ls),
(547,681,o),
(625,627,o),
(625,523,cs),
(625,419,o),
(547,365,o),
(414,365,cs),
(148,365,l),
(148,346,l),
(434,346,ls),
(583,346,o),
(663,296,o),
(663,183,cs),
(663,70,o),
(583,19,o),
(434,19,cs),
(153,19,l)
);
}
);
width = 748;
},
{
anchors = (
{
name = bottom;
pos = (379,0);
},
{
name = hook.af;
pos = (100,700);
},
{
name = top;
pos = (379,700);
}
);
background = {
anchors = (
{
name = bottom;
pos = (379,0);
},
{
name = hook.af;
pos = (100,700);
},
{
name = top;
pos = (379,700);
}
);
shapes = (
{
closed = 1;
nodes = (
(441,0,ls),
(619,0,o),
(711,73,o),
(711,193,cs),
(711,313,o),
(623,377,o),
(512,377,c),
(494,344,l),
(588,344,o),
(675,406,o),
(675,518,cs),
(675,630,o),
(585,700,o),
(421,700,cs),
(100,700,l),
(100,0,l)
);
},
{
closed = 1;
nodes = (
(139,158,l),
(163,158,l),
(364,158,l),
(364,246,l),
(163,246,l),
(139,246,l),
(0,246,l),
(0,158,l)
);
},
{
closed = 1;
nodes = (
(214,607,l),
(409,607,ls),
(505,607,o),
(560,573,o),
(560,504,cs),
(560,435,o),
(505,404,o),
(409,404,cs),
(205,404,l),
(205,311,l),
(435,311,ls),
(539,311,o),
(596,275,o),
(596,200,cs),
(596,125,o),
(539,93,o),
(435,93,cs),
(214,93,l)
);
}
);
};
layerId = "708134FE-A11E-43C9-84F0-594DA15B6BD1";
shapes = (
{
closed = 1;
nodes = (
(441,0,ls),
(619,0,o),
(711,73,o),
(711,193,cs),
(711,313,o),
(623,377,o),
(512,377,c),
(494,344,l),
(588,344,o),
(675,406,o),
(675,518,cs),
(675,630,o),
(585,700,o),
(421,700,cs),
(100,700,l),
(100,0,l)
);
},
{
closed = 1;
nodes = (
(139,158,l),
(163,158,l),
(364,158,l),
(364,246,l),
(163,246,l),
(139,246,l),
(0,246,l),
(0,158,l)
);
},
{
closed = 1;
nodes = (
(214,607,l),
(409,607,ls),
(505,607,o),
(560,573,o),
(560,504,cs),
(560,435,o),
(505,404,o),
(409,404,cs),
(205,404,l),
(205,311,l),
(435,311,ls),
(539,311,o),
(596,275,o),
(596,200,cs),
(596,125,o),
(539,93,o),
(435,93,cs),
(214,93,l)
);
}
);
width = 759;
},
{
anchors = (
{
name = bottom;
pos = (382,0);
},
{
name = hook.af;
pos = (57,700);
},
{
name = top;
pos = (382,700);
}
);
background = {
anchors = (
{
name = bottom;
pos = (382,0);
},
{
name = hook.af;
pos = (57,700);
},
{
name = top;
pos = (382,700);
}
);
shapes = (
{
closed = 1;
nodes = (
(451,0,ls),
(644,0,o),
(747,71,o),
(747,193,cs),
(747,315,o),
(644,387,o),
(481,390,c),
(461,340,l),
(624,333,o),
(714,411,o),
(714,517,cs),
(714,623,o),
(624,700,o),
(431,700,cs),
(57,700,l),
(57,0,l)
);
},
{
closed = 1;
nodes = (
(149,167,l),
(192,182,l),
(384,182,l),
(384,272,l),
(192,272,l),
(149,287,l),
(-13,287,l),
(-13,167,l)
);
},
{
closed = 1;
nodes = (
(289,535,l),
(399,535,ls),
(452,535,o),
(476,517,o),
(476,483,cs),
(476,449,o),
(452,431,o),
(399,431,cs),
(273,431,l),
(273,294,l),
(431,294,ls),
(483,294,o),
(509,269,o),
(509,226,cs),
(509,187,o),
(483,160,o),
(431,160,cs),
(289,160,l)
);
}
);
};
layerId = "5DA6E103-6A94-47F2-987D-4952DB8EA68E";
shapes = (
{
closed = 1;
nodes = (
(451,0,ls),
(644,0,o),
(747,71,o),
(747,193,cs),
(747,315,o),
(644,387,o),
(481,390,c),
(461,340,l),
(624,333,o),
(714,411,o),
(714,517,cs),
(714,623,o),
(624,700,o),
(431,700,cs),
(57,700,l),
(57,0,l)
);
},
{
closed = 1;
nodes = (
(149,167,l),
(192,182,l),
(384,182,l),
(384,272,l),
(192,272,l),
(149,287,l),
(-13,287,l),
(-13,167,l)
);
},
{
closed = 1;
nodes = (
(289,535,l),
(399,535,ls),
(452,535,o),
(476,517,o),
(476,483,cs),
(476,449,o),
(452,431,o),
(399,431,cs),
(273,431,l),
(273,294,l),
(431,294,ls),
(483,294,o),
(509,269,o),
(509,226,cs),
(509,187,o),
(483,160,o),
(431,160,cs),
(289,160,l)
);
}
);
width = 773;
}
);
unicode = 579;
},
{
glyphname = C;
kernLeft = O;
kernRight = C;
layers = (
{
anchors = (
{
name = bottom;
pos = (413,0);
},
{
name = center;
pos = (141,355);
},
{
name = top;
pos = (413,700);
}
);
layerId = UUID0;
shapes = (
{
closed = 1;
nodes = (
(510,-3,o),
(596,27,o),
(656,87,c),
(644,101,l),
(580,40,o),
(503,16,o),
(418,16,cs),
(225,16,o),
(79,161,o),
(79,350,cs),
(79,539,o),
(225,684,o),
(418,684,cs),
(503,684,o),
(580,661,o),
(644,600,c),
(656,614,l),
(596,674,o),
(510,703,o),
(418,703,cs),
(213,703,o),
(59,552,o),
(59,350,cs),
(59,148,o),
(213,-3,o),
(418,-3,cs)
);
}
);
width = 711;
},
{
anchors = (
{
name = bottom;
pos = (415,0);
},
{
name = center;
pos = (194,355);
},
{
name = top;
pos = (415,700);
}
);
layerId = "5DA6E103-6A94-47F2-987D-4952DB8EA68E";
shapes = (
{
closed = 1;
nodes = (
(556,-16,o),
(664,34,o),
(733,124,c),
(584,257,l),
(543,205,o),
(494,175,o),
(431,175,cs),
(333,175,o),
(267,243,o),
(267,350,cs),
(267,457,o),
(333,525,o),
(431,525,cs),
(494,525,o),
(543,495,o),
(584,443,c),
(733,576,l),
(664,666,o),
(556,716,o),
(419,716,cs),
(194,716,o),
(29,565,o),
(29,350,cs),
(29,135,o),
(194,-16,o),
(419,-16,cs)
);
}
);
width = 741;
},
{
anchors = (
{
name = bottom;
pos = (412,0);
},
{
name = center;
pos = (150,359);
},
{
name = top;
pos = (412,700);
}
);
layerId = "708134FE-A11E-43C9-84F0-594DA15B6BD1";
shapes = (
{
closed = 1;
nodes = (
(530,-9,o),
(626,30,o),
(690,105,c),
(616,177,l),
(564,120,o),
(499,93,o),
(424,93,cs),
(272,93,o),
(161,201,o),
(161,350,cs),
(161,499,o),
(272,607,o),
(424,607,cs),
(499,607,o),
(564,580,o),
(616,524,c),
(690,596,l),
(626,670,o),
(530,709,o),
(419,709,cs),
(205,709,o),
(46,558,o),
(46,350,cs),
(46,142,o),
(205,-9,o),
(418,-9,cs)
);
}
);
width = 725;
}
);
metricLeft = O;
unicode = 67;
},
{
color = 4;
glyphname = Cbar;
kernLeft = Cbar;
kernRight = C;
layers = (
{
anchors = (
{
name = bottom;
pos = (463,0);
},
{
name = center;
pos = (191,355);
},
{
name = top;
pos = (463,700);
}
);
background = {
shapes = (
{
alignment = -1;
pos = (50,0);
ref = C;
},
{
alignment = -1;
pos = (-121,-2);
ref = strokeshortcomb.case;
scale = (0.9168,1);
}
);
};
layerId = UUID0;
shapes = (
{
closed = 1;
nodes = (
(560,-3,o),
(646,27,o),
(706,87,c),
(694,101,l),
(630,40,o),
(553,16,o),
(468,16,cs),
(275,16,o),
(129,161,o),
(129,350,cs),
(129,539,o),
(275,684,o),
(468,684,cs),
(553,684,o),
(630,661,o),
(694,600,c),
(706,614,l),
(646,674,o),
(560,703,o),
(468,703,cs),
(263,703,o),
(109,552,o),
(109,350,cs),
(109,148,o),
(263,-3,o),
(468,-3,cs)
);
},
{
closed = 1;
nodes = (
(319,345,l),
(319,364,l),
(-11,364,l),
(-11,345,l)
);
}
);
width = 761;
},
{
anchors = (
{
name = bottom;
pos = (478,0);
},
{
name = center;
pos = (216,359);
},
{
name = top;
pos = (478,700);
}
);
background = {
shapes = (
{
alignment = -1;
pos = (66,0);
ref = C;
},
{
alignment = -1;
pos = (-79,3);
ref = strokeshortcomb.case;
scale = (0.9448,1);
}
);
};
layerId = "708134FE-A11E-43C9-84F0-594DA15B6BD1";
shapes = (
{
closed = 1;
nodes = (
(596,-9,o),
(692,30,o),
(756,105,c),
(682,177,l),
(630,120,o),
(565,93,o),
(490,93,cs),
(338,93,o),
(227,201,o),
(227,350,cs),
(227,499,o),
(338,607,o),
(490,607,cs),
(565,607,o),
(630,580,o),
(682,524,c),
(756,596,l),
(692,670,o),
(596,709,o),
(485,709,cs),
(271,709,o),
(112,558,o),
(112,350,cs),
(112,142,o),
(271,-9,o),
(484,-9,cs)
);
},
{
closed = 1;
nodes = (
(397,314,l),
(397,404,l),
(12,404,l),
(12,314,l)
);
}
);
width = 791;
},
{
anchors = (
{
name = bottom;
pos = (457,0);
},
{
name = center;
pos = (236,355);
},
{
name = top;
pos = (457,700);
}
);
background = {
shapes = (
{
alignment = -1;
pos = (42,0);
ref = C;
},
{
alignment = -1;
pos = (-60,-1);
ref = strokeshortcomb.case;
scale = (0.923,1);
}
);
};
layerId = "5DA6E103-6A94-47F2-987D-4952DB8EA68E";
shapes = (
{
closed = 1;
nodes = (
(598,-16,o),
(706,34,o),
(775,124,c),
(626,257,l),
(585,205,o),
(536,175,o),
(473,175,cs),
(375,175,o),
(309,243,o),
(309,350,cs),
(309,457,o),
(375,525,o),
(473,525,cs),
(536,525,o),
(585,495,o),
(626,443,c),
(775,576,l),
(706,666,o),
(598,716,o),
(461,716,cs),
(236,716,o),
(71,565,o),
(71,350,cs),
(71,135,o),
(236,-16,o),
(461,-16,cs)
);
},
{
closed = 1;
nodes = (
(434,287,l),
(434,423,l),
(0,423,l),
(0,287,l)
);
}
);
width = 783;
}
);
metricRight = C;
unicode = 42898;
},
{
color = 3;
glyphname = "Chi-latin";
kernLeft = "Chi-latin";
kernRight = "Chi-latin";
layers = (
{
background = {
shapes = (
{
closed = 1;
nodes = (
(69,-194,l),
(314,258,l),
(320,266,l),
(559,702,l),
(535,702,l),
(309,282,l),
(305,278,l),
(45,-194,l)
);
},
{
closed = 1;
nodes = (
(90,698,o),
(27,722,o),
(-44,684,cs),
(-58,677,o),
(-71,667,o),
(-83,655,c),
(-78,668,l),
(-59,646,l),
(-70,642,l),
(-61,651,o),
(-48,660,o),
(-36,667,cs),
(26,700,o),
(76,681,o),
(111,617,cs),
(516,-125,ls),
(552,-192,o),
(615,-216,o),
(686,-178,cs),
(700,-171,o),
(714,-161,o),
(726,-149,c),
(718,-160,l),
(701,-140,l),
(711,-136,l),
(702,-146,o),
(690,-154,o),
(678,-161,cs),
(616,-194,o),
(566,-176,o),
(531,-111,cs),
(126,631,ls)
);
}
);
};
layerId = UUID0;
shapes = (
{
closed = 1;
nodes = (
(678,-140,l),
(643,-183,o),
(583,-207,o),
(535,-119,cs),
(319,278,l),
(316,283,l),
(122,639,ls),
(76,724,o),
(-1,716,o),
(-50,659,c),
(-36,646,l),
(-1,689,o),
(59,713,o),
(107,625,cs),
(303,266,l),
(307,259,l),
(520,-133,ls),
(566,-218,o),
(643,-210,o),
(692,-153,c)
);
},
{
closed = 1;
nodes = (
(43,-194,l),
(315,258,l),
(320,266,l),
(585,700,l),
(561,700,l),
(309,282,l),
(305,278,l),
(19,-194,l)
);
}
);
userData = {
RMXScaler = {
height = 128;
verticalShift = -194;
width = 93;
};
};
width = 622;
},
{
background = {
shapes = (
{
closed = 1;
nodes = (
(123,-194,l),
(345,228,l),
(358,237,l),
(626,700,l),
(502,700,l),
(296,321,l),
(283,318,l),
(2,-194,l)
);
},
{
closed = 1;
nodes = (
(365,303,l),
(335,350,l),
(206,610,ls),
(128,768,o),
(-43,711,o),
(-88,615,c),
(-16,562,l),
(27,629,o),
(86,621,o),
(116,562,cs),
(269,260,l),
(303,209,l),
(453,-104,ls),
(529,-263,o),
(705,-205,o),
(750,-109,c),
(678,-56,l),
(635,-123,o),
(573,-115,o),
(544,-56,cs)
);
}
);
};
layerId = "708134FE-A11E-43C9-84F0-594DA15B6BD1";
shapes = (
{
closed = 1;
nodes = (
(672,-65,l),
(629,-122,o),
(574,-112,o),
(546,-56,cs),
(365,303,l),
(335,350,l),
(208,610,ls),
(135,759,o),
(-24,716,o),
(-80,630,c),
(-10,571,l),
(33,628,o),
(85,618,o),
(113,562,cs),
(264,260,l),
(298,209,l),
(450,-104,ls),
(523,-254,o),
(686,-211,o),
(742,-124,c)
);
},
{
closed = 1;
nodes = (
(110,-194,l),
(345,228,l),
(356,237,l),
(636,700,l),
(516,700,l),
(294,321,l),
(284,318,l),
(-8,-194,l)
);
}
);
userData = {
RMXScaler = {
height = 128;
verticalShift = -194;
width = 92;
};
};
width = 632;
},
{
background = {
shapes = (
{
closed = 1;
nodes = (
(741,26,l),
(706,-17,o),
(674,-9,o),
(650,33,cs),
(501,298,l),
(431,403,l),
(343,585,ls),
(263,750,o),
(80,756,o),
(-50,625,c),
(62,481,l),
(97,518,o),
(129,516,o),
(153,474,cs),
(302,209,l),
(378,104,l),
(460,-78,ls),
(535,-244,o),
(723,-249,o),
(853,-118,c)
);
},
{
closed = 1;
nodes = (
(286,-194,l),
(450,197,l),
(479,186,l),
(774,702,l),
(510,702,l),
(346,329,l),
(311,346,l),
(17,-194,l)
);
}
);
};
layerId = "5DA6E103-6A94-47F2-987D-4952DB8EA68E";
shapes = (
{
closed = 1;
nodes = (
(741,26,l),
(706,-17,o),
(674,-9,o),
(650,33,cs),
(501,298,l),
(431,403,l),
(351,568,ls),
(259,758,o),
(86,752,o),
(-50,625,c),
(62,481,l),
(97,518,o),
(129,516,o),
(153,474,cs),
(302,209,l),
(378,104,l),
(459,-77,ls),
(536,-248,o),
(725,-248,o),
(853,-118,c)
);
},
{
closed = 1;
nodes = (
(276,-194,l),
(449,197,l),
(508,186,l),
(794,700,l),
(530,700,l),
(375,329,l),
(310,346,l),
(7,-194,l)
);
}
);
userData = {
RMXScaler = {
height = 128;
verticalShift = -194;
width = 97;
};
};
width = 773;
},
{
associatedMasterId = "5DA6E103-6A94-47F2-987D-4952DB8EA68E";
background = {
shapes = (
{
closed = 1;
nodes = (
(300,-194,l),
(464,177,l),
(493,186,l),
(788,702,l),
(524,702,l),
(360,349,l),
(325,346,l),
(31,-194,l)
);
},
{
closed = 1;
nodes = (
(515,298,l),
(426,446,l),
(359,586,ls),
(262,789,o),
(41,726,o),
(-45,588,c),
(72,471,l),
(105,518,o),
(142,515,o),
(166,474,cs),
(316,213,l),
(398,84,l),
(471,-78,ls),
(564,-285,o),
(789,-219,o),
(875,-81,c),
(758,36,l),
(725,-11,o),
(688,-9,o),
(664,33,cs)
);
}
);
};
layerId = "CCDADA56-1581-4681-B159-47C38BE35B86";
name = "7. Jul 23, 01:55";
shapes = (
{
closed = 1;
nodes = (
(754,26,l),
(719,-17,o),
(687,-9,o),
(663,33,cs),
(514,298,l),
(444,403,l),
(356,585,ls),
(276,750,o),
(93,756,o),
(-37,625,c),
(75,481,l),
(110,518,o),
(142,516,o),
(166,474,cs),
(315,209,l),
(391,104,l),
(473,-78,ls),
(548,-244,o),
(736,-249,o),
(866,-118,c)
);
},
{
closed = 1;
nodes = (
(299,-194,l),
(463,197,l),
(492,186,l),
(787,702,l),
(523,702,l),
(359,329,l),
(324,346,l),
(30,-194,l)
);
}
);
userData = {
RMXScaler = {
height = 128;
verticalShift = -194;
width = 97;
};
};
width = 829;
}
);
unicode = 42931;
userData = {
RMXScaler = {
source = X;
};
};
},
{
color = 3;
glyphname = Chook;
kernLeft = O;
kernRight = C;
layers = (
{
anchors = (
{
name = bottom;
pos = (430,0);
},
{
name = top;
pos = (430,700);
}
);
background = {
shapes = (
{
closed = 1;
nodes = (
(676,614,l),
(676,684,ls),
(676,771,o),
(733,814,o),
(806,781,c),
(814,798,l),
(733,835,o),
(656,792,o),
(656,684,cs),
(656,614,l)
);
},
{
pos = (20,0);
ref = C;
}
);
};
layerId = UUID0;
shapes = (
{
closed = 1;
nodes = (
(676,681,ls),
(676,771,o),
(741,814,o),
(815,781,c),
(822,798,l),
(741,835,o),
(656,790,o),
(656,681,cs),
(656,614,l),
(676,614,l)
);
},
{
closed = 1;
nodes = (
(530,-3,o),
(616,27,o),
(676,87,c),
(664,101,l),
(600,40,o),
(523,16,o),
(438,16,cs),
(245,16,o),
(99,161,o),
(99,350,cs),
(99,539,o),
(245,684,o),
(438,684,cs),
(523,684,o),
(600,661,o),
(664,600,c),
(676,614,l),
(616,674,o),
(530,703,o),
(438,703,cs),
(233,703,o),
(79,552,o),
(79,350,cs),
(79,148,o),
(233,-3,o),
(438,-3,cs)
);
}
);
width = 731;
},
{
anchors = (
{
name = bottom;
pos = (419,0);
},
{
name = top;
pos = (419,700);
}
);
background = {
shapes = (
{
closed = 1;
nodes = (
(300,673,ls),
(300,752,o),
(394,771,o),
(445,714,c),
(398,700,l),
(437,855,l),
(482,796,l),
(372,876,o),
(196,845,o),
(196,673,cs),
(196,598,l),
(300,596,l)
);
},
{
closed = 1;
nodes = (
(815,891,o),
(596,870,o),
(596,670,cs),
(596,624,l),
(700,624,l),
(700,669,ls),
(700,764,o),
(808,768,o),
(875,697,c),
(928,771,l)
);
},
{
pos = (10,0);
ref = C;
}
);
};
layerId = "708134FE-A11E-43C9-84F0-594DA15B6BD1";
shapes = (
{
closed = 1;
nodes = (
(700,673,ls),
(700,735,o),
(757,759,o),
(808,740,c),
(839,829,l),
(723,875,o),
(596,819,o),
(596,673,cs),
(596,598,l),
(700,596,l)
);
},
{
closed = 1;
nodes = (
(540,-9,o),
(636,30,o),
(700,105,c),
(626,177,l),
(574,120,o),
(509,93,o),
(434,93,cs),
(282,93,o),
(171,201,o),
(171,350,cs),
(171,499,o),
(282,607,o),
(434,607,cs),
(509,607,o),
(574,580,o),
(626,524,c),
(700,596,l),
(636,670,o),
(540,709,o),
(429,709,cs),
(215,709,o),
(56,558,o),
(56,350,cs),
(56,142,o),
(215,-9,o),
(428,-9,cs)
);
}
);
width = 732;
},
{
anchors = (
{
name = bottom;
pos = (417,0);
},
{
name = top;
pos = (417,700);
}
);
background = {
shapes = (
{
closed = 1;
nodes = (
(732,652,ls),
(732,703,o),
(788,709,o),
(826,679,c),
(793,653,l),
(861,889,l),
(914,800,l),
(773,908,o),
(542,881,o),
(542,669,cs),
(542,576,l),
(732,576,l)
);
},
{
pos = (-1,0);
ref = C;
}
);
};
layerId = "5DA6E103-6A94-47F2-987D-4952DB8EA68E";
shapes = (
{
closed = 1;
nodes = (
(732,678,ls),
(732,720,o),
(770,731,o),
(804,718,c),
(847,865,l),
(710,922,o),
(542,876,o),
(542,695,cs),
(542,576,l),
(732,576,l)
);
},
{
closed = 1;
nodes = (
(555,-16,o),
(663,34,o),
(732,124,c),
(583,257,l),
(542,205,o),
(493,175,o),
(430,175,cs),
(332,175,o),
(266,243,o),
(266,350,cs),
(266,457,o),
(332,525,o),
(430,525,cs),
(493,525,o),
(542,495,o),
(583,443,c),
(732,576,l),
(663,666,o),
(555,716,o),
(418,716,cs),
(193,716,o),
(28,565,o),
(28,350,cs),
(28,135,o),
(193,-16,o),
(418,-16,cs)
);
}
);
width = 781;
}
);
unicode = 391;
},
{
color = 4;
glyphname = Cstroke;
kernLeft = O;
kernRight = C;
layers = (
{
background = {
shapes = (
{
closed = 1;
nodes = (
(201,-70,l),
(611,770,l),
(589,770,l),
(179,-70,l)
);
},
{
closed = 1;
nodes = (
(510,-3,o),
(596,27,o),
(656,87,c),
(644,101,l),
(580,40,o),
(503,16,o),
(418,16,cs),
(225,16,o),
(79,161,o),
(79,350,cs),
(79,539,o),
(225,684,o),
(418,684,cs),
(503,684,o),
(580,661,o),
(644,600,c),
(656,614,l),
(596,674,o),
(510,703,o),
(418,703,cs),
(213,703,o),
(59,552,o),
(59,350,cs),
(59,148,o),
(213,-3,o),
(418,-3,cs)
);
}
);
};
guides = (
{
pos = (652,770);
}
);
layerId = UUID0;
shapes = (
{
closed = 1;
nodes = (
(201,-70,l),
(611,770,l),
(589,770,l),
(179,-70,l)
);
},
{
closed = 1;
nodes = (
(510,-3,o),
(596,27,o),
(656,87,c),
(644,101,l),
(580,40,o),
(503,16,o),
(418,16,cs),
(225,16,o),
(79,161,o),
(79,350,cs),
(79,539,o),
(225,684,o),
(418,684,cs),
(503,684,o),
(580,661,o),
(644,600,c),
(656,614,l),
(596,674,o),
(510,703,o),
(418,703,cs),
(213,703,o),
(59,552,o),
(59,350,cs),
(59,148,o),
(213,-3,o),
(418,-3,cs)
);
}
);
width = 711;
},
{
background = {
shapes = (
{
closed = 1;
nodes = (
(264,-70,l),
(645,770,l),
(552,770,l),
(170,-70,l)
);
},
{
closed = 1;
nodes = (
(530,-9,o),
(626,30,o),
(690,105,c),
(616,177,l),
(564,120,o),
(499,93,o),
(424,93,cs),
(272,93,o),
(161,201,o),
(161,350,cs),
(161,499,o),
(272,607,o),
(424,607,cs),
(499,607,o),
(564,580,o),
(616,524,c),
(690,596,l),
(626,670,o),
(530,709,o),
(419,709,cs),
(205,709,o),
(46,558,o),
(46,350,cs),
(46,142,o),
(205,-9,o),
(418,-9,cs)
);
}
);
};
layerId = "708134FE-A11E-43C9-84F0-594DA15B6BD1";
shapes = (
{
closed = 1;
nodes = (
(264,-70,l),
(645,770,l),
(552,770,l),
(170,-70,l)
);
},
{
closed = 1;
nodes = (
(530,-9,o),
(626,30,o),
(690,105,c),
(616,177,l),
(564,120,o),
(499,93,o),
(424,93,cs),
(272,93,o),
(161,201,o),
(161,350,cs),
(161,499,o),
(272,607,o),
(424,607,cs),
(499,607,o),
(564,580,o),
(616,524,c),
(690,596,l),
(626,670,o),
(530,709,o),
(419,709,cs),
(205,709,o),
(46,558,o),
(46,350,cs),
(46,142,o),
(205,-9,o),
(418,-9,cs)
);
}
);
width = 725;
},
{
background = {
shapes = (
{
closed = 1;
nodes = (
(284,-70,l),
(680,770,l),
(566,770,l),
(170,-70,l)
);
},
{
closed = 1;
nodes = (
(556,-16,o),
(664,34,o),
(733,124,c),
(584,257,l),
(543,205,o),
(494,175,o),
(431,175,cs),
(333,175,o),
(267,243,o),
(267,350,cs),
(267,457,o),
(333,525,o),
(431,525,cs),
(494,525,o),
(543,495,o),
(584,443,c),
(733,576,l),
(664,666,o),
(556,716,o),
(419,716,cs),
(194,716,o),
(29,565,o),
(29,350,cs),
(29,135,o),
(194,-16,o),
(419,-16,cs)
);
}
);
};
layerId = "5DA6E103-6A94-47F2-987D-4952DB8EA68E";
shapes = (
{
closed = 1;
nodes = (
(284,-70,l),
(680,770,l),
(566,770,l),
(170,-70,l)
);
},
{
closed = 1;
nodes = (
(556,-16,o),
(664,34,o),
(733,124,c),
(584,257,l),
(543,205,o),
(494,175,o),
(431,175,cs),
(333,175,o),
(267,243,o),
(267,350,cs),
(267,457,o),
(333,525,o),
(431,525,cs),
(494,525,o),
(543,495,o),
(584,443,c),
(733,576,l),
(664,666,o),
(556,716,o),
(419,716,cs),
(194,716,o),
(29,565,o),
(29,350,cs),
(29,135,o),
(194,-16,o),
(419,-16,cs)
);
}
);
width = 741;
}
);
metricLeft = C;
metricRight = C;
unicode = 571;
},
{
glyphname = D;
kernLeft = H;
kernRight = O;
layers = (
{
anchors = (
{
name = bottom;
pos = (396,0);
},
{
name = center;
pos = (200,356);
},
{
name = hook.af;
pos = (133,700);
},
{
name = top;
pos = (391,699);
}
);
layerId = UUID0;
shapes = (
{
closed = 1;
nodes = (
(398,0,ls),
(619,0,o),
(767,148,o),
(767,350,cs),
(767,552,o),
(619,700,o),
(398,700,cs),
(133,700,l),
(133,0,l)
);
},
{
closed = 1;
nodes = (
(153,681,l),
(396,681,ls),
(610,681,o),
(747,541,o),
(747,350,cs),
(747,159,o),
(610,19,o),
(396,19,cs),
(153,19,l)
);
}
);
width = 826;
},
{
anchors = (
{
name = bottom;
pos = (361,0);
},
{
name = center;
pos = (206,355);
},
{
name = hook.af;
pos = (57,700);
},
{
name = top;
pos = (359,700);
}
);
layerId = "5DA6E103-6A94-47F2-987D-4952DB8EA68E";
shapes = (
{
closed = 1;
nodes = (
(402,0,ls),
(636,0,o),
(797,133,o),
(797,350,cs),
(797,567,o),
(636,700,o),
(402,700,cs),
(57,700,l),
(57,0,l)
);
},
{
closed = 1;
nodes = (
(293,516,l),
(392,516,ls),
(491,516,o),
(559,457,o),
(559,350,cs),
(559,243,o),
(491,184,o),
(392,184,cs),
(293,184,l)
);
}
);
width = 826;
},
{
anchors = (
{
name = bottom;
pos = (381,0);
},
{
name = center;
pos = (203,359);
},
{
name = hook.af;
pos = (100,700);
},
{
name = top;
pos = (377,699);
}
);
layerId = "708134FE-A11E-43C9-84F0-594DA15B6BD1";
shapes = (
{
closed = 1;
nodes = (
(400,0,ls),
(626,0,o),
(780,141,o),
(780,350,cs),
(780,559,o),
(626,700,o),
(400,700,cs),
(100,700,l),
(100,0,l)
);
},
{
closed = 1;
nodes = (
(214,601,l),
(394,601,ls),
(559,601,o),
(665,501,o),
(665,350,cs),
(665,199,o),
(559,99,o),
(394,99,cs),
(214,99,l)
);
}
);
width = 826;
}
);
metricLeft = H;
metricRight = O;
unicode = 68;
},
{
color = 3;
glyphname = Dtopbar;
kernLeft = Dtopbar;
kernRight = H;
layers = (
{
background = {
shapes = (
{
closed = 1;
nodes = (
(598,0,l),
(598,700,l),
(118,700,l),
(118,681,l),
(578,681,l),
(578,386,l),
(292,386,ls),
(129,386,o),
(50,312,o),
(50,196,cs),
(50,76,o),
(133,0,o),
(303,0,cs)
);
},
{
closed = 1;
nodes = (
(143,19,o),
(70,87,o),
(70,195,cs),
(70,302,o),
(141,367,o),
(299,367,cs),
(578,367,l),
(578,19,l),
(299,19,ls)
);
}
);
};
layerId = UUID0;
shapes = (
{
closed = 1;
nodes = (
(598,0,l),
(598,700,l),
(118,700,l),
(118,681,l),
(578,681,l),
(578,386,l),
(292,386,ls),
(129,386,o),
(50,312,o),
(50,196,cs),
(50,76,o),
(133,0,o),
(303,0,cs)
);
},
{
closed = 1;
nodes = (
(143,19,o),
(70,87,o),
(70,195,cs),
(70,302,o),
(141,367,o),
(299,367,cs),
(578,367,l),
(578,19,l),
(299,19,ls)
);
}
);
width = 731;
},
{
background = {
shapes = (
{
closed = 1;
nodes = (
(649,0,l),
(649,700,l),
(116,700,l),
(116,601,l),
(536,601,l),
(536,421,l),
(305,421,ls),
(129,421,o),
(36,348,o),
(36,218,cs),
(36,81,o),
(138,0,o),
(305,0,cs)
);
},
{
closed = 1;
nodes = (
(208,93,o),
(151,143,o),
(151,216,cs),
(151,286,o),
(207,328,o),
(316,328,cs),
(536,328,l),
(536,93,l),
(316,93,ls)
);
}
);
};
layerId = "708134FE-A11E-43C9-84F0-594DA15B6BD1";
shapes = (
{
closed = 1;
nodes = (
(649,0,l),
(649,700,l),
(116,700,l),
(116,601,l),
(536,601,l),
(536,421,l),
(305,421,ls),
(129,421,o),
(36,348,o),
(36,218,cs),
(36,81,o),
(138,0,o),
(305,0,cs)
);
},
{
closed = 1;
nodes = (
(208,93,o),
(151,143,o),
(151,216,cs),
(151,286,o),
(207,328,o),
(316,328,cs),
(536,328,l),
(536,93,l),
(316,93,ls)
);
}
);
width = 749;
},
{
background = {
shapes = (
{
closed = 1;
nodes = (
(706,0,l),
(706,700,l),
(98,700,l),
(98,535,l),
(474,535,l),
(474,435,l),
(279,435,ls),
(108,435,o),
(16,351,o),
(16,218,cs),
(16,76,o),
(124,0,o),
(309,0,cs)
);
},
{
closed = 1;
nodes = (
(280,165,o),
(255,189,o),
(255,223,cs),
(255,256,o),
(280,280,o),
(329,280,cs),
(474,280,l),
(474,165,l),
(329,165,ls)
);
}
);
};
layerId = "5DA6E103-6A94-47F2-987D-4952DB8EA68E";
shapes = (
{
closed = 1;
nodes = (
(706,0,l),
(706,700,l),
(98,700,l),
(98,535,l),
(474,535,l),
(474,435,l),
(279,435,ls),
(108,435,o),
(16,351,o),
(16,218,cs),
(16,76,o),
(124,0,o),
(309,0,cs)
);
},
{
closed = 1;
nodes = (
(280,165,o),
(255,189,o),
(255,223,cs),
(255,256,o),
(280,280,o),
(329,280,cs),
(474,280,l),
(474,165,l),
(329,165,ls)
);
}
);
width = 763;
}
);
metricRight = H;
unicode = 395;
},
{
glyphname = E;
kernLeft = H;
kernRight = E;
layers = (
{
anchors = (
{
name = bottom;
pos = (359,0);
},
{
name = ogonek;
pos = (599,0);
},
{
name = top;
pos = (359,700);
},
{
name = topleft;
pos = (41,700);
}
);
layerId = UUID0;
shapes = (
{
closed = 1;
nodes = (
(599,0,l),
(599,19,l),
(153,19,l),
(153,681,l),
(584,681,l),
(584,700,l),
(133,700,l),
(133,0,l)
);
},
{
closed = 1;
nodes = (
(539,346,l),
(539,365,l),
(148,365,l),
(148,346,l)
);
}
);
width = 668;
},
{
anchors = (
{
name = bottom;
pos = (342,0);
},
{
name = ogonek;
pos = (639,0);
},
{
name = top;
pos = (342,700);
},
{
name = topleft;
pos = (-9,700);
}
);
layerId = "5DA6E103-6A94-47F2-987D-4952DB8EA68E";
shapes = (
{
closed = 1;
nodes = (
(639,0,l),
(639,178,l),
(289,178,l),
(289,522,l),
(626,522,l),
(626,700,l),
(57,700,l),
(57,0,l)
);
},
{
closed = 1;
nodes = (
(585,270,l),
(585,440,l),
(273,440,l),
(273,270,l)
);
}
);
width = 673;
},
{
anchors = (
{
name = bottom;
pos = (351,0);
},
{
name = ogonek;
pos = (616,0);
},
{
name = top;
pos = (351,700);
},
{
name = topleft;
pos = (19,700);
}
);
layerId = "708134FE-A11E-43C9-84F0-594DA15B6BD1";
shapes = (
{
closed = 1;
nodes = (
(616,0,l),
(616,99,l),
(214,99,l),
(214,601,l),
(602,601,l),
(602,700,l),
(100,700,l),
(100,0,l)
);
},
{
closed = 1;
nodes = (
(559,307,l),
(559,404,l),
(205,404,l),
(205,307,l)
);
}
);
width = 670;
}
);
metricLeft = H;
unicode = 69;
},
{
color = 3;
glyphname = Eopen;
kernLeft = E.ss01;
kernRight = E;
layers = (
{
anchors = (
{
name = bottom;
pos = (344,0);
},
{
name = top;
pos = (344,700);
}
);
layerId = UUID0;
shapes = (
{
pos = (621,0);
ref = "Ze-cy";
scale = (-1,1);
}
);
width = 621;
},
{
anchors = (
{
name = bottom;
pos = (365,0);
},
{
name = top;
pos = (365,700);
}
);
background = {
shapes = (
{
closed = 1;
nodes = (
(203,-9,o),
(349,-9,cs),
(489,-9,o),
(626,54,o),
(626,180,c),
(514,180,l),
(506,119,o),
(429,89,o),
(351,89,cs),
(262,89,o),
(170,128,o),
(170,213,cs),
(170,280,o),
(228,315,o),
(324,315,cs),
(468,315,l),
(468,407,l),
(332,407,ls),
(248,407,o),
(199,443,o),
(199,502,cs),
(199,636,o),
(498,647,o),
(510,532,c),
(622,531,l),
(622,780,o),
(83,760,o),
(83,515,cs),
(83,417,o),
(165,348,o),
(288,348,c),
(284,378,l),
(143,378,o),
(54,303,o),
(54,198,cs),
(54,59,o)
);
}
);
};
layerId = "708134FE-A11E-43C9-84F0-594DA15B6BD1";
shapes = (
{
pos = (646,0);
ref = "Ze-cy";
scale = (-1,1);
}
);
width = 646;
},
{
anchors = (
{
name = bottom;
pos = (376,0);
},
{
name = top;
pos = (376,700);
}
);
layerId = "5DA6E103-6A94-47F2-987D-4952DB8EA68E";
shapes = (
{
pos = (672,0);
ref = "Ze-cy";
scale = (-1,1);
}
);
width = 672;
}
);
unicode = 400;
},
{
color = 3;
glyphname = Ereversed;
kernLeft = "Ereversed-cy";
kernRight = H;
layers = (
{
anchors = (
{
name = bottom;
pos = (309,0);
},
{
name = top;
pos = (309,700);
}
);
background = {
shapes = (
{
angle = 180;
pos = (668,700);
ref = E;
}
);
};
layerId = UUID0;
shapes = (
{
closed = 1;
nodes = (
(69,700,l),
(69,681,l),
(515,681,l),
(515,19,l),
(84,19,l),
(84,0,l),
(535,0,l),
(535,700,l)
);
},
{
closed = 1;
nodes = (
(129,354,l),
(129,335,l),
(520,335,l),
(520,354,l)
);
}
);
width = 668;
},
{
anchors = (
{
name = bottom;
pos = (319,0);
},
{
name = top;
pos = (319,700);
}
);
background = {
shapes = (
{
angle = 180;
pos = (670,700);
ref = E;
}
);
};
layerId = "708134FE-A11E-43C9-84F0-594DA15B6BD1";
shapes = (
{
closed = 1;
nodes = (
(54,700,l),
(54,601,l),
(456,601,l),
(456,99,l),
(68,99,l),
(68,0,l),
(570,0,l),
(570,700,l)
);
},
{
closed = 1;
nodes = (
(111,393,l),
(111,296,l),
(465,296,l),
(465,393,l)
);
}
);
width = 670;
},
{
anchors = (
{
name = bottom;
pos = (331,0);
},
{
name = top;
pos = (331,700);
}
);
background = {
shapes = (
{
angle = 180;
pos = (673,700);
ref = E;
}
);
};
layerId = "5DA6E103-6A94-47F2-987D-4952DB8EA68E";
shapes = (
{
closed = 1;
nodes = (
(34,700,l),
(34,522,l),
(384,522,l),
(384,178,l),
(47,178,l),
(47,0,l),
(616,0,l),
(616,700,l)
);
},
{
closed = 1;
nodes = (
(88,430,l),
(88,260,l),
(400,260,l),
(400,430,l)
);
}
);
width = 673;
}
);
unicode = 398;
},
{
color = 3;
glyphname = Esh;
kernLeft = Esh;
kernRight = Esh;
layers = (
{
background = {
shapes = (
{
closed = 1;
nodes = (
(141,170,ls),
(141,114,o),
(104,90,o),
(63,90,cs),
(29,90,o),
(-8,106,o),
(-29,134,c),
(0,125,l),
(-61,-26,l),
(-60,40,l),
(-38,11,o),
(15,-8,o),
(70,-8,cs),
(158,-8,o),
(255,39,o),
(255,169,cs),
(255,530,ls),
(255,586,o),
(292,610,o),
(333,610,cs),
(367,610,o),
(404,594,o),
(425,566,c),
(396,575,l),
(456,726,l),
(456,660,l),
(435,690,o),
(384,709,o),
(329,709,cs),
(240,709,o),
(141,660,o),
(141,531,cs)
);
},
{
pos = (66,194);
ref = jdotless;
}
);
};
layerId = UUID0;
shapes = (
{
closed = 1;
nodes = (
(146,-3,o),
(206,33,o),
(206,124,cs),
(206,576,ls),
(206,654,o),
(255,684,o),
(307,684,cs),
(342,684,o),
(379,670,o),
(402,648,c),
(381,656,l),
(395,686,l),
(416,662,l),
(390,688,o),
(349,703,o),
(308,703,cs),
(246,703,o),
(186,667,o),
(186,576,cs),
(186,124,ls),
(186,46,o),
(137,16,o),
(85,16,cs),
(50,16,o),
(13,30,o),
(-10,52,c),
(11,44,l),
(-3,14,l),
(-24,38,l),
(2,12,o),
(43,-3,o),
(84,-3,cs)
);
}
);
width = 392;
},
{
background = {
shapes = (
{
closed = 1;
nodes = (
(163,-37,ls),
(163,-96,o),
(135,-126,o),
(83,-126,cs),
(44,-126,o),
(10,-107,o),
(-9,-82,c),
(50,-82,l),
(-8,-233,l),
(-40,-167,l),
(-16,-201,o),
(35,-216,o),
(89,-216,cs),
(208,-216,o),
(273,-146,o),
(273,-38,cs),
(273,569,ls),
(273,628,o),
(301,658,o),
(353,658,cs),
(392,658,o),
(426,639,o),
(445,614,c),
(386,614,l),
(444,765,l),
(476,699,l),
(452,733,o),
(401,748,o),
(347,748,cs),
(228,748,o),
(163,678,o),
(163,570,cs)
);
},
{
angle = 180;
pos = (365,505);
ref = jdotless;
}
);
};
layerId = "708134FE-A11E-43C9-84F0-594DA15B6BD1";
shapes = (
{
closed = 1;
nodes = (
(178,-8,o),
(275,39,o),
(275,169,cs),
(275,530,ls),
(275,586,o),
(312,610,o),
(353,610,cs),
(387,610,o),
(424,594,o),
(445,566,c),
(416,575,l),
(476,726,l),
(476,660,l),
(455,690,o),
(404,709,o),
(349,709,cs),
(260,709,o),
(161,660,o),
(161,531,cs),
(161,170,ls),
(161,114,o),
(124,90,o),
(83,90,cs),
(49,90,o),
(12,106,o),
(-9,134,c),
(20,125,l),
(-41,-26,l),
(-40,40,l),
(-18,11,o),
(35,-8,o),
(90,-8,cs)
);
}
);
width = 436;
},
{
background = {
shapes = (
{
closed = 1;
nodes = (
(277,-12,o),
(365,79,o),
(365,220,cs),
(365,478,ls),
(365,522,o),
(380,541,o),
(412,541,cs),
(454,541,o),
(496,508,o),
(500,507,c),
(452,497,l),
(536,740,l),
(549,650,l),
(540,691,o),
(456,712,o),
(383,712,cs),
(227,712,o),
(139,621,o),
(139,480,cs),
(139,222,ls),
(139,178,o),
(124,159,o),
(92,159,cs),
(50,159,o),
(8,192,o),
(4,193,c),
(55,211,l),
(-24,-15,l),
(-29,26,l),
(1,1,o),
(64,-12,o),
(121,-12,cs)
);
}
);
};
layerId = "5DA6E103-6A94-47F2-987D-4952DB8EA68E";
shapes = (
{
closed = 1;
nodes = (
(245,-16,o),
(372,44,o),
(371,231,cs),
(370,473,ls),
(368,507,o),
(384,529,o),
(416,529,cs),
(438,529,o),
(469,519,o),
(503,494,c),
(463,479,l),
(542,735,l),
(558,641,l),
(540,683,o),
(462,716,o),
(375,716,cs),
(259,716,o),
(132,656,o),
(133,469,cs),
(134,227,ls),
(136,193,o),
(120,171,o),
(88,171,cs),
(66,171,o),
(35,181,o),
(1,206,c),
(41,221,l),
(-38,-35,l),
(-54,59,l),
(-36,17,o),
(42,-16,o),
(129,-16,cs)
);
}
);
width = 504;
}
);
unicode = 425;
},
{
color = 4;
glyphname = Estroke;
kernLeft = H;
kernRight = E;
layers = (
{
background = {
shapes = (
{
closed = 1;
nodes = (
(172,-70,l),
(562,770,l),
(540,770,l),
(150,-70,l)
);
},
{
closed = 1;
nodes = (
(600,0,l),
(600,19,l),
(154,19,l),
(154,681,l),
(585,681,l),
(584,700,l),
(133,700,l),
(134,0,l)
);
},
{
closed = 1;
nodes = (
(540,346,l),
(540,365,l),
(149,365,l),
(149,346,l)
);
}
);
};
layerId = UUID0;
shapes = (
{
closed = 1;
nodes = (
(172,-70,l),
(562,770,l),
(540,770,l),
(150,-70,l)
);
},
{
closed = 1;
nodes = (
(600,0,l),
(600,19,l),
(154,19,l),
(154,681,l),
(585,681,l),
(584,700,l),
(133,700,l),
(134,0,l)
);
},
{
closed = 1;
nodes = (
(540,346,l),
(540,365,l),
(149,365,l),
(149,346,l)
);
}
);
width = 669;
},
{
background = {
shapes = (
{
closed = 1;
nodes = (
(229,-70,l),
(605,770,l),
(515,770,l),
(138,-70,l)
);
},
{
closed = 1;
nodes = (
(616,0,l),
(616,99,l),
(214,99,l),
(214,601,l),
(602,601,l),
(602,700,l),
(100,700,l),
(100,0,l)
);
},
{
closed = 1;
nodes = (
(559,307,l),
(559,404,l),
(205,404,l),
(205,307,l)
);
}
);
};
layerId = "708134FE-A11E-43C9-84F0-594DA15B6BD1";
shapes = (
{
closed = 1;
nodes = (
(229,-70,l),
(605,770,l),
(515,770,l),
(138,-70,l)
);
},
{
closed = 1;
nodes = (
(616,0,l),
(616,99,l),
(214,99,l),
(214,601,l),
(602,601,l),
(602,700,l),
(100,700,l),
(100,0,l)
);
},
{
closed = 1;
nodes = (
(559,307,l),
(559,404,l),
(205,404,l),
(205,307,l)
);
}
);
width = 670;
},
{
background = {
shapes = (
{
closed = 1;
nodes = (
(280,-70,l),
(676,770,l),
(562,770,l),
(166,-70,l)
);
},
{
closed = 1;
nodes = (
(639,0,l),
(639,178,l),
(289,178,l),
(289,522,l),
(626,522,l),
(626,700,l),
(57,700,l),
(57,0,l)
);
},
{
closed = 1;
nodes = (
(585,270,l),
(585,440,l),
(273,440,l),
(273,270,l)
);
}
);
};
layerId = "5DA6E103-6A94-47F2-987D-4952DB8EA68E";
shapes = (
{
closed = 1;
nodes = (
(280,-70,l),
(676,770,l),
(562,770,l),
(166,-70,l)
);
},
{
closed = 1;
nodes = (
(639,0,l),
(639,178,l),
(289,178,l),
(289,522,l),
(626,522,l),
(626,700,l),
(57,700,l),
(57,0,l)
);
},
{
closed = 1;
nodes = (
(585,270,l),
(585,440,l),
(273,440,l),
(273,270,l)
);
}
);
width = 673;
}
);
metricLeft = E;
unicode = 582;
},
{
glyphname = Schwa;
kernLeft = O;
kernRight = O;
layers = (
{
anchors = (
{
name = bottom;
pos = (409,0);
},
{
name = top;
pos = (409,700);
}
);
layerId = UUID0;
shapes = (
{
closed = 1;
nodes = (
(602,-3,o),
(757,157,o),
(757,351,cs),
(757,552,o),
(603,703,o),
(398,703,cs),
(304,703,o),
(219,675,o),
(156,618,c),
(167,603,l),
(234,661,o),
(311,684,o),
(398,684,cs),
(590,684,o),
(737,539,o),
(737,351,cs),
(737,349,ls),
(737,162,o),
(587,16,o),
(408,16,cs),
(219,16,o),
(79,161,o),
(79,350,c),
(71,341,l),
(742,341,l),
(742,360,l),
(59,360,l),
(59,350,ls),
(59,148,o),
(207,-3,o),
(408,-3,cs)
);
}
);
width = 816;
},
{
anchors = (
{
name = bottom;
pos = (409,0);
},
{
name = top;
pos = (409,700);
}
);
layerId = "5DA6E103-6A94-47F2-987D-4952DB8EA68E";
shapes = (
{
closed = 1;
nodes = (
(628,-16,o),
(789,133,o),
(789,350,cs),
(789,565,o),
(624,716,o),
(389,716,cs),
(262,716,o),
(135,658,o),
(69,586,c),
(208,443,l),
(251,495,o),
(332,525,o),
(387,525,cs),
(485,525,o),
(551,457,o),
(551,360,cs),
(551,310,ls),
(551,215,o),
(503,157,o),
(409,157,cs),
(315,157,o),
(267,215,o),
(267,310,c),
(191,268,l),
(576,268,l),
(576,398,l),
(29,398,l),
(29,360,ls),
(29,133,o),
(184,-16,o),
(409,-16,cs)
);
}
);
width = 818;
},
{
anchors = (
{
name = bottom;
pos = (409,0);
},
{
name = top;
pos = (409,700);
}
);
layerId = "708134FE-A11E-43C9-84F0-594DA15B6BD1";
shapes = (
{
closed = 1;
nodes = (
(617,-9,o),
(771,143,o),
(771,351,cs),
(771,557,o),
(617,709,o),
(404,709,cs),
(286,709,o),
(182,669,o),
(116,604,c),
(185,525,l),
(241,580,o),
(320,607,o),
(403,607,cs),
(544,607,o),
(656,499,o),
(656,355,cs),
(656,344,ls),
(656,192,o),
(558,90,o),
(409,90,cs),
(260,90,o),
(160,192,o),
(160,350,c),
(123,289,l),
(669,289,l),
(669,386,l),
(46,386,l),
(46,355,ls),
(46,144,o),
(200,-9,o),
(409,-9,cs)
);
}
);
width = 817;
}
);
metricLeft = O;
metricRight = O;
unicode = 399;
},
{
color = 3;
glyphname = Ezhreversed;
kernLeft = E.ss01;
kernRight = E;
layers = (
{
anchors = (
{
name = bottom;
pos = (300,0);
},
{
name = top;
pos = (300,700);
}
);
layerId = UUID0;
shapes = (
{
closed = 1;
nodes = (
(423,-3,o),
(521,38,o),
(565,96,c),
(552,109,l),
(510,57,o),
(421,16,o),
(309,16,cs),
(164,16,o),
(86,85,o),
(86,192,cs),
(86,299,o),
(162,368,o),
(325,368,cs),
(365,368,l),
(365,383,l),
(116,688,l),
(114,681,l),
(542,681,l),
(542,700,l),
(94,700,l),
(94,685,l),
(343,380,l),
(342,387,l),
(326,387,ls),
(151,387,o),
(66,308,o),
(66,192,cs),
(66,76,o),
(152,-3,o),
(310,-3,cs)
);
}
);
width = 599;
},
{
anchors = (
{
name = bottom;
pos = (314,0);
},
{
name = top;
pos = (314,700);
}
);
layerId = "708134FE-A11E-43C9-84F0-594DA15B6BD1";
shapes = (
{
closed = 1;
nodes = (
(436,-9,o),
(539,22,o),
(597,72,c),
(556,164,l),
(505,120,o),
(422,91,o),
(332,91,cs),
(222,91,o),
(159,135,o),
(159,208,cs),
(159,277,o),
(215,321,o),
(337,321,cs),
(404,321,l),
(404,409,l),
(177,655,l),
(167,603,l),
(570,603,l),
(570,700,l),
(80,700,l),
(80,622,l),
(306,376,l),
(352,410,l),
(316,410,ls),
(137,410,o),
(47,327,o),
(47,208,cs),
(47,89,o),
(138,-9,o),
(329,-9,cs)
);
}
);
width = 628;
},
{
anchors = (
{
name = bottom;
pos = (327,0);
},
{
name = top;
pos = (327,700);
}
);
layerId = "5DA6E103-6A94-47F2-987D-4952DB8EA68E";
shapes = (
{
closed = 1;
nodes = (
(452,-16,o),
(562,5,o),
(638,47,c),
(562,221,l),
(499,186,o),
(424,170,o),
(362,170,cs),
(302,170,o),
(260,188,o),
(260,224,cs),
(260,254,o),
(288,272,o),
(353,272,cs),
(451,272,l),
(451,417,l),
(256,601,l),
(235,522,l),
(605,522,l),
(605,700,l),
(62,700,l),
(62,555,l),
(257,371,l),
(366,435,l),
(304,435,ls),
(120,435,o),
(22,347,o),
(22,225,cs),
(22,103,o),
(121,-16,o),
(354,-16,cs)
);
}
);
width = 648;
}
);
unicode = 440;
},
{
glyphname = F;
kernLeft = H;
kernRight = F;
layers = (
{
anchors = (
{
name = bottom;
pos = (358,0);
},
{
name = top;
pos = (358,700);
}
);
layerId = UUID0;
shapes = (
{
closed = 1;
nodes = (
(153,0,l),
(153,681,l),
(584,681,l),
(584,700,l),
(133,700,l),
(133,0,l)
);
},
{
closed = 1;
nodes = (
(539,326,l),
(539,345,l),
(148,345,l),
(148,326,l)
);
}
);
width = 629;
},
{
anchors = (
{
name = bottom;
pos = (338,0);
},
{
name = top;
pos = (338,700);
}
);
layerId = "5DA6E103-6A94-47F2-987D-4952DB8EA68E";
shapes = (
{
closed = 1;
nodes = (
(293,0,l),
(293,522,l),
(626,522,l),
(626,700,l),
(57,700,l),
(57,0,l)
);
},
{
closed = 1;
nodes = (
(585,224,l),
(585,402,l),
(277,402,l),
(277,224,l)
);
}
);
width = 644;
},
{
anchors = (
{
name = bottom;
pos = (348,0);
},
{
name = top;
pos = (348,700);
}
);
layerId = "708134FE-A11E-43C9-84F0-594DA15B6BD1";
shapes = (
{
closed = 1;
nodes = (
(214,0,l),
(214,601,l),
(602,601,l),
(602,700,l),
(100,700,l),
(100,0,l)
);
},
{
closed = 1;
nodes = (
(559,275,l),
(559,374,l),
(204,374,l),
(204,275,l)
);
}
);
width = 636;
}
);
metricLeft = H;
unicode = 70;
},
{
color = 3;
glyphname = Fhook;
kernLeft = j;
kernRight = F;
layers = (
{
background = {
shapes = (
{
closed = 1;
nodes = (
(15,-228,o),
(166,-211,o),
(166,-58,cs),
(166,681,l),
(597,681,l),
(597,700,l),
(146,700,l),
(146,-58,ls),
(146,-190,o),
(25,-204,o),
(-51,-140,c),
(-16,-152,l),
(-35,-187,l),
(-62,-155,l)
);
}
);
};
layerId = UUID0;
shapes = (
{
closed = 1;
nodes = (
(50,-222,o),
(166,-192,o),
(166,-58,cs),
(166,681,l),
(597,681,l),
(597,700,l),
(146,700,l),
(146,-58,ls),
(146,-173,o),
(54,-199,o),
(-21,-160,c),
(-30,-178,l)
);
},
{
closed = 1;
nodes = (
(552,326,l),
(552,345,l),
(161,345,l),
(161,326,l)
);
}
);
width = 633;
},
{
background = {
shapes = (
{
closed = 1;
nodes = (
(53,-239,o),
(229,-198,o),
(229,-31,cs),
(229,601,l),
(617,601,l),
(617,700,l),
(115,700,l),
(115,-27,ls),
(115,-108,o),
(31,-127,o),
(-35,-85,c),
(-67,-168,l)
);
},
{
closed = 1;
nodes = (
(574,275,l),
(574,374,l),
(219,374,l),
(219,275,l)
);
}
);
};
layerId = "708134FE-A11E-43C9-84F0-594DA15B6BD1";
shapes = (
{
closed = 1;
nodes = (
(92,-232,o),
(229,-176,o),
(229,-28,cs),
(229,601,l),
(617,601,l),
(617,700,l),
(115,700,l),
(115,-28,ls),
(115,-92,o),
(58,-116,o),
(7,-97,c),
(-24,-186,l)
);
},
{
closed = 1;
nodes = (
(574,275,l),
(574,374,l),
(219,374,l),
(219,275,l)
);
}
);
width = 656;
},
{
layerId = "5DA6E103-6A94-47F2-987D-4952DB8EA68E";
shapes = (
{
closed = 1;
nodes = (
(99,-249,o),
(315,-194,o),
(315,20,cs),
(315,522,l),
(648,522,l),
(648,700,l),
(79,700,l),
(79,23,ls),
(79,-30,o),
(33,-45,o),
(-20,-20,c),
(-74,-177,l)
);
},
{
closed = 1;
nodes = (
(607,224,l),
(607,402,l),
(299,402,l),
(299,224,l)
);
}
);
width = 675;
}
);
metricLeft = Nhookleft;
unicode = 401;
},
{
glyphname = G;
kernLeft = O;
kernRight = G;
layers = (
{
anchors = (
{
name = bottom;
pos = (402,0);
},
{
name = top;
pos = (402,700);
}
);
guides = (
{
angle = 90;
pos = (421,328);
}
);
layerId = UUID0;
shapes = (
{
closed = 1;
nodes = (
(516,-3,o),
(602,27,o),
(662,87,c),
(650,102,l),
(589,40,o),
(509,16,o),
(421,16,cs),
(225,16,o),
(79,161,o),
(79,350,cs),
(79,539,o),
(225,684,o),
(421,684,cs),
(509,684,o),
(586,661,o),
(650,600,c),
(662,614,l),
(602,674,o),
(516,703,o),
(421,703,cs),
(213,703,o),
(59,552,o),
(59,350,cs),
(59,148,o),
(213,-3,o),
(421,-3,cs)
);
},
{
closed = 1;
nodes = (
(662,343,l),
(643,343,l),
(643,89,l),
(662,87,l)
);
}
);
width = 774;
},
{
anchors = (
{
name = bottom;
pos = (410,0);
},
{
name = top;
pos = (424,700);
}
);
guides = (
{
angle = 90;
pos = (425,328);
}
);
layerId = "5DA6E103-6A94-47F2-987D-4952DB8EA68E";
shapes = (
{
closed = 1;
nodes = (
(523,-16,o),
(640,15,o),
(725,73,c),
(593,235,l),
(536,191,o),
(487,175,o),
(434,175,cs),
(333,175,o),
(267,245,o),
(267,350,cs),
(267,458,o),
(333,525,o),
(437,525,cs),
(499,525,o),
(550,499,o),
(594,448,c),
(745,581,l),
(674,668,o),
(563,716,o),
(425,716,cs),
(194,716,o),
(29,565,o),
(29,350,cs),
(29,135,o),
(194,-16,o),
(420,-16,cs)
);
},
{
closed = 1;
nodes = (
(725,369,l),
(520,369,l),
(520,103,l),
(725,73,l)
);
}
);
width = 769;
},
{
anchors = (
{
name = bottom;
pos = (405,0);
},
{
name = top;
pos = (412,700);
}
);
guides = (
{
angle = 90;
pos = (425,328);
}
);
layerId = "708134FE-A11E-43C9-84F0-594DA15B6BD1";
shapes = (
{
closed = 1;
nodes = (
(519,-9,o),
(619,21,o),
(690,80,c),
(625,167,l),
(566,113,o),
(499,93,o),
(427,93,cs),
(272,93,o),
(161,202,o),
(161,350,cs),
(161,500,o),
(272,607,o),
(428,607,cs),
(505,607,o),
(570,582,o),
(626,526,c),
(698,598,l),
(633,671,o),
(537,709,o),
(423,709,cs),
(205,709,o),
(46,558,o),
(46,350,cs),
(46,142,o),
(205,-9,o),
(421,-9,cs)
);
},
{
closed = 1;
nodes = (
(690,356,l),
(580,356,l),
(580,95,l),
(690,80,l)
);
}
);
width = 772;
}
);
metricLeft = O;
unicode = 71;
},
{
color = 3;
glyphname = Ghook;
kernLeft = O;
kernRight = G;
layers = (
{
anchors = (
{
name = bottom;
pos = (402,0);
},
{
name = top;
pos = (402,700);
}
);
background = {
anchors = (
{
name = bottom;
pos = (402,0);
},
{
name = top;
pos = (402,700);
}
);
shapes = (
{
closed = 1;
nodes = (
(662,614,l),
(662,684,ls),
(662,771,o),
(719,814,o),
(792,781,c),
(800,798,l),
(719,835,o),
(642,792,o),
(642,684,cs),
(642,614,l)
);
},
{
closed = 1;
nodes = (
(516,-3,o),
(602,27,o),
(662,87,c),
(650,102,l),
(589,40,o),
(509,16,o),
(421,16,cs),
(225,16,o),
(79,161,o),
(79,350,cs),
(79,539,o),
(225,684,o),
(421,684,cs),
(509,684,o),
(586,661,o),
(650,600,c),
(662,614,l),
(602,674,o),
(516,703,o),
(421,703,cs),
(213,703,o),
(59,552,o),
(59,350,cs),
(59,148,o),
(213,-3,o),
(421,-3,cs)
);
},
{
closed = 1;
nodes = (
(662,343,l),
(643,343,l),
(643,89,l),
(662,87,l)
);
}
);
};
layerId = UUID0;
shapes = (
{
closed = 1;
nodes = (
(516,-3,o),
(602,27,o),
(662,87,c),
(650,102,l),
(589,40,o),
(509,16,o),
(421,16,cs),
(225,16,o),
(79,161,o),
(79,350,cs),
(79,539,o),
(225,684,o),
(421,684,cs),
(509,684,o),
(586,661,o),
(650,600,c),
(662,614,l),
(602,674,o),
(516,703,o),
(421,703,cs),
(213,703,o),
(59,552,o),
(59,350,cs),
(59,148,o),
(213,-3,o),
(421,-3,cs)
);
},
{
closed = 1;
nodes = (
(662,343,l),
(643,343,l),
(643,89,l),
(662,87,l)
);
},
{
closed = 1;
nodes = (
(662,614,l),
(662,681,ls),
(662,771,o),
(727,814,o),
(801,781,c),
(808,798,l),
(727,835,o),
(642,790,o),
(642,681,cs),
(642,614,l)
);
}
);
width = 757;
},
{
anchors = (
{
name = bottom;
pos = (409,0);
},
{
name = top;
pos = (409,700);
}
);
background = {
shapes = (
{
closed = 1;
nodes = (
(698,598,l),
(698,673,ls),
(698,752,o),
(792,771,o),
(843,714,c),
(796,700,l),
(835,855,l),
(880,796,l),
(770,876,o),
(594,845,o),
(594,673,cs),
(594,598,l)
);
},
{
pos = (-10,0);
ref = G;
}
);
};
guides = (
{
pos = (715,862);
}
);
layerId = "708134FE-A11E-43C9-84F0-594DA15B6BD1";
shapes = (
{
closed = 1;
nodes = (
(519,-9,o),
(619,21,o),
(690,80,c),
(625,167,l),
(566,113,o),
(499,93,o),
(427,93,cs),
(272,93,o),
(161,202,o),
(161,350,cs),
(161,500,o),
(272,607,o),
(428,607,cs),
(505,607,o),
(570,582,o),
(626,526,c),
(698,598,l),
(633,671,o),
(537,709,o),
(423,709,cs),
(205,709,o),
(46,558,o),
(46,350,cs),
(46,142,o),
(205,-9,o),
(421,-9,cs)
);
},
{
closed = 1;
nodes = (
(690,356,l),
(580,356,l),
(580,95,l),
(690,80,l)
);
},
{
closed = 1;
nodes = (
(698,598,l),
(698,673,ls),
(698,735,o),
(755,759,o),
(806,740,c),
(837,829,l),
(721,875,o),
(594,819,o),
(594,673,cs),
(594,598,l)
);
}
);
width = 770;
},
{
anchors = (
{
name = bottom;
pos = (417,0);
},
{
name = top;
pos = (417,700);
}
);
background = {
shapes = (
{
closed = 1;
nodes = (
(745,597,l),
(745,668,ls),
(745,719,o),
(801,725,o),
(839,695,c),
(806,669,l),
(874,905,l),
(927,816,l),
(786,924,o),
(555,897,o),
(555,685,cs),
(555,592,l)
);
},
{
closed = 1;
nodes = (
(745,668,ls),
(745,710,o),
(783,721,o),
(817,708,c),
(860,855,l),
(723,912,o),
(555,866,o),
(555,685,cs),
(555,592,l),
(745,576,l)
);
},
{
pos = (1,0);
ref = G;
}
);
};
guides = (
{
pos = (726,862);
}
);
layerId = "5DA6E103-6A94-47F2-987D-4952DB8EA68E";
shapes = (
{
closed = 1;
nodes = (
(523,-16,o),
(640,15,o),
(725,73,c),
(593,235,l),
(536,191,o),
(487,175,o),
(434,175,cs),
(333,175,o),
(267,245,o),
(267,350,cs),
(267,458,o),
(333,525,o),
(437,525,cs),
(499,525,o),
(550,499,o),
(594,448,c),
(745,581,l),
(674,668,o),
(563,716,o),
(425,716,cs),
(194,716,o),
(29,565,o),
(29,350,cs),
(29,135,o),
(194,-16,o),
(420,-16,cs)
);
},
{
closed = 1;
nodes = (
(725,369,l),
(520,369,l),
(520,103,l),
(725,73,l)
);
},
{
closed = 1;
nodes = (
(745,581,l),
(745,678,ls),
(745,720,o),
(783,731,o),
(817,718,c),
(860,865,l),
(723,922,o),
(555,876,o),
(555,695,cs),
(555,592,l)
);
}
);
width = 795;
}
);
metricLeft = O;
unicode = 403;
},
{
color = 3;
glyphname = Glottalstop;
kernLeft = question;
kernRight = question;
layers = (
{
anchors = (
{
name = bottom;
pos = (292,0);
},
{
name = top;
pos = (292,700);
}
);
background = {
shapes = (
{
closed = 1;
nodes = (
(282,0,l),
(302,0,l),
(302,188,ls),
(302,343,o),
(549,333,o),
(549,510,cs),
(549,628,o),
(466,703,o),
(289,703,cs),
(153,703,o),
(78,642,o),
(26,584,c),
(40,570,l),
(91,627,o),
(159,684,o),
(289,684,cs),
(464,684,o),
(529,611,o),
(529,511,cs),
(529,342,o),
(282,358,o),
(282,188,cs)
);
}
);
};
layerId = UUID0;
shapes = (
{
closed = 1;
nodes = (
(302,0,l),
(302,143,ls),
(302,338,o),
(549,316,o),
(549,512,cs),
(549,649,o),
(427,703,o),
(300,703,cs),
(192,703,o),
(82,665,o),
(26,583,c),
(41,570,l),
(93,648,o),
(198,684,o),
(300,684,cs),
(416,684,o),
(529,637,o),
(529,512,cs),
(529,326,o),
(282,354,o),
(282,143,cs),
(282,0,l)
);
}
);
width = 603;
},
{
anchors = (
{
name = bottom;
pos = (245,0);
},
{
name = top;
pos = (245,700);
}
);
background = {
shapes = (
{
closed = 1;
nodes = (
(187,0,l),
(302,0,l),
(302,180,ls),
(302,336,o),
(525,348,o),
(525,509,cs),
(525,644,o),
(396,710,o),
(255,710,cs),
(137,710,o),
(11,664,o),
(-60,571,c),
(24,512,l),
(79,584,o),
(158,611,o),
(231,611,cs),
(336,611,o),
(410,581,o),
(410,509,cs),
(410,399,o),
(187,385,o),
(187,180,cs)
);
}
);
};
layerId = "708134FE-A11E-43C9-84F0-594DA15B6BD1";
shapes = (
{
closed = 1;
nodes = (
(301,0,l),
(301,154,ls),
(301,299,o),
(555,289,o),
(555,487,cs),
(555,635,o),
(412,709,o),
(261,709,cs),
(142,709,o),
(30,663,o),
(-38,571,c),
(53,506,l),
(98,578,o),
(182,610,o),
(262,610,cs),
(351,610,o),
(440,571,o),
(440,486,cs),
(440,342,o),
(187,364,o),
(187,160,cs),
(187,0,l)
);
}
);
width = 565;
},
{
anchors = (
{
name = bottom;
pos = (361,0);
},
{
name = top;
pos = (371,700);
}
);
background = {
shapes = (
{
closed = 1;
nodes = (
(268,0,l),
(474,0,l),
(474,211,ls),
(474,335,o),
(674,356,o),
(674,509,cs),
(674,650,o),
(522,715,o),
(361,715,cs),
(188,715,o),
(59,661,o),
(8,553,c),
(186,464,l),
(201,508,o),
(244,532,o),
(330,532,cs),
(388,532,o),
(437,514,o),
(437,480,cs),
(437,408,o),
(268,404,o),
(268,211,cs)
);
}
);
};
layerId = "5DA6E103-6A94-47F2-987D-4952DB8EA68E";
shapes = (
{
closed = 1;
nodes = (
(479,0,l),
(479,159,ls),
(479,284,o),
(674,284,o),
(674,472,cs),
(674,643,o),
(511,716,o),
(347,716,cs),
(203,716,o),
(58,659,o),
(8,553,c),
(186,464,l),
(221,512,o),
(277,534,o),
(328,534,cs),
(386,534,o),
(437,505,o),
(437,457,cs),
(437,363,o),
(243,373,o),
(243,181,cs),
(243,0,l)
);
}
);
width = 695;
}
);
unicode = 577;
},
{
color = 4;
glyphname = Gstroke;
kernLeft = O;
kernRight = G;
layers = (
{
anchors = (
{
name = bottom;
pos = (402,0);
},
{
name = top;
pos = (402,700);
}
);
background = {
anchors = (
{
name = bottom;
pos = (402,0);
},
{
name = top;
pos = (402,700);
}
);
shapes = (
{
closed = 1;
nodes = (
(516,-3,o),
(602,27,o),
(662,87,c),
(650,102,l),
(589,40,o),
(509,16,o),
(421,16,cs),
(225,16,o),
(79,161,o),
(79,350,cs),
(79,539,o),
(225,684,o),
(421,684,cs),
(509,684,o),
(586,661,o),
(650,600,c),
(662,614,l),
(602,674,o),
(516,703,o),
(421,703,cs),
(213,703,o),
(59,552,o),
(59,350,cs),
(59,148,o),
(213,-3,o),
(421,-3,cs)
);
},
{
closed = 1;
nodes = (
(782,224,l),
(782,243,l),
(473,243,l),
(473,224,l)
);
},
{
closed = 1;
nodes = (
(662,343,l),
(643,343,l),
(643,88,l),
(662,87,l)
);
}
);
};
guides = (
{
angle = 90;
pos = (431,328);
}
);
layerId = UUID0;
shapes = (
{
closed = 1;
nodes = (
(516,-3,o),
(602,27,o),
(662,87,c),
(650,102,l),
(589,40,o),
(509,16,o),
(421,16,cs),
(225,16,o),
(79,161,o),
(79,350,cs),
(79,539,o),
(225,684,o),
(421,684,cs),
(509,684,o),
(586,661,o),
(650,600,c),
(662,614,l),
(602,674,o),
(516,703,o),
(421,703,cs),
(213,703,o),
(59,552,o),
(59,350,cs),
(59,148,o),
(213,-3,o),
(421,-3,cs)
);
},
{
closed = 1;
nodes = (
(782,224,l),
(782,243,l),
(473,243,l),
(473,224,l)
);
},
{
closed = 1;
nodes = (
(662,343,l),
(643,343,l),
(643,88,l),
(662,87,l)
);
}
);
width = 788;
},
{
anchors = (
{
name = bottom;
pos = (410,0);
},
{
name = top;
pos = (424,700);
}
);
background = {
anchors = (
{
name = bottom;
pos = (410,0);
},
{
name = top;
pos = (424,700);
}
);
shapes = (
{
closed = 1;
nodes = (
(523,-16,o),
(640,15,o),
(725,73,c),
(593,235,l),
(536,191,o),
(487,175,o),
(434,175,cs),
(333,175,o),
(267,245,o),
(267,350,cs),
(267,458,o),
(333,525,o),
(437,525,cs),
(499,525,o),
(550,499,o),
(594,448,c),
(745,581,l),
(674,668,o),
(563,716,o),
(425,716,cs),
(194,716,o),
(29,565,o),
(29,350,cs),
(29,135,o),
(194,-16,o),
(420,-16,cs)
);
},
{
closed = 1;
nodes = (
(795,212,l),
(795,348,l),
(415,348,l),
(415,212,l)
);
},
{
closed = 1;
nodes = (
(725,379,l),
(520,379,l),
(520,103,l),
(725,73,l)
);
}
);
};
guides = (
{
angle = 90;
pos = (400,328);
}
);
layerId = "5DA6E103-6A94-47F2-987D-4952DB8EA68E";
shapes = (
{
closed = 1;
nodes = (
(523,-16,o),
(640,15,o),
(725,73,c),
(593,235,l),
(536,191,o),
(487,175,o),
(434,175,cs),
(333,175,o),
(267,245,o),
(267,350,cs),
(267,458,o),
(333,525,o),
(437,525,cs),
(499,525,o),
(550,499,o),
(594,448,c),
(745,581,l),
(674,668,o),
(563,716,o),
(425,716,cs),
(194,716,o),
(29,565,o),
(29,350,cs),
(29,135,o),
(194,-16,o),
(420,-16,cs)
);
},
{
closed = 1;
nodes = (
(795,212,l),
(795,348,l),
(415,348,l),
(415,212,l)
);
},
{
closed = 1;
nodes = (
(725,379,l),
(520,379,l),
(520,103,l),
(725,73,l)
);
}
);
width = 812;
},
{
anchors = (
{
name = bottom;
pos = (405,0);
},
{
name = top;
pos = (412,700);
}
);
background = {
anchors = (
{
name = bottom;
pos = (405,0);
},
{
name = top;
pos = (412,700);
}
);
shapes = (
{
closed = 1;
nodes = (
(519,-9,o),
(619,21,o),
(690,80,c),
(625,167,l),
(566,113,o),
(499,93,o),
(427,93,cs),
(272,93,o),
(161,202,o),
(161,350,cs),
(161,500,o),
(272,607,o),
(428,607,cs),
(505,607,o),
(570,582,o),
(626,526,c),
(698,598,l),
(633,671,o),
(537,709,o),
(423,709,cs),
(205,709,o),
(46,558,o),
(46,350,cs),
(46,142,o),
(205,-9,o),
(421,-9,cs)
);
},
{
closed = 1;
nodes = (
(790,206,l),
(790,296,l),
(430,296,l),
(430,206,l)
);
},
{
closed = 1;
nodes = (
(690,356,l),
(580,356,l),
(580,95,l),
(690,80,l)
);
}
);
};
guides = (
{
angle = 90;
pos = (398,326);
}
);
layerId = "708134FE-A11E-43C9-84F0-594DA15B6BD1";
shapes = (
{
closed = 1;
nodes = (
(519,-9,o),
(619,21,o),
(690,80,c),
(625,167,l),
(566,113,o),
(499,93,o),
(427,93,cs),
(272,93,o),
(161,202,o),
(161,350,cs),
(161,500,o),
(272,607,o),
(428,607,cs),
(505,607,o),
(570,582,o),
(626,526,c),
(698,598,l),
(633,671,o),
(537,709,o),
(423,709,cs),
(205,709,o),
(46,558,o),
(46,350,cs),
(46,142,o),
(205,-9,o),
(421,-9,cs)
);
},
{
closed = 1;
nodes = (
(790,206,l),
(790,296,l),
(430,296,l),
(430,206,l)
);
},
{
closed = 1;
nodes = (
(690,356,l),
(580,356,l),
(580,95,l),
(690,80,l)
);
}
);
width = 804;
}
);
metricLeft = "=O";
unicode = 484;
},
{
color = 3;
glyphname = Yogh;
kernLeft = Yogh;
kernRight = B;
layers = (
{
background = {
shapes = (
{
closed = 1;
nodes = (
(274,-139,o),
(483,-49,o),
(483,126,cs),
(483,246,o),
(386,323,o),
(235,323,c),
(235,317,l),
(361,317,o),
(450,399,o),
(450,515,cs),
(450,624,o),
(365,701,o),
(243,701,cs),
(166,701,o),
(75,668,o),
(24,622,c),
(36,608,l),
(87,651,o),
(173,682,o),
(243,682,cs),
(353,682,o),
(430,614,o),
(430,518,cs),
(430,406,o),
(340,328,o),
(211,328,cs),
(97,328,l),
(97,310,l),
(212,310,ls),
(365,310,o),
(463,238,o),
(463,126,cs),
(463,-36,o),
(261,-119,o),
(2,-68,c),
(-1,-86,l)
);
}
);
};
layerId = UUID0;
shapes = (
{
closed = 1;
nodes = (
(274,-139,o),
(483,-49,o),
(483,126,cs),
(483,246,o),
(386,323,o),
(235,323,c),
(235,317,l),
(360,317,o),
(450,399,o),
(450,513,cs),
(450,624,o),
(365,701,o),
(244,701,cs),
(165,701,o),
(75,668,o),
(24,622,c),
(36,608,l),
(87,651,o),
(172,682,o),
(245,682,cs),
(352,682,o),
(430,615,o),
(430,515,cs),
(430,406,o),
(338,328,o),
(211,328,cs),
(97,328,l),
(97,310,l),
(212,310,ls),
(365,310,o),
(463,238,o),
(463,126,cs),
(463,-36,o),
(261,-119,o),
(2,-68,c),
(-1,-86,l)
);
}
);
width = 563;
},
{
background = {
shapes = (
{
closed = 1;
nodes = (
(377,-194,o),
(656,-84,o),
(656,127,cs),
(656,284,o),
(501,345,o),
(396,318,c),
(392,285,l),
(545,302,o),
(625,407,o),
(625,513,cs),
(625,639,o),
(511,706,o),
(375,706,cs),
(267,706,o),
(143,664,o),
(52,582,c),
(105,501,l),
(180,568,o),
(283,604,o),
(367,604,cs),
(457,604,o),
(514,564,o),
(514,499,cs),
(514,435,o),
(458,368,o),
(338,340,cs),
(181,303,l),
(195,208,l),
(326,237,ls),
(467,268,o),
(541,213,o),
(541,126,cs),
(541,-42,o),
(257,-89,o),
(93,-89,c),
(87,-194,l)
);
}
);
};
layerId = "708134FE-A11E-43C9-84F0-594DA15B6BD1";
shapes = (
{
closed = 1;
nodes = (
(334,-147,o),
(563,-56,o),
(563,139,cs),
(563,263,o),
(471,338,o),
(323,338,c),
(319,316,l),
(444,319,o),
(534,401,o),
(534,512,cs),
(534,630,o),
(432,707,o),
(280,707,cs),
(189,707,o),
(94,679,o),
(29,633,c),
(63,549,l),
(121,586,o),
(201,609,o),
(267,609,cs),
(358,609,o),
(418,563,o),
(418,490,cs),
(418,413,o),
(352,359,o),
(255,359,cs),
(120,359,l),
(120,269,l),
(263,269,ls),
(375,269,o),
(445,222,o),
(445,142,cs),
(445,18,o),
(276,-41,o),
(26,7,c),
(17,-91,l)
);
}
);
width = 621;
},
{
background = {
shapes = (
{
closed = 1;
nodes = (
(395,-158,o),
(649,-66,o),
(649,156,cs),
(649,286,o),
(563,357,o),
(420,357,c),
(409,314,l),
(536,321,o),
(626,404,o),
(626,511,cs),
(626,637,o),
(502,715,o),
(308,715,cs),
(203,715,o),
(102,693,o),
(17,648,c),
(81,472,l),
(147,502,o),
(220,516,o),
(278,516,cs),
(349,516,o),
(386,496,o),
(386,458,cs),
(386,423,o),
(352,400,o),
(298,400,cs),
(132,400,l),
(132,216,l),
(311,216,ls),
(371,216,o),
(404,202,o),
(404,163,cs),
(404,87,o),
(277,60,o),
(39,103,c),
(22,-97,l)
);
}
);
};
layerId = "5DA6E103-6A94-47F2-987D-4952DB8EA68E";
shapes = (
{
closed = 1;
nodes = (
(404,-160,o),
(649,-61,o),
(649,156,cs),
(649,284,o),
(566,357,o),
(420,357,c),
(409,314,l),
(535,321,o),
(626,403,o),
(626,511,cs),
(626,636,o),
(503,715,o),
(307,715,cs),
(201,715,o),
(100,692,o),
(17,648,c),
(81,472,l),
(141,500,o),
(214,516,o),
(278,516,cs),
(349,516,o),
(386,496,o),
(386,458,cs),
(386,423,o),
(352,400,o),
(298,400,cs),
(132,400,l),
(132,216,l),
(311,216,ls),
(375,216,o),
(404,200,o),
(404,163,cs),
(404,84,o),
(269,62,o),
(39,103,c),
(22,-97,l)
);
}
);
width = 676;
},
{
associatedMasterId = "5DA6E103-6A94-47F2-987D-4952DB8EA68E";
background = {
shapes = (
{
closed = 1;
nodes = (
(524,-156,o),
(649,-49,o),
(649,99,cs),
(649,225,o),
(563,317,o),
(415,317,c),
(410,262,l),
(552,262,o),
(620,353,o),
(620,462,cs),
(620,596,o),
(511,716,o),
(268,716,cs),
(171,716,o),
(76,694,o),
(6,659,c),
(70,483,l),
(138,518,o),
(198,532,o),
(259,532,cs),
(345,532,o),
(382,497,o),
(382,447,cs),
(382,402,o),
(366,374,o),
(317,374,cs),
(112,374,l),
(112,194,l),
(333,194,ls),
(387,194,o),
(411,166,o),
(411,115,cs),
(411,63,o),
(372,28,o),
(273,28,cs),
(204,28,o),
(118,54,o),
(55,98,c),
(-14,-75,l),
(59,-125,o),
(172,-156,o),
(282,-156,cs)
);
}
);
};
layerId = "3291F978-DAAD-4E4A-ABFC-B68BA8B81B5B";
name = "31 Jul 23, 13:51";
shapes = (
{
closed = 1;
nodes = (
(396,-205,o),
(619,-50,o),
(640,125,cs),
(658,269,o),
(499,338,o),
(372,326,c),
(361,276,l),
(512,294,o),
(608,371,o),
(621,479,cs),
(637,604,o),
(530,692,o),
(384,707,cs),
(238,722,o),
(93,689,o),
(-9,633,c),
(47,469,l),
(121,504,o),
(229,528,o),
(302,520,cs),
(364,512,o),
(398,479,o),
(393,444,cs),
(389,408,o),
(348,379,o),
(274,374,cs),
(90,361,l),
(95,190,l),
(277,199,ls),
(357,203,o),
(415,175,o),
(409,126,cs),
(397,30,o),
(161,11,o),
(0,25,c),
(-22,-153,l)
);
}
);
width = 656;
}
);
unicode = 540;
},
{
glyphname = H;
kernLeft = H;
kernRight = H;
layers = (
{
anchors = (
{
name = bottom;
pos = (408,0);
},
{
name = center;
pos = (408,538);
},
{
name = hook.af;
pos = (133,700);
},
{
name = top;
pos = (408,700);
}
);
layerId = UUID0;
shapes = (
{
closed = 1;
nodes = (
(683,0,l),
(683,700,l),
(663,700,l),
(663,0,l)
);
},
{
closed = 1;
nodes = (
(153,0,l),
(153,700,l),
(133,700,l),
(133,0,l)
);
},
{
closed = 1;
nodes = (
(668,346,l),
(668,365,l),
(148,365,l),
(148,346,l)
);
}
);
width = 816;
},
{
anchors = (
{
name = bottom;
pos = (402,0);
},
{
name = center;
pos = (402,566);
},
{
name = hook.af;
pos = (57,700);
},
{
name = top;
pos = (402,700);
}
);
layerId = "5DA6E103-6A94-47F2-987D-4952DB8EA68E";
shapes = (
{
closed = 1;
nodes = (
(747,0,l),
(747,700,l),
(511,700,l),
(511,0,l)
);
},
{
closed = 1;
nodes = (
(293,0,l),
(293,700,l),
(57,700,l),
(57,0,l)
);
},
{
closed = 1;
nodes = (
(527,258,l),
(527,452,l),
(277,452,l),
(277,258,l)
);
}
);
width = 804;
},
{
anchors = (
{
name = bottom;
pos = (405,0);
},
{
name = center;
pos = (406,546);
},
{
name = hook.af;
pos = (100,700);
},
{
name = top;
pos = (405,700);
}
);
layerId = "708134FE-A11E-43C9-84F0-594DA15B6BD1";
shapes = (
{
closed = 1;
nodes = (
(711,0,l),
(711,700,l),
(597,700,l),
(597,0,l)
);
},
{
closed = 1;
nodes = (
(214,0,l),
(214,700,l),
(100,700,l),
(100,0,l)
);
},
{
closed = 1;
nodes = (
(606,306,l),
(606,405,l),
(204,405,l),
(204,306,l)
);
}
);
width = 811;
}
);
metricRight = "=|";
unicode = 72;
},
{
glyphname = Hbar;
kernLeft = Hbar;
kernRight = Hbar;
layers = (
{
anchors = (
{
name = bottom;
pos = (408,0);
},
{
name = center;
pos = (408,538);
},
{
name = hook.af;
pos = (133,700);
},
{
name = top;
pos = (408,700);
}
);
background = {
anchors = (
{
name = bottom;
pos = (408,0);
},
{
name = center;
pos = (408,538);
},
{
name = hook.af;
pos = (133,700);
},
{
name = top;
pos = (408,700);
}
);
shapes = (
{
closed = 1;
nodes = (
(683,0,l),
(683,700,l),
(663,700,l),
(663,0,l)
);
},
{
closed = 1;
nodes = (
(153,0,l),
(153,700,l),
(133,700,l),
(133,0,l)
);
},
{
closed = 1;
nodes = (
(668,346,l),
(668,365,l),
(148,365,l),
(148,346,l)
);
},
{
closed = 1;
nodes = (
(803,529,l),
(803,548,l),
(13,548,l),
(13,529,l)
);
}
);
};
layerId = UUID0;
shapes = (
{
closed = 1;
nodes = (
(683,0,l),
(683,700,l),
(663,700,l),
(663,0,l)
);
},
{
closed = 1;
nodes = (
(153,0,l),
(153,700,l),
(133,700,l),
(133,0,l)
);
},
{
closed = 1;
nodes = (
(668,346,l),
(668,365,l),
(148,365,l),
(148,346,l)
);
},
{
closed = 1;
nodes = (
(803,529,l),
(803,548,l),
(13,548,l),
(13,529,l)
);
}
);
width = 816;
},
{
anchors = (
{
name = bottom;
pos = (422,0);
},
{
name = center;
pos = (422,566);
},
{
name = hook.af;
pos = (77,700);
},
{
name = top;
pos = (422,700);
}
);
background = {
anchors = (
{
name = bottom;
pos = (422,0);
},
{
name = center;
pos = (422,566);
},
{
name = hook.af;
pos = (77,700);
},
{
name = top;
pos = (422,700);
}
);
shapes = (
{
closed = 1;
nodes = (
(767,0,l),
(767,700,l),
(531,700,l),
(531,0,l)
);
},
{
closed = 1;
nodes = (
(313,0,l),
(313,700,l),
(77,700,l),
(77,0,l)
);
},
{
closed = 1;
nodes = (
(547,248,l),
(547,432,l),
(297,432,l),
(297,248,l)
);
},
{
closed = 1;
nodes = (
(837,497,l),
(837,633,l),
(7,633,l),
(7,497,l)
);
}
);
};
layerId = "5DA6E103-6A94-47F2-987D-4952DB8EA68E";
shapes = (
{
closed = 1;
nodes = (
(767,0,l),
(767,700,l),
(531,700,l),
(531,0,l)
);
},
{
closed = 1;
nodes = (
(313,0,l),
(313,700,l),
(77,700,l),
(77,0,l)
);
},
{
closed = 1;
nodes = (
(547,248,l),
(547,432,l),
(297,432,l),
(297,248,l)
);
},
{
closed = 1;
nodes = (
(837,497,l),
(837,633,l),
(7,633,l),
(7,497,l)
);
}
);
width = 844;
},
{
anchors = (
{
name = bottom;
pos = (414,0);
},
{
name = center;
pos = (415,546);
},
{
name = hook.af;
pos = (109,700);
},
{
name = top;
pos = (414,700);
}
);
background = {
anchors = (
{
name = bottom;
pos = (414,0);
},
{
name = center;
pos = (415,546);
},
{
name = hook.af;
pos = (109,700);
},
{
name = top;
pos = (414,700);
}
);
shapes = (
{
closed = 1;
nodes = (
(720,0,l),
(720,700,l),
(606,700,l),
(606,0,l)
);
},
{
closed = 1;
nodes = (
(223,0,l),
(223,700,l),
(109,700,l),
(109,0,l)
);
},
{
closed = 1;
nodes = (
(615,306,l),
(615,405,l),
(213,405,l),
(213,306,l)
);
},
{
closed = 1;
nodes = (
(820,501,l),
(820,591,l),
(9,591,l),
(9,501,l)
);
}
);
};
layerId = "708134FE-A11E-43C9-84F0-594DA15B6BD1";
shapes = (
{
closed = 1;
nodes = (
(720,0,l),
(720,700,l),
(606,700,l),
(606,0,l)
);
},
{
closed = 1;
nodes = (
(223,0,l),
(223,700,l),
(109,700,l),
(109,0,l)
);
},
{
closed = 1;
nodes = (
(615,306,l),
(615,405,l),
(213,405,l),
(213,306,l)
);
},
{
closed = 1;
nodes = (
(820,501,l),
(820,591,l),
(9,591,l),
(9,501,l)
);
}
);
width = 829;
}
);
unicode = 294;
},
{
color = 3;
glyphname = Hcedilla;
kernLeft = H;
kernRight = H;
layers = (
{
anchors = (
{
name = bottom;
pos = (408,0);
},
{
name = center;
pos = (408,538);
},
{
name = hook.af;
pos = (133,700);
},
{
name = top;
pos = (408,700);
}
);
layerId = UUID0;
shapes = (
{
closed = 1;
nodes = (
(683,0,l),
(683,700,l),
(663,700,l),
(663,0,l)
);
},
{
closed = 1;
nodes = (
(186,-213,o),
(225,-182,o),
(225,-134,cs),
(225,-89,o),
(191,-59,o),
(141,-56,c),
(153,0,l),
(133,0,l),
(118,-74,l),
(134,-74,ls),
(179,-74,o),
(205,-99,o),
(205,-134,cs),
(205,-173,o),
(174,-194,o),
(133,-194,cs),
(110,-194,o),
(87,-186,o),
(71,-171,c),
(60,-186,l),
(82,-205,o),
(106,-213,o),
(134,-213,cs)
);
},
{
closed = 1;
nodes = (
(153,0,l),
(153,700,l),
(133,700,l),
(133,0,l)
);
},
{
closed = 1;
nodes = (
(668,346,l),
(668,365,l),
(148,365,l),
(148,346,l)
);
}
);
width = 816;
},
{
anchors = (
{
name = bottom;
pos = (405,0);
},
{
name = center;
pos = (405,556);
},
{
name = hook.af;
pos = (100,700);
},
{
name = top;
pos = (405,700);
}
);
layerId = "708134FE-A11E-43C9-84F0-594DA15B6BD1";
shapes = (
{
closed = 1;
nodes = (
(711,0,l),
(711,700,l),
(597,700,l),
(597,0,l)
);
},
{
closed = 1;
nodes = (
(232,-226,o),
(284,-190,o),
(284,-133,cs),
(284,-89,o),
(255,-55,o),
(182,-49,c),
(196,7,l),
(135,7,l),
(109,-94,l),
(152,-94,ls),
(191,-94,o),
(207,-108,o),
(207,-129,cs),
(207,-152,o),
(191,-166,o),
(153,-166,cs),
(128,-166,o),
(106,-161,o),
(84,-150,c),
(62,-205,l),
(87,-219,o),
(117,-226,o),
(153,-226,cs)
);
},
{
closed = 1;
nodes = (
(214,0,l),
(214,700,l),
(100,700,l),
(100,0,l)
);
},
{
closed = 1;
nodes = (
(606,306,l),
(606,405,l),
(204,405,l),
(204,306,l)
);
}
);
width = 811;
},
{
anchors = (
{
name = bottom;
pos = (402,0);
},
{
name = center;
pos = (402,576);
},
{
name = hook.af;
pos = (57,700);
},
{
name = top;
pos = (402,700);
}
);
layerId = "5DA6E103-6A94-47F2-987D-4952DB8EA68E";
shapes = (
{
closed = 1;
nodes = (
(747,0,l),
(747,700,l),
(511,700,l),
(511,0,l)
);
},
{
closed = 1;
nodes = (
(242,-240,o),
(310,-199,o),
(310,-132,cs),
(310,-97,o),
(288,-60,o),
(225,-52,c),
(239,10,l),
(123,10,l),
(96,-104,l),
(137,-104,ls),
(166,-104,o),
(178,-112,o),
(178,-124,cs),
(178,-138,o),
(164,-148,o),
(130,-148,cs),
(106,-148,o),
(85,-142,o),
(70,-136,c),
(42,-219,l),
(64,-231,o),
(106,-240,o),
(140,-240,cs)
);
},
{
closed = 1;
nodes = (
(293,0,l),
(293,700,l),
(57,700,l),
(57,0,l)
);
},
{
closed = 1;
nodes = (
(527,258,l),
(527,452,l),
(277,452,l),
(277,258,l)
);
}
);
width = 804;
}
);
unicode = 7720;
},
{
color = 3;
glyphname = Hhook;
kernLeft = Hhook;
kernRight = H;
layers = (
{
background = {
anchors = (
{
name = bottom;
pos = (546,0);
},
{
name = center;
pos = (546,538);
},
{
name = hook.af;
pos = (271,700);
},
{
name = top;
pos = (546,700);
}
);
shapes = (
{
closed = 1;
nodes = (
(821,0,l),
(821,700,l),
(801,700,l),
(801,0,l)
);
},
{
closed = 1;
nodes = (
(291,0,l),
(291,700,l),
(271,700,l),
(271,0,l)
);
},
{
closed = 1;
nodes = (
(806,346,l),
(806,365,l),
(286,365,l),
(286,346,l)
);
},
{
closed = 1;
nodes = (
(123,456,l),
(50,559,o),
(79,681,o),
(232,681,cs),
(276,681,l),
(276,700,l),
(233,700,ls),
(53,700,o),
(27,548,o),
(110,445,c)
);
}
);
};
layerId = UUID0;
shapes = (
{
alignment = -1;
pos = (138,0);
ref = H;
},
{
pos = (-47,0);
ref = hookcomb.left;
}
);
width = 954;
},
{
background = {
anchors = (
{
name = bottom;
pos = (576,0);
},
{
name = center;
pos = (576,556);
},
{
name = hook.af;
pos = (271,700);
},
{
name = top;
pos = (576,700);
}
);
shapes = (
{
closed = 1;
nodes = (
(882,0,l),
(882,700,l),
(768,700,l),
(768,0,l)
);
},
{
closed = 1;
nodes = (
(385,0,l),
(385,700,l),
(271,700,l),
(271,0,l)
);
},
{
closed = 1;
nodes = (
(777,306,l),
(777,405,l),
(375,405,l),
(375,306,l)
);
},
{
closed = 1;
nodes = (
(203,435,l),
(138,503,o),
(150,601,o),
(235,601,cs),
(280,601,l),
(280,700,l),
(234,700,ls),
(23,700,o),
(3,483,o),
(125,371,c)
);
}
);
};
layerId = "708134FE-A11E-43C9-84F0-594DA15B6BD1";
shapes = (
{
alignment = -1;
pos = (171,0);
ref = H;
},
{
pos = (-29,0);
ref = hookcomb.left;
}
);
width = 982;
},
{
background = {
anchors = (
{
name = bottom;
pos = (644,0);
},
{
name = center;
pos = (644,576);
},
{
name = hook.af;
pos = (299,700);
},
{
name = top;
pos = (644,700);
}
);
shapes = (
{
closed = 1;
nodes = (
(989,0,l),
(989,700,l),
(753,700,l),
(753,0,l)
);
},
{
closed = 1;
nodes = (
(535,0,l),
(535,700,l),
(299,700,l),
(299,0,l)
);
},
{
closed = 1;
nodes = (
(769,258,l),
(769,452,l),
(519,452,l),
(519,258,l)
);
},
{
closed = 1;
nodes = (
(252,396,l),
(214,461,o),
(226,517,o),
(285,517,cs),
(304,517,l),
(304,700,l),
(289,700,ls),
(55,700,o),
(0,467,o),
(106,320,c)
);
}
);
};
layerId = "5DA6E103-6A94-47F2-987D-4952DB8EA68E";
shapes = (
{
alignment = -1;
pos = (242,0);
ref = H;
},
{
pos = (11,0);
ref = hookcomb.left;
}
);
width = 1046;
}
);
metricRight = "=H";
unicode = 42922;
},
{
glyphname = Hturned;
kernLeft = "Che-cy";
kernRight = H;
layers = (
{
anchors = (
{
name = bottom;
pos = (332,0);
},
{
name = top;
pos = (334,700);
}
);
background = {
shapes = (
{
pos = (-65,0);
ref = "Che-cy";
}
);
};
layerId = UUID0;
shapes = (
{
closed = 1;
nodes = (
(582,700,l),
(582,542,ls),
(582,350,o),
(491,259,o),
(332,259,cs),
(173,259,o),
(82,349,o),
(82,522,cs),
(82,700,l),
(62,700,l),
(62,521,ls),
(62,338,o),
(165,240,o),
(331,240,cs),
(458,240,o),
(549,298,o),
(584,416,c),
(582,419,l),
(582,0,l),
(602,0,l),
(602,700,l)
);
}
);
width = 735;
},
{
anchors = (
{
name = bottom;
pos = (354,0);
},
{
name = top;
pos = (355,700);
}
);
background = {
shapes = (
{
alignment = -1;
pos = (-42,0);
ref = "Che-cy";
}
);
};
layerId = "708134FE-A11E-43C9-84F0-594DA15B6BD1";
shapes = (
{
closed = 1;
nodes = (
(542,700,l),
(542,528,ls),
(542,384,o),
(461,317,o),
(344,317,cs),
(236,317,o),
(166,382,o),
(166,514,cs),
(166,700,l),
(52,700,l),
(52,510,ls),
(52,319,o),
(154,215,o),
(320,215,cs),
(443,215,o),
(534,263,o),
(579,376,c),
(546,394,l),
(546,0,l),
(656,0,l),
(656,700,l)
);
}
);
width = 756;
},
{
anchors = (
{
name = bottom;
pos = (365,0);
},
{
name = top;
pos = (365,700);
}
);
background = {
shapes = (
{
pos = (-29,0);
ref = "Che-cy";
}
);
};
layerId = "5DA6E103-6A94-47F2-987D-4952DB8EA68E";
shapes = (
{
closed = 1;
nodes = (
(472,700,l),
(472,507,ls),
(472,414,o),
(423,372,o),
(362,372,cs),
(299,372,o),
(258,411,o),
(258,499,cs),
(258,700,l),
(22,700,l),
(22,492,ls),
(22,292,o),
(118,181,o),
(283,181,cs),
(395,181,o),
(474,238,o),
(515,334,c),
(479,378,l),
(479,0,l),
(708,0,l),
(708,700,l)
);
}
);
width = 765;
}
);
unicode = 42893;
},
{
glyphname = I;
kernLeft = H;
kernRight = H;
layers = (
{
anchors = (
{
name = bottom;
pos = (143,0);
},
{
name = ogonek;
pos = (153,0);
},
{
name = top;
pos = (143,700);
},
{
name = topleft;
pos = (41,699);
}
);
layerId = UUID0;
shapes = (
{
closed = 1;
nodes = (
(153,0,l),
(153,700,l),
(133,700,l),
(133,0,l)
);
}
);
width = 286;
},
{
anchors = (
{
name = bottom;
pos = (175,0);
},
{
name = ogonek;
pos = (293,0);
},
{
name = top;
pos = (175,700);
},
{
name = topleft;
pos = (-9,700);
}
);
layerId = "5DA6E103-6A94-47F2-987D-4952DB8EA68E";
shapes = (
{
closed = 1;
nodes = (
(293,0,l),
(293,700,l),
(57,700,l),
(57,0,l)
);
}
);
width = 350;
},
{
anchors = (
{
name = bottom;
pos = (157,0);
},
{
name = ogonek;
pos = (214,0);
},
{
name = top;
pos = (157,700);
},
{
name = topleft;
pos = (19,699);
}
);
layerId = "708134FE-A11E-43C9-84F0-594DA15B6BD1";
shapes = (
{
closed = 1;
nodes = (
(214,0,l),
(214,700,l),
(100,700,l),
(100,0,l)
);
}
);
width = 314;
}
);
metricLeft = H;
metricRight = H;
unicode = 73;
},
{
glyphname = IJ;
kernLeft = H;
kernRight = U;
layers = (
{
anchors = (
{
name = top;
pos = (167,700);
}
);
guides = (
{
angle = 90;
pos = (117,186);
}
);
layerId = UUID0;
shapes = (
{
closed = 1;
nodes = (
(484,-3,o),
(587,95,o),
(587,293,cs),
(587,700,l),
(567,700,l),
(567,294,ls),
(567,107,o),
(476,16,o),
(328,16,cs),
(253,16,o),
(185,39,o),
(132,78,c),
(120,62,l),
(174,24,o),
(247,-3,o),
(327,-3,cs)
);
},
{
closed = 1;
nodes = (
(147,290,l),
(147,700,l),
(127,700,l),
(127,290,l)
);
}
);
width = 714;
},
{
anchors = (
{
name = top;
pos = (169,700);
}
);
layerId = "5DA6E103-6A94-47F2-987D-4952DB8EA68E";
shapes = (
{
closed = 1;
nodes = (
(538,-16,o),
(678,105,o),
(678,325,cs),
(678,700,l),
(442,700,l),
(442,312,ls),
(442,215,o),
(404,172,o),
(317,172,cs),
(258,172,o),
(183,194,o),
(117,236,c),
(31,69,l),
(104,17,o),
(208,-16,o),
(328,-16,cs)
);
},
{
closed = 1;
nodes = (
(287,336,l),
(287,700,l),
(51,700,l),
(51,336,l)
);
}
);
width = 729;
},
{
anchors = (
{
name = top;
pos = (151,700);
}
);
layerId = "708134FE-A11E-43C9-84F0-594DA15B6BD1";
shapes = (
{
closed = 1;
nodes = (
(508,-9,o),
(627,100,o),
(627,309,cs),
(627,700,l),
(513,700,l),
(513,303,ls),
(513,160,o),
(447,93,o),
(329,93,cs),
(255,93,o),
(184,115,o),
(125,155,c),
(81,63,l),
(143,20,o),
(230,-9,o),
(327,-9,cs)
);
},
{
closed = 1;
nodes = (
(208,312,l),
(208,700,l),
(94,700,l),
(94,312,l)
);
}
);
width = 721;
}
);
metricRight = U;
unicode = 306;
},
{
color = 3;
glyphname = "Iota-latin";
kernLeft = U;
kernRight = l.ss01;
layers = (
{
anchors = (
{
name = bottom;
pos = (220,0);
},
{
name = top;
pos = (130,700);
}
);
background = {
shapes = (
{
closed = 1;
nodes = (
(225,-31,o),
(305,20,c),
(304,9,l),
(287,41,l),
(295,36,l),
(243,1,o),
(140,5,o),
(140,129,cs),
(140,700,l),
(120,700,l),
(120,125,ls),
(120,5,o)
);
}
);
};
guides = (
{
pos = (59,376);
}
);
layerId = UUID0;
shapes = (
{
closed = 1;
nodes = (
(286,-3,o),
(327,11,o),
(357,39,c),
(358,23,l),
(330,58,l),
(347,55,l),
(318,29,o),
(281,16,o),
(246,16,cs),
(190,16,o),
(140,51,o),
(140,127,cs),
(140,700,l),
(120,700,l),
(120,124,ls),
(120,37,o),
(181,-3,o),
(247,-3,cs)
);
}
);
width = 320;
},
{
anchors = (
{
name = bottom;
pos = (237,0);
},
{
name = top;
pos = (151,700);
}
);
background = {
shapes = (
{
closed = 1;
nodes = (
(208,170,l),
(208,700,l),
(94,700,l),
(94,170,l)
);
},
{
closed = 0;
nodes = (
(94,166,ls),
(94,-25,o),
(310,-51,o),
(420,47,c),
(417,-12,l),
(343,158,l),
(391,136,l),
(324,63,o),
(208,63,o),
(208,170,cs)
);
}
);
};
layerId = "708134FE-A11E-43C9-84F0-594DA15B6BD1";
shapes = (
{
closed = 1;
nodes = (
(324,-9,o),
(379,11,o),
(420,47,c),
(410,-12,l),
(343,151,l),
(395,144,l),
(368,109,o),
(322,90,o),
(285,90,cs),
(243,90,o),
(208,116,o),
(208,170,cs),
(208,700,l),
(94,700,l),
(94,170,ls),
(94,47,o),
(179,-9,o),
(270,-9,cs)
);
}
);
width = 389;
},
{
anchors = (
{
name = bottom;
pos = (211,0);
},
{
name = top;
pos = (168,700);
}
);
background = {
shapes = (
{
closed = 1;
nodes = (
(389,206,l),
(408,194,l),
(384,178,o),
(361,170,o),
(341,170,cs),
(309,170,o),
(286,191,o),
(286,236,cs),
(286,700,l),
(50,700,l),
(50,207,ls),
(50,47,o),
(157,-15,o),
(280,-15,cs),
(344,-15,o),
(412,1,o),
(473,30,c),
(438,-17,l)
);
}
);
};
layerId = "5DA6E103-6A94-47F2-987D-4952DB8EA68E";
shapes = (
{
closed = 1;
nodes = (
(344,-15,o),
(412,0,o),
(473,29,c),
(438,-17,l),
(389,206,l),
(408,194,l),
(384,178,o),
(361,170,o),
(341,170,cs),
(309,170,o),
(286,191,o),
(286,236,cs),
(286,700,l),
(50,700,l),
(50,207,ls),
(50,47,o),
(157,-15,o),
(280,-15,cs)
);
}
);
width = 421;
}
);
unicode = 406;
},
{
color = 4;
glyphname = Istroke;
kernLeft = Lbar;
kernRight = Istroke;
layers = (
{
anchors = (
{
name = bottom;
pos = (163,0);
},
{
name = ogonek;
pos = (173,0);
},
{
name = top;
pos = (163,700);
},
{
name = topleft;
pos = (61,699);
}
);
background = {
shapes = (
{
alignment = -1;
pos = (20,0);
ref = I;
},
{
alignment = -1;
pos = (-54,-2);
ref = strokeshortcomb.case;
scale = (0.723,1);
}
);
};
layerId = UUID0;
shapes = (
{
closed = 1;
nodes = (
(173,0,l),
(173,700,l),
(153,700,l),
(153,0,l)
);
},
{
closed = 1;
nodes = (
(293,345,l),
(293,364,l),
(33,364,l),
(33,345,l)
);
}
);
width = 326;
},
{
anchors = (
{
name = bottom;
pos = (170,0);
},
{
name = ogonek;
pos = (227,0);
},
{
name = top;
pos = (170,700);
},
{
name = topleft;
pos = (32,699);
}
);
background = {
shapes = (
{
alignment = -1;
pos = (13,0);
ref = I;
},
{
alignment = -1;
pos = (-61,3);
ref = strokeshortcomb.case;
scale = (0.7695,1);
}
);
};
layerId = "708134FE-A11E-43C9-84F0-594DA15B6BD1";
shapes = (
{
closed = 1;
nodes = (
(227,0,l),
(227,700,l),
(113,700,l),
(113,0,l)
);
},
{
closed = 1;
nodes = (
(327,314,l),
(327,404,l),
(13,404,l),
(13,314,l)
);
}
);
width = 340;
},
{
anchors = (
{
name = bottom;
pos = (195,0);
},
{
name = ogonek;
pos = (313,0);
},
{
name = top;
pos = (195,700);
},
{
name = topleft;
pos = (11,700);
}
);
background = {
shapes = (
{
alignment = -1;
pos = (20,0);
ref = I;
},
{
alignment = -1;
pos = (-45,-1);
ref = strokeshortcomb.case;
scale = (0.8,1);
}
);
};
layerId = "5DA6E103-6A94-47F2-987D-4952DB8EA68E";
shapes = (
{
closed = 1;
nodes = (
(313,0,l),
(313,700,l),
(77,700,l),
(77,0,l)
);
},
{
closed = 1;
nodes = (
(383,287,l),
(383,423,l),
(7,423,l),
(7,287,l)
);
}
);
width = 390;
}
);
unicode = 407;
},
{
glyphname = J;
kernLeft = J;
kernRight = U;
layers = (
{
anchors = (
{
name = top;
pos = (209,700);
}
);
layerId = UUID0;
shapes = (
{
closed = 1;
nodes = (
(292,-3,o),
(350,63,o),
(350,194,cs),
(350,700,l),
(68,700,l),
(68,681,l),
(330,681,l),
(330,196,ls),
(330,74,o),
(281,16,o),
(179,16,cs),
(113,16,o),
(56,49,o),
(18,108,c),
(4,96,l),
(41,34,o),
(107,-3,o),
(178,-3,cs)
);
}
);
width = 477;
},
{
anchors = (
{
name = top;
pos = (288,700);
}
);
layerId = "5DA6E103-6A94-47F2-987D-4952DB8EA68E";
shapes = (
{
closed = 1;
nodes = (
(422,-16,o),
(523,78,o),
(523,270,cs),
(523,700,l),
(52,700,l),
(52,522,l),
(290,522,l),
(290,256,ls),
(290,199,o),
(263,169,o),
(214,169,cs),
(175,169,o),
(140,192,o),
(103,238,c),
(-24,88,l),
(34,20,o),
(125,-16,o),
(234,-16,cs)
);
}
);
width = 574;
},
{
anchors = (
{
name = top;
pos = (244,700);
}
);
layerId = "708134FE-A11E-43C9-84F0-594DA15B6BD1";
shapes = (
{
closed = 1;
nodes = (
(347,-9,o),
(426,70,o),
(426,231,cs),
(426,700,l),
(61.01,700,l),
(61,601,l),
(312,601,l),
(312,225,ls),
(312,135,o),
(273,90,o),
(198,90,cs),
(140,90,o),
(93,118,o),
(55,171,c),
(-11,92,l),
(35,27,o),
(113,-9,o),
(198,-9,cs)
);
}
);
width = 520;
}
);
metricRight = U;
unicode = 74;
},
{
color = 3;
glyphname = Jcrossedtail;
kernLeft = J;
kernRight = Istroke;
layers = (
{
anchors = (
{
name = top;
pos = (209,700);
}
);
background = {
anchors = (
{
name = top;
pos = (209,700);
}
);
shapes = (
{
closed = 1;
nodes = (
(330,-30,o),
(288,-84,o),
(198,-84,cs),
(114,-84,o),
(82,-37,o),
(82,1,cs),
(82,58,o),
(156,89,o),
(244,89,cs),
(438,89,l),
(438,108,l),
(245,108,ls),
(135,108,o),
(62,68,o),
(62,0,cs),
(62,-51,o),
(104,-103,o),
(196,-103,cs),
(295,-103,o),
(350,-44,o),
(350,69,cs),
(350,700,l),
(68,700,l),
(68,681,l),
(330,681,l),
(330,69,ls)
);
}
);
};
guides = (
{
angle = 90;
pos = (68,691);
}
);
layerId = UUID0;
shapes = (
{
closed = 1;
nodes = (
(250,-3,o),
(350,55,o),
(350,189,cs),
(350,700,l),
(68,700,l),
(68,681,l),
(330,681,l),
(330,189,ls),
(330,67,o),
(241,16,o),
(160,16,cs),
(94,16,o),
(32,49,o),
(32,114,cs),
(32,166,o),
(71,219,o),
(190,219,cs),
(435,219,l),
(435,238,l),
(190,238,ls),
(59,238,o),
(12,176,o),
(12,114,cs),
(12,37,o),
(83,-3,o),
(159,-3,cs)
);
}
);
width = 477;
},
{
anchors = (
{
name = top;
pos = (241,700);
}
);
background = {
shapes = (
{
closed = 1;
nodes = (
(344,-109,o),
(423,-30,o),
(423,131,cs),
(423,700,l),
(58,700,l),
(58,601,l),
(309,601,l),
(309,125,ls),
(309,35,o),
(270,-10,o),
(193,-10,cs),
(137,-10,o),
(90,18,o),
(52,71,c),
(-11,-8,l),
(35,-73,o),
(110,-109,o),
(195,-109,cs)
);
}
);
};
guides = (
{
angle = 90;
pos = (58,651);
}
);
layerId = "708134FE-A11E-43C9-84F0-594DA15B6BD1";
shapes = (
{
closed = 1;
nodes = (
(310,-9,o),
(419,51,o),
(420,203,cs),
(423,700,l),
(58,700,l),
(58,601,l),
(309,601,l),
(306,203,ls),
(305,111,o),
(250,82,o),
(201,82,cs),
(153,82,o),
(124,109,o),
(124,141,cs),
(124,164,o),
(138,203,o),
(227,203,cs),
(500,203,l),
(500,294,l),
(227,294,ls),
(68,294,o),
(18,217,o),
(18,143,cs),
(18,48,o),
(99,-9,o),
(203,-9,cs)
);
}
);
width = 517;
},
{
anchors = (
{
name = top;
pos = (288,700);
}
);
background = {
shapes = (
{
closed = 1;
nodes = (
(422,-116,o),
(523,-22,o),
(523,170,cs),
(523,700,l),
(52,700,l),
(52,522,l),
(290,522,l),
(290,156,ls),
(290,99,o),
(263,69,o),
(214,69,cs),
(175,69,o),
(140,92,o),
(103,138,c),
(-24,-12,l),
(34,-80,o),
(125,-116,o),
(234,-116,cs)
);
}
);
};
layerId = "5DA6E103-6A94-47F2-987D-4952DB8EA68E";
shapes = (
{
closed = 1;
nodes = (
(395,-16,o),
(523,61,o),
(523,230,cs),
(523,700,l),
(52,700,l),
(52,522,l),
(290,522,l),
(290,183,ls),
(290,143,o),
(267,123,o),
(234,123,cs),
(207,123,o),
(191,136,o),
(191,154,cs),
(191,172,o),
(206,191,o),
(250,191,cs),
(594,191,l),
(594,320,l),
(230,320,ls),
(80,320,o),
(15,236,o),
(15,153,cs),
(15,68,o),
(83,-16,o),
(242,-16,cs)
);
}
);
width = 594;
}
);
unicode = 42930;
},
{
color = 4;
glyphname = Jstroke;
kernLeft = J;
kernRight = Istroke;
layers = (
{
anchors = (
{
name = top;
pos = (209,700);
}
);
background = {
shapes = (
{
ref = J;
},
{
alignment = -1;
pos = (57,-2);
ref = strokeshortcomb.case;
scale = (0.8601,1);
}
);
};
layerId = UUID0;
shapes = (
{
closed = 1;
nodes = (
(292,-3,o),
(350,63,o),
(350,194,cs),
(350,700,l),
(68,700,l),
(68,681,l),
(330,681,l),
(330,196,ls),
(330,74,o),
(281,16,o),
(179,16,cs),
(113,16,o),
(56,49,o),
(18,108,c),
(4,96,l),
(41,34,o),
(107,-3,o),
(178,-3,cs)
);
},
{
closed = 1;
nodes = (
(470,345,l),
(470,364,l),
(160,364,l),
(160,345,l)
);
}
);
width = 477;
},
{
anchors = (
{
name = top;
pos = (244,700);
}
);
background = {
shapes = (
{
alignment = -1;
ref = J;
},
{
alignment = -1;
pos = (77,3);
ref = strokeshortcomb.case;
scale = (0.8901,1);
}
);
};
layerId = "708134FE-A11E-43C9-84F0-594DA15B6BD1";
shapes = (
{
closed = 1;
nodes = (
(347,-9,o),
(426,70,o),
(426,231,cs),
(426,700,l),
(61.01,700,l),
(61,601,l),
(312,601,l),
(312,225,ls),
(312,135,o),
(273,90,o),
(198,90,cs),
(140,90,o),
(93,118,o),
(55,171,c),
(-11,92,l),
(35,27,o),
(113,-9,o),
(198,-9,cs)
);
},
{
closed = 1;
nodes = (
(526,314,l),
(526,404,l),
(162,404,l),
(162,314,l)
);
}
);
width = 526;
},
{
anchors = (
{
name = top;
pos = (288,700);
}
);
background = {
shapes = (
{
alignment = -1;
ref = J;
},
{
alignment = -1;
pos = (129,-1);
ref = strokeshortcomb.case;
scale = (0.8663,1);
}
);
};
layerId = "5DA6E103-6A94-47F2-987D-4952DB8EA68E";
shapes = (
{
closed = 1;
nodes = (
(422,-16,o),
(523,78,o),
(523,270,cs),
(523,700,l),
(52,700,l),
(52,522,l),
(290,522,l),
(290,256,ls),
(290,199,o),
(263,169,o),
(214,169,cs),
(175,169,o),
(140,192,o),
(103,238,c),
(-24,88,l),
(34,20,o),
(125,-16,o),
(234,-16,cs)
);
},
{
closed = 1;
nodes = (
(593,287,l),
(593,423,l),
(185,423,l),
(185,287,l)
);
}
);
width = 577;
}
);
metricLeft = J;
unicode = 584;
},
{
glyphname = K;
kernLeft = H;
kernRight = K;
layers = (
{
anchors = (
{
name = bottom;
pos = (370,0);
},
{
name = top;
pos = (370,700);
}
);
layerId = UUID0;
shapes = (
{
closed = 1;
nodes = (
(328,366,l),
(340,377,l),
(654,700,l),
(627,700,l),
(149,209,l),
(149,182,l)
);
},
{
closed = 1;
nodes = (
(153,0,l),
(153,700,l),
(133,700,l),
(133,0,l)
);
},
{
closed = 1;
nodes = (
(677,0,l),
(332,390,l),
(317,377,l),
(650,0,l)
);
}
);
width = 693;
},
{
anchors = (
{
name = bottom;
pos = (384,0);
},
{
name = top;
pos = (384,700);
}
);
guides = (
{
angle = 48.4917;
pos = (625,544);
}
);
layerId = "5DA6E103-6A94-47F2-987D-4952DB8EA68E";
shapes = (
{
closed = 1;
nodes = (
(349,240,l),
(480,374,l),
(776,700,l),
(519,700,l),
(255,409,l),
(268,150,l)
);
},
{
closed = 1;
nodes = (
(289,0,l),
(289,700,l),
(57,700,l),
(57,0,l)
);
},
{
closed = 1;
nodes = (
(790,0,l),
(464,434,l),
(311,272,l),
(517,0,l)
);
}
);
width = 765;
},
{
anchors = (
{
name = bottom;
pos = (376,0);
},
{
name = top;
pos = (376,700);
}
);
layerId = "708134FE-A11E-43C9-84F0-594DA15B6BD1";
shapes = (
{
closed = 1;
nodes = (
(337,305,l),
(401,376,l),
(707,700,l),
(577,700,l),
(195,306,l),
(201,167,l)
);
},
{
closed = 1;
nodes = (
(214,0,l),
(214,700,l),
(100,700,l),
(100,0,l)
);
},
{
closed = 1;
nodes = (
(726,0,l),
(390,411,l),
(314,326,l),
(592,0,l)
);
}
);
width = 724;
}
);
metricLeft = H;
unicode = 75;
},
{
color = 3;
glyphname = Khook;
kernLeft = H;
kernRight = K;
layers = (
{
anchors = (
{
name = bottom;
pos = (370,0);
},
{
name = top;
pos = (370,700);
}
);
background = {
anchors = (
{
name = bottom;
pos = (370,0);
},
{
name = top;
pos = (370,700);
}
);
shapes = (
{
closed = 1;
nodes = (
(153,0,l),
(153,700,l),
(133,700,l),
(133,0,l)
);
},
{
closed = 1;
nodes = (
(677,0,l),
(316,408,l),
(301,395,l),
(650,0,l)
);
},
{
closed = 1;
nodes = (
(149,237,l),
(149,209,l),
(549,671,ls),
(613,745,o),
(678,733,o),
(716,681,c),
(691,686,l),
(720,720,l),
(732,693,l),
(688,750,o),
(610,770,o),
(537,686,cs)
);
}
);
};
layerId = UUID0;
shapes = (
{
closed = 1;
nodes = (
(549,671,ls),
(605,736,o),
(662,735,o),
(701,698,c),
(714,713,l),
(668,753,o),
(601,759,o),
(537,686,cs),
(149,237,l),
(149,209,l)
);
},
{
closed = 1;
nodes = (
(153,0,l),
(153,700,l),
(133,700,l),
(133,0,l)
);
},
{
closed = 1;
nodes = (
(677,0,l),
(316,408,l),
(301,395,l),
(650,0,l)
);
}
);
width = 683;
},
{
anchors = (
{
name = bottom;
pos = (376,0);
},
{
name = top;
pos = (376,700);
}
);
background = {
anchors = (
{
name = bottom;
pos = (376,0);
},
{
name = top;
pos = (376,700);
}
);
shapes = (
{
closed = 1;
nodes = (
(214,0,l),
(214,700,l),
(100,700,l),
(100,0,l)
);
},
{
closed = 1;
nodes = (
(726,0,l),
(390,411,l),
(314,326,l),
(592,0,l)
);
},
{
closed = 1;
nodes = (
(201,167,l),
(562,619,ls),
(607,675,o),
(669,658,o),
(696,605,c),
(644,598,l),
(742,737,l),
(780,647,l),
(718,758,o),
(585,794,o),
(493,680,cs),
(195,308,l)
);
}
);
};
layerId = "708134FE-A11E-43C9-84F0-594DA15B6BD1";
shapes = (
{
closed = 1;
nodes = (
(562,619,ls),
(596,662,o),
(640,662,o),
(671,637,c),
(725,713,l),
(657,767,o),
(563,767,o),
(493,680,cs),
(195,308,l),
(201,167,l)
);
},
{
closed = 1;
nodes = (
(214,0,l),
(214,700,l),
(100,700,l),
(100,0,l)
);
},
{
closed = 1;
nodes = (
(726,0,l),
(390,411,l),
(314,326,l),
(592,0,l)
);
}
);
width = 704;
},
{
anchors = (
{
name = bottom;
pos = (384,0);
},
{
name = top;
pos = (384,700);
}
);
background = {
anchors = (
{
name = bottom;
pos = (384,0);
},
{
name = top;
pos = (384,700);
}
);
shapes = (
{
closed = 1;
nodes = (
(289,0,l),
(289,700,l),
(57,700,l),
(57,0,l)
);
},
{
closed = 1;
nodes = (
(790,0,l),
(464,434,l),
(311,272,l),
(517,0,l)
);
},
{
closed = 1;
nodes = (
(254,155,l),
(622,536,ls),
(651,566,o),
(682,573,o),
(714,530,c),
(692,526,l),
(818,712,l),
(828,657,l),
(750,764,o),
(622,807,o),
(469,650,cs),
(239,413,l)
);
}
);
};
layerId = "5DA6E103-6A94-47F2-987D-4952DB8EA68E";
shapes = (
{
closed = 1;
nodes = (
(622,536,ls),
(648,563,o),
(675,571,o),
(703,543,c),
(802,688,l),
(723,771,o),
(606,791,o),
(469,650,cs),
(239,413,l),
(254,155,l)
);
},
{
closed = 1;
nodes = (
(289,0,l),
(289,700,l),
(57,700,l),
(57,0,l)
);
},
{
closed = 1;
nodes = (
(790,0,l),
(464,434,l),
(311,272,l),
(517,0,l)
);
}
);
width = 770;
}
);
unicode = 408;
},
{
color = 4;
glyphname = Kstroke;
kernLeft = Istroke;
kernRight = K;
layers = (
{
anchors = (
{
name = bottom;
pos = (344,0);
},
{
name = top;
pos = (344,700);
}
);
background = {
anchors = (
{
name = bottom;
pos = (344,0);
},
{
name = top;
pos = (344,700);
}
);
shapes = (
{
closed = 1;
nodes = (
(654,700,l),
(627,700,l),
(149,209,l),
(149,182,l)
);
},
{
closed = 1;
nodes = (
(153,0,l),
(153,700,l),
(133,700,l),
(133,0,l)
);
},
{
closed = 1;
nodes = (
(677,0,l),
(332,390,l),
(317,377,l),
(650,0,l)
);
},
{
closed = 1;
nodes = (
(323,575,l),
(323,594,l),
(13,594,l),
(13,575,l)
);
}
);
};
layerId = UUID0;
shapes = (
{
closed = 1;
nodes = (
(654,700,l),
(627,700,l),
(149,209,l),
(149,182,l)
);
},
{
closed = 1;
nodes = (
(153,0,l),
(153,700,l),
(133,700,l),
(133,0,l)
);
},
{
closed = 1;
nodes = (
(677,0,l),
(332,390,l),
(317,377,l),
(650,0,l)
);
},
{
closed = 1;
nodes = (
(323,575,l),
(323,594,l),
(13,594,l),
(13,575,l)
);
}
);
width = 667;
},
{
anchors = (
{
name = bottom;
pos = (376,0);
},
{
name = top;
pos = (376,700);
}
);
background = {
anchors = (
{
name = bottom;
pos = (376,0);
},
{
name = top;
pos = (376,700);
}
);
shapes = (
{
closed = 1;
nodes = (
(707,700,l),
(577,700,l),
(195,306,l),
(201,167,l)
);
},
{
closed = 1;
nodes = (
(214,0,l),
(214,700,l),
(100,700,l),
(100,0,l)
);
},
{
closed = 1;
nodes = (
(726,0,l),
(390,411,l),
(314,326,l),
(592,0,l)
);
},
{
closed = 1;
nodes = (
(354,519,l),
(354,607,l),
(0,607,l),
(0,519,l)
);
}
);
};
layerId = "708134FE-A11E-43C9-84F0-594DA15B6BD1";
shapes = (
{
closed = 1;
nodes = (
(707,700,l),
(577,700,l),
(195,306,l),
(201,167,l)
);
},
{
closed = 1;
nodes = (
(214,0,l),
(214,700,l),
(100,700,l),
(100,0,l)
);
},
{
closed = 1;
nodes = (
(726,0,l),
(390,411,l),
(314,326,l),
(592,0,l)
);
},
{
closed = 1;
nodes = (
(364,519,l),
(364,607,l),
(0,607,l),
(0,519,l)
);
}
);
width = 724;
},
{
anchors = (
{
name = bottom;
pos = (384,0);
},
{
name = top;
pos = (384,700);
}
);
background = {
anchors = (
{
name = bottom;
pos = (384,0);
},
{
name = top;
pos = (384,700);
}
);
shapes = (
{
closed = 1;
nodes = (
(800,700,l),
(548,700,l),
(279,369,l),
(279,92,l)
);
},
{
closed = 1;
nodes = (
(313,0,l),
(313,700,l),
(81,700,l),
(81,0,l)
);
},
{
closed = 1;
nodes = (
(814,0,l),
(488,434,l),
(339,272,l),
(541,0,l)
);
},
{
closed = 1;
nodes = (
(403,542,l),
(403,652,l),
(11,652,l),
(11,542,l)
);
}
);
};
layerId = "5DA6E103-6A94-47F2-987D-4952DB8EA68E";
shapes = (
{
closed = 1;
nodes = (
(800,700,l),
(548,700,l),
(279,369,l),
(279,92,l)
);
},
{
closed = 1;
nodes = (
(313,0,l),
(313,700,l),
(81,700,l),
(81,0,l)
);
},
{
closed = 1;
nodes = (
(814,0,l),
(488,434,l),
(339,272,l),
(541,0,l)
);
},
{
closed = 1;
nodes = (
(403,542,l),
(403,652,l),
(11,652,l),
(11,542,l)
);
}
);
width = 765;
}
);
unicode = 42816;
},
{
glyphname = L;
kernLeft = H;
kernRight = L;
layers = (
{
anchors = (
{
name = bottom;
pos = (352,0);
},
{
name = center;
pos = (143,355);
},
{
name = dot;
pos = (463,366);
},
{
name = top;
pos = (143,700);
},
{
name = topright;
pos = (446,700);
}
);
guides = (
{
angle = 90;
pos = (466,20);
}
);
layerId = UUID0;
shapes = (
{
closed = 1;
nodes = (
(570,0,l),
(570,19,l),
(153,19,l),
(153,700,l),
(133,700,l),
(133,0,l)
);
}
);
width = 580;
},
{
anchors = (
{
name = bottom;
pos = (333,0);
},
{
name = center;
pos = (175,375);
},
{
name = dot;
pos = (494,441);
},
{
name = top;
pos = (175,700);
},
{
name = topright;
pos = (423,700);
}
);
guides = (
{
angle = 90;
pos = (581,193);
}
);
layerId = "5DA6E103-6A94-47F2-987D-4952DB8EA68E";
shapes = (
{
closed = 1;
nodes = (
(609,0,l),
(609,183,l),
(293,183,l),
(293,700,l),
(57,700,l),
(57,0,l)
);
}
);
width = 617;
},
{
anchors = (
{
name = bottom;
pos = (344,0);
},
{
name = center;
pos = (157,359);
},
{
name = dot;
pos = (465,409);
},
{
name = top;
pos = (157,700);
},
{
name = topright;
pos = (436,700);
}
);
layerId = "708134FE-A11E-43C9-84F0-594DA15B6BD1";
shapes = (
{
closed = 1;
nodes = (
(587,0,l),
(587,99,l),
(214,99,l),
(214,700,l),
(100,700,l),
(100,0,l)
);
}
);
width = 596;
}
);
metricLeft = H;
unicode = 76;
},
{
glyphname = Lbar;
kernLeft = Istroke;
kernRight = L;
layers = (
{
anchors = (
{
name = bottom;
pos = (359,0);
},
{
name = center;
pos = (150,355);
},
{
name = dot;
pos = (470,366);
},
{
name = top;
pos = (150,700);
},
{
name = topright;
pos = (453,700);
}
);
background = {
shapes = (
{
pos = (7,0);
ref = L;
},
{
alignment = -1;
pos = (-84,-2);
ref = strokeshortcomb.case;
scale = (0.861,1);
}
);
};
layerId = UUID0;
shapes = (
{
closed = 1;
nodes = (
(577,0,l),
(577,19,l),
(160,19,l),
(160,700,l),
(140,700,l),
(140,0,l)
);
},
{
closed = 1;
nodes = (
(330,345,l),
(330,364,l),
(20,364,l),
(20,345,l)
);
}
);
width = 587;
},
{
anchors = (
{
name = bottom;
pos = (354,0);
},
{
name = center;
pos = (167,359);
},
{
name = dot;
pos = (475,409);
},
{
name = top;
pos = (167,700);
},
{
name = topright;
pos = (446,700);
}
);
background = {
shapes = (
{
pos = (10,0);
ref = L;
},
{
alignment = -1;
pos = (-77,3);
ref = strokeshortcomb.case;
scale = (0.8961,1);
}
);
};
layerId = "708134FE-A11E-43C9-84F0-594DA15B6BD1";
shapes = (
{
closed = 1;
nodes = (
(597,0,l),
(597,99,l),
(224,99,l),
(224,700,l),
(110,700,l),
(110,0,l)
);
},
{
closed = 1;
nodes = (
(374,314,l),
(374,404,l),
(10,404,l),
(10,314,l)
);
}
);
width = 606;
},
{
anchors = (
{
name = bottom;
pos = (344,0);
},
{
name = center;
pos = (186,375);
},
{
name = dot;
pos = (505,441);
},
{
name = top;
pos = (186,700);
},
{
name = topright;
pos = (434,700);
}
);
background = {
shapes = (
{
pos = (11,0);
ref = L;
},
{
alignment = -1;
pos = (-59,-1);
ref = strokeshortcomb.case;
scale = (0.875,1);
}
);
};
layerId = "5DA6E103-6A94-47F2-987D-4952DB8EA68E";
shapes = (
{
closed = 1;
nodes = (
(620,0,l),
(620,183,l),
(304,183,l),
(304,700,l),
(68,700,l),
(68,0,l)
);
},
{
closed = 1;
nodes = (
(409,287,l),
(409,423,l),
(-2,423,l),
(-2,287,l)
);
}
);
width = 628;
}
);
unicode = 573;
},
{
color = 3;
glyphname = Lbelt;
kernLeft = Lbar;
kernRight = L;
layers = (
{
anchors = (
{
name = bottom;
pos = (382,0);
},
{
name = center;
pos = (163,360);
},
{
name = dot;
pos = (453,360);
},
{
name = top;
pos = (163,700);
},
{
name = topright;
pos = (466,700);
}
);
background = {
shapes = (
{
closed = 1;
nodes = (
(590,0,l),
(590,19,l),
(173,19,l),
(173,700,l),
(153,700,l),
(153,0,l)
);
},
{
closed = 1;
nodes = (
(435,375,l),
(98,375,ls),
(39,375,o),
(15,407,o),
(15,438,cs),
(15,467,o),
(36,496,o),
(68,496,cs),
(113,496,o),
(153,446,o),
(153,375,c),
(172,375,l),
(172,461,o),
(125,515,o),
(65,515,cs),
(25,515,o),
(-5,476,o),
(-5,436,cs),
(-5,396,o),
(26,356,o),
(111,356,cs),
(436,356,l)
);
},
{
pos = (20,0);
ref = E;
}
);
};
layerId = UUID0;
shapes = (
{
closed = 1;
nodes = (
(590,0,l),
(590,19,l),
(173,19,l),
(173,700,l),
(153,700,l),
(153,0,l)
);
},
{
closed = 1;
nodes = (
(415,346,l),
(414,365,l),
(109,365,ls),
(41,365,o),
(15,399,o),
(15,431,cs),
(15,459,o),
(35,484,o),
(69,484,cs),
(109,484,o),
(153,450,o),
(153,365,c),
(172,365,l),
(172,463,o),
(119,503,o),
(71,503,cs),
(24,503,o),
(-5,467,o),
(-5,430,cs),
(-5,389,o),
(29,346,o),
(111,346,cs)
);
}
);
width = 600;
},
{
anchors = (
{
name = bottom;
pos = (421,0);
},
{
name = center;
pos = (223,379);
},
{
name = dot;
pos = (521,399);
},
{
name = top;
pos = (223,700);
},
{
name = topright;
pos = (502,700);
}
);
background = {
shapes = (
{
closed = 1;
nodes = (
(653,0,l),
(653,99,l),
(280,99,l),
(280,700,l),
(166,700,l),
(166,0,l)
);
},
{
closed = 1;
nodes = (
(502,397,l),
(135,397,ls),
(90,397,o),
(65,421,o),
(65,443,cs),
(65,464,o),
(83,477,o),
(103,477,cs),
(132,477,o),
(166,453,o),
(166,397,c),
(216,397,l),
(216,505,o),
(159,552,o),
(104,552,cs),
(44,552,o),
(-15,510,o),
(-15,441,cs),
(-15,377,o),
(32,307,o),
(150,307,cs),
(503,307,l)
);
},
{
pos = (66,0);
ref = E;
}
);
};
layerId = "708134FE-A11E-43C9-84F0-594DA15B6BD1";
shapes = (
{
closed = 1;
nodes = (
(653,0,l),
(653,99,l),
(280,99,l),
(280,700,l),
(166,700,l),
(166,0,l)
);
},
{
closed = 1;
nodes = (
(493,314,l),
(492,404,l),
(148,404,ls),
(89,404,o),
(71,430,o),
(71,453,cs),
(71,471,o),
(84,487,o),
(106,487,cs),
(133,487,o),
(166,463,o),
(166,404,c),
(223,404,l),
(223,521,o),
(161,567,o),
(100,567,cs),
(38,567,o),
(-21,523,o),
(-21,448,cs),
(-21,380,o),
(26,314,o),
(144,314,cs)
);
}
);
width = 662;
},
{
anchors = (
{
name = bottom;
pos = (478,0);
},
{
name = center;
pos = (308,400);
},
{
name = dot;
pos = (617,441);
},
{
name = top;
pos = (308,700);
},
{
name = topright;
pos = (556,700);
}
);
background = {
shapes = (
{
closed = 1;
nodes = (
(742,0,l),
(742,183,l),
(426,183,l),
(426,700,l),
(190,700,l),
(190,0,l)
);
},
{
closed = 1;
nodes = (
(606,307,l),
(604,450,l),
(154,450,ls),
(120,450,o),
(103,470,o),
(103,487,cs),
(103,501,o),
(114,514,o),
(135,514,cs),
(167,514,o),
(190,481,o),
(190,450,c),
(264,450,l),
(264,557,o),
(226,629,o),
(129,629,cs),
(27,629,o),
(-24,549,o),
(-24,471,cs),
(-24,389,o),
(32,307,o),
(154,307,cs)
);
}
);
};
layerId = "5DA6E103-6A94-47F2-987D-4952DB8EA68E";
shapes = (
{
closed = 1;
nodes = (
(742,0,l),
(742,183,l),
(426,183,l),
(426,700,l),
(190,700,l),
(190,0,l)
);
},
{
closed = 1;
nodes = (
(596,307,l),
(594,450,l),
(163,450,ls),
(121,450,o),
(103,469,o),
(103,489,cs),
(103,506,o),
(117,520,o),
(135,520,cs),
(157,520,o),
(185,500,o),
(190,450,c),
(264,450,l),
(264,557,o),
(226,629,o),
(129,629,cs),
(27,629,o),
(-24,549,o),
(-24,471,cs),
(-24,389,o),
(32,307,o),
(163,307,cs)
);
}
);
width = 750;
},
{
anchors = (
{
name = bottom;
pos = (478,0);
},
{
name = center;
pos = (308,400);
},
{
name = dot;
pos = (617,441);
},
{
name = top;
pos = (308,700);
},
{
name = topright;
pos = (556,700);
}
);
associatedMasterId = "5DA6E103-6A94-47F2-987D-4952DB8EA68E";
background = {
shapes = (
{
closed = 1;
nodes = (
(606,307,l),
(604,450,l),
(154,450,ls),
(110,450,o),
(93,460,o),
(93,479,cs),
(93,494,o),
(105,508,o),
(124,508,cs),
(155,508,o),
(194,480,o),
(194,411,c),
(260,411,l),
(260,556,o),
(194,621,o),
(112,621,cs),
(24,621,o),
(-32,547,o),
(-32,470,cs),
(-32,390,o),
(29,307,o),
(168,307,cs)
);
},
{
pos = (133,0);
ref = E;
}
);
};
layerId = "68AD0B84-5670-46A8-A1F0-7402661E6D81";
name = "7. Jun 23, 17:02";
shapes = (
{
closed = 1;
nodes = (
(742,0,l),
(742,183,l),
(426,183,l),
(426,700,l),
(190,700,l),
(190,0,l)
);
},
{
closed = 1;
nodes = (
(606,307,l),
(604,450,l),
(154,450,ls),
(120,450,o),
(103,470,o),
(103,487,cs),
(103,501,o),
(114,514,o),
(135,514,cs),
(167,514,o),
(190,481,o),
(190,450,c),
(264,450,l),
(264,557,o),
(226,629,o),
(129,629,cs),
(27,629,o),
(-24,549,o),
(-24,471,cs),
(-24,389,o),
(32,307,o),
(154,307,cs)
);
}
);
width = 750;
}
);
unicode = 42925;
},
{
color = 3;
glyphname = Ldoublebar;
kernLeft = Lbar;
kernRight = L;
layers = (
{
background = {
shapes = (
{
closed = 1;
nodes = (
(587,0,l),
(587,19,l),
(170,19,l),
(170,700,l),
(150,700,l),
(150,0,l)
);
},
{
closed = 1;
nodes = (
(340,302,l),
(340,321,l),
(30,321,l),
(30,302,l)
);
},
{
closed = 1;
nodes = (
(340,441,l),
(340,460,l),
(30,460,l),
(30,441,l)
);
}
);
};
layerId = UUID0;
shapes = (
{
closed = 1;
nodes = (
(587,0,l),
(587,19,l),
(170,19,l),
(170,700,l),
(150,700,l),
(150,0,l)
);
},
{
closed = 1;
nodes = (
(340,302,l),
(340,321,l),
(30,321,l),
(30,302,l)
);
},
{
closed = 1;
nodes = (
(340,441,l),
(340,460,l),
(30,460,l),
(30,441,l)
);
}
);
width = 597;
},
{
background = {
shapes = (
{
closed = 1;
nodes = (
(632,0,l),
(632,99,l),
(259,99,l),
(259,700,l),
(145,700,l),
(145,0,l)
);
},
{
closed = 1;
nodes = (
(409,268,l),
(409,356,l),
(45,356,l),
(45,268,l)
);
},
{
closed = 1;
nodes = (
(409,431,l),
(409,519,l),
(45,519,l),
(45,431,l)
);
}
);
};
layerId = "708134FE-A11E-43C9-84F0-594DA15B6BD1";
shapes = (
{
closed = 1;
nodes = (
(632,0,l),
(632,99,l),
(259,99,l),
(259,700,l),
(145,700,l),
(145,0,l)
);
},
{
closed = 1;
nodes = (
(409,268,l),
(409,356,l),
(45,356,l),
(45,268,l)
);
},
{
closed = 1;
nodes = (
(409,431,l),
(409,519,l),
(45,519,l),
(45,431,l)
);
}
);
width = 641;
},
{
background = {
shapes = (
{
closed = 1;
nodes = (
(650,0,l),
(650,183,l),
(334,183,l),
(334,700,l),
(98,700,l),
(98,0,l)
);
},
{
closed = 1;
nodes = (
(439,246,l),
(439,382,l),
(28,382,l),
(28,246,l)
);
},
{
closed = 1;
nodes = (
(439,407,l),
(439,543,l),
(28,543,l),
(28,407,l)
);
}
);
};
layerId = "5DA6E103-6A94-47F2-987D-4952DB8EA68E";
shapes = (
{
closed = 1;
nodes = (
(650,0,l),
(650,183,l),
(334,183,l),
(334,700,l),
(98,700,l),
(98,0,l)
);
},
{
closed = 1;
nodes = (
(439,246,l),
(439,382,l),
(28,382,l),
(28,246,l)
);
},
{
closed = 1;
nodes = (
(439,407,l),
(439,543,l),
(28,543,l),
(28,407,l)
);
}
);
width = 658;
}
);
metricRight = L;
unicode = 11360;
},
{
color = 3;
glyphname = Lmiddletilde;
kernLeft = Lbar;
kernRight = L;
layers = (
{
anchors = (
{
name = bottom;
pos = (352,0);
},
{
name = top;
pos = (143,700);
},
{
name = topright;
pos = (446,700);
}
);
background = {
anchors = (
{
name = bottom;
pos = (352,0);
},
{
name = top;
pos = (143,700);
},
{
name = topright;
pos = (446,700);
}
);
shapes = (
{
closed = 1;
nodes = (
(570,0,l),
(570,19,l),
(153,19,l),
(153,700,l),
(133,700,l),
(133,0,l)
);
},
{
closed = 1;
nodes = (
(263,336,o),
(291,370,o),
(293,420,c),
(274,420,l),
(272,381,o),
(252,355,o),
(220,355,cs),
(175,355,o),
(151,424,o),
(94,424,cs),
(51,424,o),
(23,390,o),
(21,338,c),
(40,338,l),
(42,379,o),
(62,405,o),
(94,405,cs),
(139,405,o),
(163,336,o),
(220,336,cs)
);
}
);
};
layerId = UUID0;
shapes = (
{
closed = 1;
nodes = (
(570,0,l),
(570,19,l),
(153,19,l),
(153,700,l),
(133,700,l),
(133,0,l)
);
},
{
closed = 1;
nodes = (
(263,336,o),
(291,370,o),
(293,420,c),
(274,420,l),
(272,381,o),
(252,355,o),
(220,355,cs),
(175,355,o),
(151,424,o),
(94,424,cs),
(51,424,o),
(23,390,o),
(21,338,c),
(40,338,l),
(42,379,o),
(62,405,o),
(94,405,cs),
(139,405,o),
(163,336,o),
(220,336,cs)
);
}
);
width = 580;
},
{
anchors = (
{
name = bottom;
pos = (344,0);
},
{
name = top;
pos = (157,700);
},
{
name = topright;
pos = (436,700);
}
);
background = {
anchors = (
{
name = bottom;
pos = (344,0);
},
{
name = top;
pos = (157,700);
},
{
name = topright;
pos = (436,700);
}
);
shapes = (
{
closed = 1;
nodes = (
(587,0,l),
(587,99,l),
(214,99,l),
(214,700,l),
(100,700,l),
(100,0,l)
);
},
{
closed = 1;
nodes = (
(296,625,o),
(336,676,o),
(338,751,c),
(277,751,l),
(275,714,o),
(256,692,o),
(227,692,cs),
(192,692,o),
(158,759,o),
(93,759,cs),
(32,759,o),
(-8,709,o),
(-10,631,c),
(51,631,l),
(53,670,o),
(72,692,o),
(101,692,cs),
(137,692,o),
(170,625,o),
(235,625,cs)
);
},
{
closed = 1;
nodes = (
(326,325,o),
(363,374,o),
(365,447,c),
(306,447,l),
(304,412,o),
(286,390,o),
(252,390,cs),
(205,390,o),
(139,455,o),
(66,455,cs),
(-2,455,o),
(-35,406,o),
(-37,331,c),
(22,331,l),
(24,368,o),
(38,390,o),
(72,390,cs),
(119,390,o),
(184,325,o),
(258,325,cs)
);
}
);
};
layerId = "708134FE-A11E-43C9-84F0-594DA15B6BD1";
shapes = (
{
closed = 1;
nodes = (
(587,0,l),
(587,99,l),
(214,99,l),
(214,700,l),
(100,700,l),
(100,0,l)
);
},
{
closed = 1;
nodes = (
(323,325,o),
(363,376,o),
(365,451,c),
(304,451,l),
(303,419,o),
(284,392,o),
(257,392,cs),
(215,392,o),
(134,459,o),
(65,459,cs),
(5,459,o),
(-35,409,o),
(-37,331,c),
(24,331,l),
(25,365,o),
(44,392,o),
(71,392,cs),
(114,392,o),
(195,325,o),
(263,325,cs)
);
}
);
width = 596;
},
{
anchors = (
{
name = bottom;
pos = (333,0);
},
{
name = top;
pos = (175,700);
},
{
name = topright;
pos = (423,700);
}
);
background = {
anchors = (
{
name = bottom;
pos = (333,0);
},
{
name = top;
pos = (175,700);
},
{
name = topright;
pos = (423,700);
}
);
shapes = (
{
closed = 1;
nodes = (
(609,0,l),
(609,183,l),
(293,183,l),
(293,700,l),
(57,700,l),
(57,0,l)
);
},
{
closed = 1;
nodes = (
(343,614,o),
(394,682,o),
(396,784,c),
(289,784,l),
(287,756,o),
(270,738,o),
(244,738,cs),
(208,738,o),
(170,797,o),
(96,797,cs),
(11,797,o),
(-40,729,o),
(-42,624,c),
(65,624,l),
(67,654,o),
(84,673,o),
(110,673,cs),
(146,673,o),
(184,614,o),
(258,614,cs)
);
},
{
closed = 1;
nodes = (
(413,314,o),
(461,382,o),
(464,484,c),
(354,484,l),
(351,455,o),
(335,438,o),
(299,438,cs),
(250,438,o),
(130,497,o),
(35,497,cs),
(-65,497,o),
(-103,429,o),
(-106,324,c),
(4,324,l),
(7,355,o),
(13,373,o),
(49,373,cs),
(99,373,o),
(218,314,o),
(313,314,cs)
);
}
);
};
layerId = "5DA6E103-6A94-47F2-987D-4952DB8EA68E";
shapes = (
{
closed = 1;
nodes = (
(609,0,l),
(609,183,l),
(293,183,l),
(293,700,l),
(57,700,l),
(57,0,l)
);
},
{
closed = 1;
nodes = (
(411,314,o),
(459,384,o),
(461,484,c),
(354,484,l),
(352,455,o),
(336,438,o),
(311,438,cs),
(265,438,o),
(113,497,o),
(32,497,cs),
(-57,497,o),
(-105,427,o),
(-107,324,c),
(0,324,l),
(2,354,o),
(17,373,o),
(43,373,cs),
(89,373,o),
(241,314,o),
(322,314,cs)
);
}
);
width = 617;
}
);
unicode = 11362;
},
{
glyphname = M;
kernLeft = H;
kernRight = H;
layers = (
{
anchors = (
{
name = bottom;
pos = (478,0);
},
{
name = top;
pos = (478,700);
}
);
layerId = UUID0;
shapes = (
{
closed = 1;
nodes = (
(153,0,l),
(153,671,l),
(144,671,l),
(472,99,l),
(484,99,l),
(811,671,l),
(803,671,l),
(803,0,l),
(823,0,l),
(823,700,l),
(806,700,l),
(474,118,l),
(483,118,l),
(150,700,l),
(133,700,l),
(133,0,l)
);
}
);
width = 956;
},
{
anchors = (
{
name = bottom;
pos = (476,0);
},
{
name = top;
pos = (476,700);
}
);
layerId = "5DA6E103-6A94-47F2-987D-4952DB8EA68E";
shapes = (
{
closed = 1;
nodes = (
(272,0,l),
(272,376,l),
(230,376,l),
(424,63,l),
(528,63,l),
(714,376,l),
(680,376,l),
(682,0,l),
(897,0,l),
(895,700,l),
(701,700,l),
(429,243,l),
(531,243,l),
(251,700,l),
(57,700,l),
(57,0,l)
);
}
);
width = 954;
},
{
anchors = (
{
name = bottom;
pos = (477,0);
},
{
name = top;
pos = (477,700);
}
);
layerId = "708134FE-A11E-43C9-84F0-594DA15B6BD1";
shapes = (
{
closed = 1;
nodes = (
(210,0,l),
(210,526,l),
(182,526,l),
(451,82,l),
(503,82,l),
(769,526,l),
(744,526,l),
(745,0,l),
(855,0,l),
(854,700,l),
(760,700,l),
(454,181,l),
(504,181,l),
(194,700,l),
(100,700,l),
(100,0,l)
);
}
);
width = 955;
}
);
metricLeft = H;
metricRight = H;
unicode = 77;
},
{
color = 3;
glyphname = Mhook;
kernLeft = H;
kernRight = H;
layers = (
{
anchors = (
{
name = bottom;
pos = (492,0);
},
{
name = top;
pos = (492,700);
}
);
layerId = UUID0;
shapes = (
{
closed = 1;
nodes = (
(692,-227,o),
(837,-208,o),
(837,-58,cs),
(837,700,l),
(820,700,l),
(488,118,l),
(497,118,l),
(164,700,l),
(147,700,l),
(147,0,l),
(167,0,l),
(167,671,l),
(158,671,l),
(486,99,l),
(498,99,l),
(825,671,l),
(817,671,l),
(817,-58,ls),
(817,-187,o),
(701,-203,o),
(625,-144,c),
(613,-159,l)
);
}
);
width = 970;
},
{
anchors = (
{
name = bottom;
pos = (489,0);
},
{
name = top;
pos = (489,700);
}
);
background = {
shapes = (
{
closed = 1;
nodes = (
(643,-249,o),
(866,-228,o),
(866,-28,cs),
(866,18,l),
(756,18,l),
(756,-27,ls),
(756,-122,o),
(648,-126,o),
(581,-55,c),
(528,-129,l)
);
}
);
};
layerId = "708134FE-A11E-43C9-84F0-594DA15B6BD1";
shapes = (
{
closed = 1;
nodes = (
(696,-241,o),
(866,-202,o),
(866,-31,cs),
(865,700,l),
(771,700,l),
(465,181,l),
(515,181,l),
(205,700,l),
(111,700,l),
(111,0,l),
(221,0,l),
(221,526,l),
(193,526,l),
(462,82,l),
(514,82,l),
(780,526,l),
(755,526,l),
(756,-27,ls),
(756,-107,o),
(679,-123,o),
(615,-83,c),
(577,-168,l)
);
}
);
width = 966;
},
{
anchors = (
{
name = bottom;
pos = (485,0);
},
{
name = top;
pos = (485,700);
}
);
layerId = "5DA6E103-6A94-47F2-987D-4952DB8EA68E";
shapes = (
{
closed = 1;
nodes = (
(690,-249,o),
(907,-194,o),
(906,22,cs),
(904,700,l),
(710,700,l),
(438,243,l),
(540,243,l),
(260,700,l),
(66,700,l),
(66,0,l),
(281,0,l),
(281,376,l),
(239,376,l),
(433,63,l),
(537,63,l),
(723,376,l),
(691,376,l),
(691,22,ls),
(691,-30,o),
(646,-45,o),
(593,-20,c),
(539,-177,l)
);
}
);
width = 963;
}
);
metricRight = M;
unicode = 11374;
},
{
color = 3;
glyphname = Mturned;
kernLeft = U;
kernRight = H;
layers = (
{
anchors = (
{
name = bottom;
pos = (610,0);
},
{
name = top;
pos = (610,700);
}
);
background = {
shapes = (
{
angle = 180;
pos = (1224,700);
ref = M.ss01;
}
);
};
layerId = UUID0;
shapes = (
{
closed = 1;
nodes = (
(1071,700,l),
(1071,279,ls),
(1071,97,o),
(988,16,o),
(846,16,cs),
(702,16,o),
(620,96,o),
(620,259,cs),
(620,700,l),
(600,700,l),
(600,279,ls),
(600,97,o),
(516,16,o),
(374,16,cs),
(230,16,o),
(147,96,o),
(147,259,cs),
(147,700,l),
(127,700,l),
(127,258,ls),
(127,85,o),
(222,-3,o),
(373,-3,cs),
(493,-3,o),
(579,53,o),
(610,180,c),
(606,180,l),
(633,58,o),
(720,-3,o),
(845,-3,cs),
(958,-3,o),
(1038,46,o),
(1073,155,c),
(1071,157,l),
(1071,0,l),
(1091,0,l),
(1091,700,l)
);
}
);
width = 1224;
},
{
anchors = (
{
name = bottom;
pos = (610,0);
},
{
name = top;
pos = (610,700);
}
);
background = {
shapes = (
{
angle = 180;
pos = (1227,700);
ref = M.ss01;
}
);
};
layerId = "708134FE-A11E-43C9-84F0-594DA15B6BD1";
shapes = (
{
closed = 1;
nodes = (
(1013,700,l),
(1013,282,ls),
(1013,149,o),
(933,93,o),
(828,93,cs),
(734,93,o),
(668,148,o),
(668,270,cs),
(668,700,l),
(554,700,l),
(554,282,ls),
(554,149,o),
(478,93,o),
(373,93,cs),
(280,93,o),
(208,148,o),
(208,270,cs),
(208,700,l),
(94,700,l),
(94,266,ls),
(94,85,o),
(193,-9,o),
(354,-9,cs),
(469,-9,o),
(563,43,o),
(602,131,c),
(571,133,l),
(598,47,o),
(681,-9,o),
(800,-9,cs),
(911,-9,o),
(995,41,o),
(1031,121,c),
(1017,137,l),
(1017,0,l),
(1127,0,l),
(1127,700,l)
);
}
);
width = 1227;
},
{
anchors = (
{
name = bottom;
pos = (614,0);
},
{
name = top;
pos = (611,700);
}
);
background = {
shapes = (
{
angle = 180;
pos = (1212,700);
ref = M.ss01;
}
);
};
layerId = "5DA6E103-6A94-47F2-987D-4952DB8EA68E";
shapes = (
{
closed = 1;
nodes = (
(919,700,l),
(919,290,ls),
(919,213,o),
(880,175,o),
(822,175,cs),
(765,175,o),
(729,211,o),
(729,282,cs),
(729,700,l),
(493,700,l),
(493,290,ls),
(493,213,o),
(450,175,o),
(388,175,cs),
(327,175,o),
(287,211,o),
(287,282,cs),
(287,700,l),
(51,700,l),
(51,275,ls),
(51,85,o),
(151,-16,o),
(316,-16,cs),
(434,-16,o),
(529,36,o),
(573,141,c),
(501,149,l),
(536,40,o),
(616,-16,o),
(734,-16,cs),
(849,-16,o),
(927,38,o),
(961,135,c),
(927,176,l),
(927,0,l),
(1155,0,l),
(1155,700,l)
);
}
);
width = 1212;
}
);
unicode = 412;
},
{
glyphname = N;
kernLeft = H;
kernRight = H;
layers = (
{
anchors = (
{
name = bottom;
pos = (408,0);
},
{
name = top;
pos = (408,700);
}
);
layerId = UUID0;
shapes = (
{
closed = 1;
nodes = (
(153,0,l),
(153,677,l),
(142,677,l),
(666,0,l),
(683,0,l),
(683,700,l),
(663,700,l),
(663,23,l),
(674,23,l),
(150,700,l),
(133,700,l),
(133,0,l)
);
}
);
width = 816;
},
{
anchors = (
{
name = bottom;
pos = (402,0);
},
{
name = top;
pos = (402,700);
}
);
layerId = "5DA6E103-6A94-47F2-987D-4952DB8EA68E";
shapes = (
{
closed = 1;
nodes = (
(287,0,l),
(287,426,l),
(197,426,l),
(553,0,l),
(747,0,l),
(747,700,l),
(517,700,l),
(517,274,l),
(607,274,l),
(251,700,l),
(57,700,l),
(57,0,l)
);
}
);
width = 804;
},
{
anchors = (
{
name = bottom;
pos = (405,0);
},
{
name = top;
pos = (405,700);
}
);
layerId = "708134FE-A11E-43C9-84F0-594DA15B6BD1";
shapes = (
{
closed = 1;
nodes = (
(214,0,l),
(214,556,l),
(166,556,l),
(617,0,l),
(711,0,l),
(711,700,l),
(597,700,l),
(597,144,l),
(645,144,l),
(194,700,l),
(100,700,l),
(100,0,l)
);
}
);
width = 811;
}
);
metricLeft = H;
metricRight = H;
unicode = 78;
},
{
color = 3;
glyphname = Nhookleft;
kernLeft = j;
kernRight = N.ss01;
layers = (
{
anchors = (
{
name = bottom;
pos = (414,0);
},
{
name = top;
pos = (416,700);
}
);
background = {
shapes = (
{
closed = 1;
nodes = (
(-65,-154,l),
(15,-230,o),
(166,-204,o),
(166,-80,cs),
(166,401,ls),
(166,593,o),
(257,684,o),
(416,684,cs),
(575,684,o),
(666,594,o),
(666,421,cs),
(666,0,l),
(686,0,l),
(686,422,ls),
(686,605,o),
(583,703,o),
(417,703,cs),
(290,703,o),
(199,645,o),
(164,527,c),
(166,524,l),
(166,700,l),
(146,700,l),
(146,-75,ls),
(146,-185,o),
(25,-206,o),
(-51,-142,c),
(-28,-147,l),
(-50,-178,l)
);
}
);
};
layerId = UUID0;
shapes = (
{
closed = 1;
nodes = (
(50,-222,o),
(166,-192,o),
(166,-58,cs),
(166,401,ls),
(166,593,o),
(257,684,o),
(416,684,cs),
(575,684,o),
(666,594,o),
(666,421,cs),
(666,0,l),
(686,0,l),
(686,422,ls),
(686,605,o),
(583,703,o),
(417,703,cs),
(290,703,o),
(199,645,o),
(164,527,c),
(166,524,l),
(166,700,l),
(146,700,l),
(146,-58,ls),
(146,-173,o),
(54,-199,o),
(-21,-160,c),
(-30,-178,l)
);
}
);
width = 813;
},
{
anchors = (
{
name = bottom;
pos = (416,0);
},
{
name = top;
pos = (417,700);
}
);
background = {
shapes = (
{
closed = 1;
nodes = (
(-95,-148,l),
(23,-245,o),
(229,-212,o),
(229,-31,cs),
(229,396,ls),
(229,540,o),
(310,607,o),
(427,607,cs),
(535,607,o),
(605,542,o),
(605,410,cs),
(605,0,l),
(719,0,l),
(719,414,ls),
(719,605,o),
(617,709,o),
(451,709,cs),
(328,709,o),
(237,661,o),
(192,548,c),
(225,530,l),
(225,700,l),
(115,700,l),
(115,-27,ls),
(115,-121,o),
(1,-132,o),
(-66,-59,c),
(3,-39,l),
(-65,-214,l)
);
}
);
};
layerId = "708134FE-A11E-43C9-84F0-594DA15B6BD1";
shapes = (
{
closed = 1;
nodes = (
(92,-232,o),
(229,-176,o),
(229,-28,cs),
(229,396,ls),
(229,540,o),
(310,607,o),
(427,607,cs),
(535,607,o),
(605,542,o),
(605,410,cs),
(605,0,l),
(719,0,l),
(719,414,ls),
(719,605,o),
(617,709,o),
(451,709,cs),
(328,709,o),
(237,661,o),
(192,548,c),
(225,530,l),
(225,700,l),
(115,700,l),
(115,-28,ls),
(115,-92,o),
(58,-116,o),
(7,-97,c),
(-24,-186,l)
);
}
);
width = 813;
},
{
anchors = (
{
name = bottom;
pos = (408,0);
},
{
name = top;
pos = (408,700);
}
);
background = {
anchors = (
{
name = bottom;
pos = (408,0);
},
{
name = top;
pos = (408,700);
}
);
shapes = (
{
closed = 1;
nodes = (
(-148,-140,l),
(20,-261,o),
(301,-223,o),
(301,22,cs),
(301,390,ls),
(301,483,o),
(350,525,o),
(411,525,cs),
(474,525,o),
(515,486,o),
(515,398,cs),
(515,0,l),
(751,0,l),
(751,405,ls),
(751,605,o),
(655,716,o),
(490,716,cs),
(378,716,o),
(299,659,o),
(258,563,c),
(294,519,l),
(294,700,l),
(65,700,l),
(65,22,ls),
(65,-58,o),
(-40,-50,o),
(-119,54,c),
(16,80,l),
(-108,-277,l)
);
}
);
};
layerId = "5DA6E103-6A94-47F2-987D-4952DB8EA68E";
shapes = (
{
closed = 1;
nodes = (
(91,-247,o),
(301,-190,o),
(301,22,cs),
(301,390,ls),
(301,483,o),
(350,525,o),
(411,525,cs),
(474,525,o),
(515,486,o),
(515,398,cs),
(515,0,l),
(751,0,l),
(751,405,ls),
(751,605,o),
(655,716,o),
(490,716,cs),
(378,716,o),
(299,659,o),
(258,563,c),
(294,519,l),
(294,700,l),
(65,700,l),
(65,22,ls),
(65,-26,o),
(27,-42,o),
(-21,-25,c),
(-74,-180,l)
);
}
);
width = 802;
}
);
metricRight = U;
unicode = 413;
},
{
color = 3;
glyphname = Nlongrightleg;
kernLeft = H;
kernRight = H;
layers = (
{
anchors = (
{
name = bottom;
pos = (415,0);
},
{
name = top;
pos = (417,700);
}
);
layerId = UUID0;
shapes = (
{
closed = 1;
nodes = (
(687,-194,l),
(687,422,ls),
(687,605,o),
(584,703,o),
(418,703,cs),
(291,703,o),
(200,645,o),
(165,527,c),
(167,524,l),
(167,700,l),
(147,700,l),
(147,0,l),
(167,0,l),
(167,401,ls),
(167,593,o),
(258,684,o),
(417,684,cs),
(576,684,o),
(667,594,o),
(667,421,cs),
(667,-194,l)
);
}
);
width = 813;
},
{
anchors = (
{
name = bottom;
pos = (412,0);
},
{
name = top;
pos = (413,700);
}
);
layerId = "708134FE-A11E-43C9-84F0-594DA15B6BD1";
shapes = (
{
closed = 1;
nodes = (
(715,-194,l),
(715,414,ls),
(715,605,o),
(613,709,o),
(447,709,cs),
(324,709,o),
(233,661,o),
(188,548,c),
(221,530,l),
(221,700,l),
(111,700,l),
(111,0,l),
(225,0,l),
(225,396,ls),
(225,540,o),
(306,607,o),
(423,607,cs),
(531,607,o),
(601,542,o),
(601,410,cs),
(601,-194,l)
);
}
);
width = 810;
},
{
anchors = (
{
name = bottom;
pos = (409,0);
},
{
name = top;
pos = (409,700);
}
);
layerId = "5DA6E103-6A94-47F2-987D-4952DB8EA68E";
shapes = (
{
closed = 1;
nodes = (
(752,-194,l),
(752,405,ls),
(752,605,o),
(656,716,o),
(491,716,cs),
(379,716,o),
(300,659,o),
(259,563,c),
(295,519,l),
(295,700,l),
(66,700,l),
(66,0,l),
(302,0,l),
(302,390,ls),
(302,483,o),
(351,525,o),
(412,525,cs),
(475,525,o),
(516,486,o),
(516,398,cs),
(516,-194,l)
);
}
);
width = 806;
}
);
unicode = 544;
},
{
glyphname = Eng;
kernLeft = H;
kernRight = H;
layers = (
{
background = {
shapes = (
{
closed = 1;
nodes = (
(277,703,o),
(186,645,o),
(151,527,c),
(153,524,l),
(153,700,l),
(133,700,l),
(133,0,l),
(153,0,l),
(153,401,ls),
(153,593,o),
(244,684,o),
(403,684,cs),
(562,684,o),
(653,594,o),
(653,421,cs),
(653,2,ls),
(653,-120,o),
(604,-178,o),
(502,-178,cs),
(436,-178,o),
(379,-145,o),
(341,-86,c),
(327,-98,l),
(364,-160,o),
(430,-197,o),
(501,-197,cs),
(615,-197,o),
(673,-131,o),
(673,0,cs),
(673,422,ls),
(673,605,o),
(570,703,o),
(404,703,cs)
);
}
);
};
layerId = UUID0;
shapes = (
{
closed = 1;
nodes = (
(153,0,l),
(153,677,l),
(142,677,l),
(666,0,l),
(674,23,l),
(150,700,l),
(133,700,l),
(133,0,l)
);
},
{
closed = 1;
nodes = (
(625,-197,o),
(683,-131,o),
(683,0,cs),
(683,700,l),
(663,700,l),
(663,2,ls),
(663,-120,o),
(614,-178,o),
(512,-178,cs),
(446,-178,o),
(389,-145,o),
(351,-86,c),
(337,-98,l),
(374,-160,o),
(440,-197,o),
(511,-197,cs)
);
}
);
width = 816;
},
{
background = {
shapes = (
{
closed = 1;
nodes = (
(370,716,o),
(291,659,o),
(250,563,c),
(286,519,l),
(286,700,l),
(57,700,l),
(57,0,l),
(293,0,l),
(293,390,ls),
(293,483,o),
(342,525,o),
(403,525,cs),
(466,525,o),
(507,486,o),
(507,398,cs),
(507,72,ls),
(507,15,o),
(480,-13,o),
(431,-13,cs),
(407,-13,o),
(385,-6,o),
(362,10,c),
(254,-153,l),
(308,-189,o),
(375,-204,o),
(451,-204,cs),
(639,-204,o),
(743,-110,o),
(743,82,cs),
(743,405,ls),
(743,605,o),
(647,716,o),
(482,716,cs)
);
}
);
};
layerId = "5DA6E103-6A94-47F2-987D-4952DB8EA68E";
shapes = (
{
closed = 1;
nodes = (
(287,0,l),
(287,426,l),
(197,426,l),
(553,0,l),
(607,274,l),
(251,700,l),
(57,700,l),
(57,0,l)
);
},
{
closed = 1;
nodes = (
(606,-205,o),
(747,-135,o),
(747,84,cs),
(747,700,l),
(517,700,l),
(517,67,ls),
(517,8,o),
(485,-21,o),
(444,-21,cs),
(422,-21,o),
(396,-12,o),
(372,5,c),
(267,-150,l),
(314,-183,o),
(391,-205,o),
(468,-205,cs)
);
}
);
width = 804;
},
{
background = {
shapes = (
{
closed = 1;
nodes = (
(313,709,o),
(222,661,o),
(177,548,c),
(210,530,l),
(210,700,l),
(100,700,l),
(100,0,l),
(214,0,l),
(214,396,ls),
(214,540,o),
(295,607,o),
(412,607,cs),
(520,607,o),
(590,542,o),
(590,410,cs),
(590,36,ls),
(590,-54,o),
(552,-101,o),
(477,-101,cs),
(425,-101,o),
(382,-78,o),
(350,-39,c),
(295,-125,l),
(340,-174,o),
(406,-200,o),
(479,-200,cs),
(625,-200,o),
(704,-121,o),
(704,40,cs),
(704,414,ls),
(704,605,o),
(602,709,o),
(436,709,cs)
);
}
);
};
layerId = "708134FE-A11E-43C9-84F0-594DA15B6BD1";
shapes = (
{
closed = 1;
nodes = (
(214,0,l),
(214,556,l),
(166,556,l),
(617,0,l),
(645,144,l),
(194,700,l),
(100,700,l),
(100,0,l)
);
},
{
closed = 1;
nodes = (
(634,-200,o),
(711,-121,o),
(711,50,cs),
(711,700,l),
(597,700,l),
(597,34,ls),
(597,-57,o),
(561,-102,o),
(486,-102,cs),
(434,-102,o),
(392,-80,o),
(360,-42,c),
(305,-125,l),
(350,-174,o),
(415,-200,o),
(486,-200,cs)
);
}
);
width = 811;
}
);
metricLeft = H;
metricRight = H;
unicode = 330;
},
{
glyphname = O;
kernLeft = O;
kernRight = O;
layers = (
{
anchors = (
{
name = bottom;
pos = (418,0);
},
{
name = center;
pos = (418,350);
},
{
name = ogonek;
pos = (469,0);
},
{
name = top;
pos = (418,700);
},
{
name = topleft;
pos = (59,700);
},
{
name = topright;
pos = (667,700);
}
);
guides = (
{
angle = 90;
pos = (777,723);
}
);
layerId = UUID0;
shapes = (
{
closed = 1;
nodes = (
(623,-3,o),
(777,148,o),
(777,350,cs),
(777,552,o),
(623,703,o),
(418,703,cs),
(213,703,o),
(59,552,o),
(59,350,cs),
(59,148,o),
(213,-3,o),
(418,-3,cs)
);
},
{
closed = 1;
nodes = (
(225,16,o),
(79,159,o),
(79,350,cs),
(79,541,o),
(225,684,o),
(418,684,cs),
(611,684,o),
(757,541,o),
(757,350,cs),
(757,159,o),
(611,16,o),
(418,16,cs)
);
}
);
width = 836;
},
{
anchors = (
{
name = bottom;
pos = (424,0);
},
{
name = center;
pos = (424,350);
},
{
name = ogonek;
pos = (547,0);
},
{
name = top;
pos = (424,700);
},
{
name = topleft;
pos = (34,700);
},
{
name = topright;
pos = (590,700);
}
);
guides = (
{
angle = 90;
pos = (819,664);
}
);
layerId = "5DA6E103-6A94-47F2-987D-4952DB8EA68E";
shapes = (
{
closed = 1;
nodes = (
(652,-16,o),
(819,138,o),
(819,350,cs),
(819,562,o),
(652,716,o),
(424,716,cs),
(196,716,o),
(29,562,o),
(29,350,cs),
(29,138,o),
(196,-16,o),
(424,-16,cs)
);
},
{
closed = 1;
nodes = (
(337,175,o),
(267,241,o),
(267,350,cs),
(267,459,o),
(337,525,o),
(424,525,cs),
(511,525,o),
(581,459,o),
(581,350,cs),
(581,241,o),
(511,175,o),
(424,175,cs)
);
}
);
width = 848;
},
{
anchors = (
{
name = bottom;
pos = (421,0);
},
{
name = center;
pos = (421,350);
},
{
name = ogonek;
pos = (503,0);
},
{
name = top;
pos = (421,700);
},
{
name = topleft;
pos = (48,700);
},
{
name = topright;
pos = (633,700);
}
);
layerId = "708134FE-A11E-43C9-84F0-594DA15B6BD1";
shapes = (
{
closed = 1;
nodes = (
(636,-9,o),
(795,143,o),
(795,350,cs),
(795,557,o),
(636,709,o),
(421,709,cs),
(205,709,o),
(46,556,o),
(46,350,cs),
(46,144,o),
(205,-9,o),
(421,-9,cs)
);
},
{
closed = 1;
nodes = (
(271,93,o),
(161,202,o),
(161,350,cs),
(161,498,o),
(271,607,o),
(421,607,cs),
(570,607,o),
(680,498,o),
(680,350,cs),
(680,202,o),
(570,93,o),
(421,93,cs)
);
}
);
width = 841;
}
);
metricRight = "=|";
unicode = 79;
},
{
color = 3;
glyphname = OU;
kernLeft = U;
kernRight = U;
layers = (
{
layerId = UUID0;
shapes = (
{
closed = 1;
nodes = (
(522,-3,o),
(638,80,o),
(638,212,cs),
(638,343,o),
(522,426,o),
(338,426,cs),
(154,426,o),
(39,343,o),
(39,212,cs),
(39,80,o),
(154,-3,o),
(338,-3,cs)
);
},
{
closed = 1;
nodes = (
(167,16,o),
(59,92,o),
(59,214,cs),
(59,334,o),
(167,409,o),
(338,409,cs),
(511,409,o),
(619,334,o),
(619,214,cs),
(619,92,o),
(511,16,o),
(338,16,cs)
);
},
{
closed = 1;
nodes = (
(505,410,o),
(610,485,o),
(610,601,cs),
(610,700,l),
(590,700,l),
(590,601,ls),
(590,495,o),
(493,428,o),
(338,428,cs),
(184,428,o),
(88,495,o),
(88,601,cs),
(88,700,l),
(68,700,l),
(68,601,ls),
(68,485,o),
(172,410,o),
(338,410,cs)
);
}
);
userData = {
RMXScaler = {
height = 94;
width = 115;
};
};
width = 677;
},
{
layerId = "708134FE-A11E-43C9-84F0-594DA15B6BD1";
shapes = (
{
closed = 1;
nodes = (
(559,-9,o),
(682,83,o),
(682,230,cs),
(682,368,o),
(559,454,o),
(362,454,cs),
(167,454,o),
(44,368,o),
(44,230,cs),
(44,83,o),
(167,-9,o),
(362,-9,cs)
);
},
{
closed = 1;
nodes = (
(237,89,o),
(159,144,o),
(159,232,cs),
(159,320,o),
(237,376,o),
(362,376,cs),
(488,376,o),
(567,320,o),
(567,232,cs),
(567,144,o),
(488,89,o),
(362,89,cs)
);
},
{
closed = 1;
nodes = (
(545,389,o),
(653,469,o),
(653,602,cs),
(653,700,l),
(539,700,l),
(539,602,ls),
(539,517,o),
(474,466,o),
(362,466,cs),
(251,466,o),
(187,517,o),
(187,602,cs),
(187,700,l),
(73,700,l),
(73,602,ls),
(73,469,o),
(178,389,o),
(362,389,cs)
);
}
);
userData = {
RMXScaler = {
height = 95;
weight = 6;
width = 114;
};
};
width = 726;
},
{
layerId = "5DA6E103-6A94-47F2-987D-4952DB8EA68E";
shapes = (
{
closed = 1;
nodes = (
(605,-11,o),
(749,81,o),
(749,230,cs),
(749,378,o),
(605,476,o),
(382,476,cs),
(159,476,o),
(15,378,o),
(15,230,cs),
(15,81,o),
(159,-11,o),
(382,-11,cs)
);
},
{
closed = 1;
nodes = (
(294,154,o),
(242,188,o),
(242,246,cs),
(242,302,o),
(294,334,o),
(382,334,cs),
(470,334,o),
(522,302,o),
(522,246,cs),
(522,188,o),
(470,154,o),
(382,154,cs)
);
},
{
closed = 1;
nodes = (
(589,340,o),
(719,420,o),
(719,567,cs),
(719,700,l),
(487,700,l),
(487,568,ls),
(487,513,o),
(447,484,o),
(382,484,cs),
(316,484,o),
(277,513,o),
(277,568,cs),
(277,700,l),
(45,700,l),
(45,567,ls),
(45,420,o),
(175,340,o),
(382,340,cs)
);
}
);
userData = {
RMXScaler = {
height = 95;
weight = 9;
width = 120;
};
};
width = 764;
}
);
unicode = 546;
userData = {
RMXScaler = {
source = ou;
};
};
},
{
glyphname = Ohorn;
kernLeft = O;
kernRight = O;
layers = (
{
anchors = (
{
name = bottom;
pos = (418,0);
},
{
name = top;
pos = (418,700);
}
);
layerId = UUID0;
shapes = (
{
closed = 1;
nodes = (
(623,-3,o),
(777,148,o),
(777,350,cs),
(777,501,o),
(688,631,o),
(548,680,c),
(535,677,l),
(564,672,o),
(605,669,o),
(627,669,cs),
(714,669,o),
(757,703,o),
(757,771,cs),
(757,797,o),
(748,825,o),
(735,845,c),
(717,837,l),
(728,818,o),
(737,796,o),
(737,770,cs),
(737,715,o),
(701,688,o),
(627,688,cs),
(561,688,o),
(504,703,o),
(418,703,cs),
(213,703,o),
(59,552,o),
(59,350,cs),
(59,148,o),
(213,-3,o),
(418,-3,cs)
);
},
{
closed = 1;
nodes = (
(225,16,o),
(79,161,o),
(79,350,cs),
(79,539,o),
(225,684,o),
(418,684,cs),
(611,684,o),
(757,539,o),
(757,350,cs),
(757,161,o),
(611,16,o),
(418,16,cs)
);
}
);
width = 836;
},
{
anchors = (
{
name = bottom;
pos = (424,0);
},
{
name = top;
pos = (424,700);
}
);
layerId = "5DA6E103-6A94-47F2-987D-4952DB8EA68E";
shapes = (
{
closed = 1;
nodes = (
(652,-16,o),
(819,138,o),
(819,350,cs),
(819,468,o),
(766,564,o),
(684,625,c),
(424,591,l),
(479,584,o),
(535,574,o),
(600,574,cs),
(732,574,o),
(820,633,o),
(820,752,cs),
(820,797,o),
(806,834,o),
(783,863,c),
(655,818,l),
(667,804,o),
(675,783,o),
(675,761,cs),
(675,724,o),
(648,703,o),
(608,703,cs),
(567,703,o),
(505,716,o),
(434,716,cs),
(196,716,o),
(29,562,o),
(29,350,cs),
(29,138,o),
(196,-16,o),
(424,-16,cs)
);
},
{
closed = 1;
nodes = (
(337,175,o),
(267,241,o),
(267,350,cs),
(267,459,o),
(337,525,o),
(424,525,cs),
(511,525,o),
(581,459,o),
(581,350,cs),
(581,241,o),
(511,175,o),
(424,175,cs)
);
}
);
width = 848;
},
{
anchors = (
{
name = bottom;
pos = (421,0);
},
{
name = top;
pos = (421,700);
}
);
layerId = "708134FE-A11E-43C9-84F0-594DA15B6BD1";
shapes = (
{
closed = 1;
nodes = (
(636,-9,o),
(795,143,o),
(795,350,cs),
(795,483,o),
(726,597,o),
(626,653,c),
(481,636,l),
(521,630,o),
(568,624,o),
(609,624,cs),
(720,624,o),
(783,675,o),
(783,762,cs),
(783,797,o),
(772,829,o),
(754,854,c),
(686,828,l),
(697,811,o),
(706,790,o),
(706,766,cs),
(706,719,o),
(673,695,o),
(614,695,cs),
(559,695,o),
(504,709,o),
(425,709,cs),
(206,709,o),
(46,557,o),
(46,350,cs),
(46,144,o),
(205,-9,o),
(421,-9,cs)
);
},
{
closed = 1;
nodes = (
(272,93,o),
(161,202,o),
(161,350,cs),
(161,498,o),
(272,607,o),
(421,607,cs),
(570,607,o),
(680,497,o),
(680,350,cs),
(680,203,o),
(570,93,o),
(421,93,cs)
);
}
);
width = 841;
}
);
metricLeft = O;
metricWidth = O;
unicode = 416;
},
{
color = 4;
glyphname = "Omega-latin";
kernLeft = O;
kernRight = O;
layers = (
{
background = {
shapes = (
{
closed = 1;
nodes = (
(469,-1,o),
(549,100,o),
(549,222,c),
(538,222,l),
(538,100,o),
(617,-1,o),
(747,-1,cs),
(907,-1,o),
(989,149,o),
(989,324,cs),
(989,449,o),
(948,587,o),
(861,700,c),
(836,700,l),
(922,595,o),
(969,453,o),
(969,324,cs),
(969,160,o),
(893,18,o),
(746,18,cs),
(629,18,o),
(553,111,o),
(553,235,cs),
(553,415,l),
(533,415,l),
(533,235,ls),
(533,111,o),
(459,18,o),
(340,18,cs),
(192,18,o),
(117,161,o),
(117,324,cs),
(117,453,o),
(164,595,o),
(250,700,c),
(225,700,l),
(138,587,o),
(97,449,o),
(97,324,cs),
(97,149,o),
(179,-1,o),
(339,-1,cs)
);
}
);
};
layerId = UUID0;
shapes = (
{
closed = 1;
nodes = (
(469,-1,o),
(549,100,o),
(549,222,c),
(538,222,l),
(538,100,o),
(617,-1,o),
(747,-1,cs),
(907,-1,o),
(989,149,o),
(989,324,cs),
(989,449,o),
(948,587,o),
(861,700,c),
(836,700,l),
(922,595,o),
(969,453,o),
(969,324,cs),
(969,160,o),
(893,18,o),
(746,18,cs),
(629,18,o),
(553,111,o),
(553,235,cs),
(553,415,l),
(533,415,l),
(533,235,ls),
(533,111,o),
(459,18,o),
(340,18,cs),
(192,18,o),
(117,161,o),
(117,324,cs),
(117,453,o),
(164,595,o),
(250,700,c),
(225,700,l),
(138,587,o),
(97,449,o),
(97,324,cs),
(97,149,o),
(179,-1,o),
(339,-1,cs)
);
}
);
width = 1086;
},
{
background = {
shapes = (
{
closed = 1;
nodes = (
(455,-7,o),
(543,94,o),
(548,210,c),
(496,210,l),
(501,93,o),
(590,-7,o),
(729,-7,cs),
(910,-7,o),
(992,159,o),
(992,342,cs),
(992,467,o),
(952,601,o),
(881,700,c),
(770,700,l),
(833,605,o),
(875,460,o),
(875,334,cs),
(875,200,o),
(823,86,o),
(711,86,cs),
(626,86,o),
(577,152,o),
(577,246,cs),
(577,436,l),
(467,436,l),
(467,246,ls),
(467,152,o),
(419,86,o),
(333,86,cs),
(220,86,o),
(169,200,o),
(169,334,cs),
(169,460,o),
(211,605,o),
(274,700,c),
(163,700,l),
(91,600,o),
(54,467,o),
(54,342,cs),
(54,159,o),
(134,-7,o),
(315,-7,cs)
);
}
);
};
layerId = "708134FE-A11E-43C9-84F0-594DA15B6BD1";
shapes = (
{
closed = 1;
nodes = (
(457,-7,o),
(554,85,o),
(554,251,c),
(491,251,l),
(491,85,o),
(587,-7,o),
(722,-7,cs),
(909,-7,o),
(985,167,o),
(985,350,cs),
(985,479,o),
(948,612,o),
(879,700,c),
(751,700,l),
(832,600,o),
(870,468,o),
(870,351,cs),
(870,215,o),
(820,96,o),
(710,96,cs),
(636,96,o),
(582,150,o),
(582,280,cs),
(582,435,l),
(462,435,l),
(462,280,ls),
(462,151,o),
(409,96,o),
(335,96,cs),
(227,96,o),
(174,212,o),
(174,350,cs),
(174,470,o),
(214,603,o),
(296,700,c),
(168,700,l),
(98,614,o),
(60,481,o),
(60,351,cs),
(60,168,o),
(136,-7,o),
(322,-7,cs)
);
}
);
width = 1045;
},
{
background = {
shapes = (
{
closed = 1;
nodes = (
(472,-15,o),
(568,88,o),
(579,194,c),
(474,194,l),
(485,85,o),
(585,-15,o),
(737,-15,cs),
(943,-15,o),
(1025,174,o),
(1025,365,cs),
(1025,490,o),
(987,620,o),
(936,700,c),
(715,700,l),
(747,619,o),
(783,468,o),
(783,348,cs),
(783,252,o),
(762,173,o),
(696,173,cs),
(653,173,o),
(639,206,o),
(639,261,cs),
(639,463,l),
(414,463,l),
(414,261,ls),
(414,206,o),
(400,173,o),
(357,173,cs),
(291,173,o),
(270,252,o),
(270,348,cs),
(270,468,o),
(306,619,o),
(338,700,c),
(116,700,l),
(65,618,o),
(33,490,o),
(33,365,cs),
(33,174,o),
(110,-15,o),
(316,-15,cs)
);
}
);
};
layerId = "5DA6E103-6A94-47F2-987D-4952DB8EA68E";
shapes = (
{
closed = 1;
nodes = (
(472,-15,o),
(568,88,o),
(579,204,c),
(474,204,l),
(485,85,o),
(582,-15,o),
(737,-15,cs),
(943,-15,o),
(1025,174,o),
(1025,365,cs),
(1025,490,o),
(987,620,o),
(936,700,c),
(715,700,l),
(747,619,o),
(783,468,o),
(783,348,cs),
(783,252,o),
(762,173,o),
(699,173,cs),
(653,173,o),
(639,216,o),
(639,271,cs),
(639,473,l),
(414,473,l),
(414,271,ls),
(414,216,o),
(400,173,o),
(354,173,cs),
(291,173,o),
(270,252,o),
(270,348,cs),
(270,468,o),
(306,619,o),
(338,700,c),
(116,700,l),
(65,618,o),
(33,490,o),
(33,365,cs),
(33,174,o),
(110,-15,o),
(316,-15,cs)
);
}
);
width = 1058;
},
{
associatedMasterId = "5DA6E103-6A94-47F2-987D-4952DB8EA68E";
background = {
shapes = (
{
closed = 1;
nodes = (
(465,214,l),
(465,76,o),
(571,-15,o),
(709,-15,cs),
(915,-15,o),
(992,172,o),
(992,370,cs),
(992,498,o),
(959,631,o),
(909,719,c),
(692,662,l),
(718,596,o),
(751,453,o),
(751,340,cs),
(751,252,o),
(731,183,o),
(673,183,cs),
(634,183,o),
(620,213,o),
(620,252,cs),
(620,381,l),
(391,381,l),
(391,242,ls),
(391,230,o),
(391,173,o),
(338,173,cs),
(280,173,o),
(260,245,o),
(260,335,cs),
(260,450,o),
(292,594,o),
(319,662,c),
(102,719,l),
(60,645,o),
(23,501,o),
(23,360,cs),
(23,170,o),
(90,-15,o),
(302,-15,cs),
(440,-15,o),
(546,76,o),
(546,214,c)
);
}
);
};
layerId = "7BFB4036-95F6-4BE2-BECC-93FE362F14B9";
name = curva;
shapes = (
{
closed = 1;
nodes = (
(416,709,l),
(395,714,o),
(372,716,o),
(347,716,cs),
(157,716,o),
(22,565,o),
(22,350,cs),
(22,135,o),
(157,-16,o),
(342,-16,cs),
(428,-16,o),
(527,15,o),
(601,73,c),
(467,238,l),
(420,192,o),
(387,179,o),
(356,179,cs),
(295,179,o),
(260,247,o),
(260,350,cs),
(260,456,o),
(295,521,o),
(360,521,cs),
(369,521,o),
(377,520,o),
(385,518,c)
);
},
{
closed = 1;
nodes = (
(624,519,l),
(631,520,o),
(638,521,o),
(646,521,cs),
(711,521,o),
(746,455,o),
(746,350,cs),
(746,248,o),
(711,179,o),
(649,179,cs),
(613,179,o),
(581,197,o),
(539,238,c),
(404,73,l),
(478,15,o),
(579,-16,o),
(664,-16,cs),
(849,-16,o),
(984,135,o),
(984,350,cs),
(984,565,o),
(849,716,o),
(658,716,cs),
(633,716,o),
(611,714,o),
(589,710,c)
);
},
{
closed = 1;
nodes = (
(608,360,l),
(396,360,l),
(396,73,l),
(608,103,l)
);
}
);
width = 984;
},
{
associatedMasterId = "708134FE-A11E-43C9-84F0-594DA15B6BD1";
background = {
shapes = (
{
closed = 1;
nodes = (
(486,271,l),
(486,102,o),
(584,-7,o),
(728,-7,cs),
(905,-7,o),
(1001,159,o),
(1001,347,cs),
(1001,477,o),
(956,619,o),
(849,725,c),
(751,676,l),
(840,597,o),
(886,479,o),
(886,358,cs),
(886,222,o),
(827,96,o),
(714,96,cs),
(622,96,o),
(578,180,o),
(578,320,cs),
(578,361,l),
(458,361,l),
(458,320,ls),
(458,180,o),
(414,96,o),
(322,96,cs),
(209,96,o),
(150,222,o),
(150,358,cs),
(150,479,o),
(196,597,o),
(285,676,c),
(187,725,l),
(80,619,o),
(35,477,o),
(35,347,cs),
(35,159,o),
(131,-7,o),
(308,-7,cs),
(452,-7,o),
(550,102,o),
(550,271,c)
);
}
);
};
layerId = "9029DE54-3FFB-4A2C-BDAA-3EAFC2B1A0A0";
name = curva;
shapes = (
{
closed = 1;
nodes = (
(414,699,l),
(391,706,o),
(366,709,o),
(339,709,cs),
(162,709,o),
(33,558,o),
(33,350,cs),
(33,142,o),
(162,-9,o),
(336,-9,cs),
(415,-9,o),
(500,21,o),
(559,80,c),
(493,169,l),
(446,114,o),
(396,93,o),
(345,93,cs),
(228,93,o),
(148,202,o),
(148,351,cs),
(148,501,o),
(229,607,o),
(344,607,cs),
(361,607,o),
(377,605,o),
(393,600,c)
);
},
{
closed = 1;
nodes = (
(626,604,l),
(642,606,o),
(654,607,o),
(666,607,cs),
(782,607,o),
(862,500,o),
(862,350,cs),
(862,202,o),
(781,93,o),
(667,93,cs),
(615,93,o),
(564,114,o),
(517,169,c),
(451,80,l),
(511,21,o),
(593,-9,o),
(674,-9,cs),
(849,-9,o),
(977,142,o),
(977,350,cs),
(977,558,o),
(849,709,o),
(672,709,cs),
(650,709,o),
(630,707,o),
(611,703,c)
);
},
{
closed = 1;
nodes = (
(561,332,l),
(449,332,l),
(449,80,l),
(561,95,l)
);
}
);
width = 1010;
},
{
associatedMasterId = UUID0;
background = {
shapes = (
{
closed = 1;
nodes = (
(507,113,o),
(594,-1,o),
(732,-1,cs),
(893,-1,o),
(988,156,o),
(988,327,cs),
(988,440,o),
(947,578,o),
(826,705,c),
(812,691,l),
(930,565,o),
(968,433,o),
(968,327,cs),
(968,165,o),
(880,18,o),
(731,18,cs),
(604,18,o),
(526,124,o),
(526,248,cs),
(526,344,l),
(506,344,l),
(506,248,ls),
(506,124,o),
(428,18,o),
(301,18,cs),
(152,18,o),
(64,165,o),
(64,327,cs),
(64,433,o),
(102,565,o),
(220,691,c),
(206,705,l),
(85,578,o),
(44,440,o),
(44,327,cs),
(44,156,o),
(139,-1,o),
(300,-1,cs),
(438,-1,o),
(525,113,o),
(525,235,c),
(507,235,l)
);
}
);
};
layerId = "1E45CDEF-438E-4DD5-9C96-AC148EAFD543";
name = curva;
shapes = (
{
closed = 1;
nodes = (
(411,693,l),
(388,700,o),
(363,703,o),
(337,703,cs),
(171,703,o),
(47,552,o),
(47,350,cs),
(47,148,o),
(171,-3,o),
(337,-3,cs),
(413,-3,o),
(483,27,o),
(531,87,c),
(519,102,l),
(471,40,o),
(406,16,o),
(341,16,cs),
(182,16,o),
(67,161,o),
(67,350,cs),
(67,539,o),
(182,684,o),
(340,684,cs),
(361,684,o),
(383,681,o),
(405,676,c)
);
},
{
closed = 1;
nodes = (
(637,675,l),
(659,681,o),
(682,684,o),
(703,684,cs),
(862,684,o),
(976,538,o),
(976,350,cs),
(976,162,o),
(862,16,o),
(702,16,cs),
(637,16,o),
(573,40,o),
(524,102,c),
(512,87,l),
(563,24,o),
(634,-3,o),
(706,-3,cs),
(873,-3,o),
(996,149,o),
(996,350,cs),
(996,551,o),
(873,703,o),
(706,703,cs),
(680,703,o),
(655,700,o),
(631,693,c)
);
},
{
closed = 1;
nodes = (
(531,313,l),
(511,313,l),
(511,87,l),
(531,87,l)
);
}
);
width = 1043;
}
);
metricRight = "=|";
unicode = 42934;
},
{
glyphname = Oogonek;
kernLeft = O;
kernRight = O;
layers = (
{
anchors = (
{
name = top;
pos = (418,700);
}
);
layerId = UUID0;
shapes = (
{
closed = 1;
nodes = (
(441,-213,o),
(465,-205,o),
(487,-186,c),
(476,-171,l),
(460,-186,o),
(437,-194,o),
(414,-194,cs),
(373,-194,o),
(342,-173,o),
(342,-130,cs),
(342,-65,o),
(418,-10,o),
(500,6,cs),
(651,36,o),
(777,165,o),
(777,350,cs),
(777,552,o),
(623,703,o),
(418,703,cs),
(213,703,o),
(59,552,o),
(59,350,cs),
(59,148,o),
(213,-3,o),
(418,-3,cs),
(426,-3,o),
(433,-2,o),
(441,-1,c),
(459,16,l),
(348,-32,o),
(322,-89,o),
(322,-130,cs),
(322,-182,o),
(361,-213,o),
(413,-213,cs)
);
},
{
closed = 1;
nodes = (
(225,16,o),
(79,159,o),
(79,350,cs),
(79,541,o),
(225,684,o),
(418,684,cs),
(611,684,o),
(757,541,o),
(757,350,cs),
(757,159,o),
(611,16,o),
(418,16,cs)
);
}
);
width = 836;
},
{
anchors = (
{
name = top;
pos = (424,700);
}
);
layerId = "5DA6E103-6A94-47F2-987D-4952DB8EA68E";
shapes = (
{
closed = 1;
nodes = (
(502,-240,o),
(548,-230,o),
(572,-217,c),
(545,-124,l),
(530,-131,o),
(508,-138,o),
(486,-138,cs),
(449,-138,o),
(433,-120,o),
(433,-97,cs),
(433,-64,o),
(463,-29,o),
(564,5,cs),
(710,54,o),
(819,178,o),
(819,350,cs),
(819,562,o),
(652,716,o),
(424,716,cs),
(196,716,o),
(29,562,o),
(29,350,cs),
(29,138,o),
(196,-16,o),
(424,-16,cs),
(439,-16,o),
(455,-15,o),
(480,-13,c),
(468,49,l),
(362,16,o),
(301,-43,o),
(301,-117,cs),
(301,-192,o),
(359,-240,o),
(459,-240,cs)
);
},
{
closed = 1;
nodes = (
(337,175,o),
(267,241,o),
(267,350,cs),
(267,459,o),
(337,525,o),
(424,525,cs),
(511,525,o),
(581,459,o),
(581,350,cs),
(581,241,o),
(511,175,o),
(424,175,cs)
);
}
);
width = 848;
},
{
anchors = (
{
name = top;
pos = (421,700);
}
);
layerId = "708134FE-A11E-43C9-84F0-594DA15B6BD1";
shapes = (
{
closed = 1;
nodes = (
(466,-226,o),
(500,-217,o),
(525,-203,c),
(505,-147,l),
(489,-157,o),
(465,-163,o),
(444,-163,cs),
(409,-163,o),
(384,-145,o),
(384,-113,cs),
(384,-64,o),
(438,-19,o),
(528,6,cs),
(677,45,o),
(795,171,o),
(795,350,cs),
(795,557,o),
(636,709,o),
(421,709,cs),
(206,709,o),
(46,557,o),
(46,350,cs),
(46,143,o),
(206,-9,o),
(421,-9,cs),
(432,-9,o),
(443,-8,o),
(458,-7,c),
(451,35,l),
(344,-6,o),
(307,-66,o),
(307,-122,cs),
(307,-183,o),
(353,-226,o),
(432,-226,cs)
);
},
{
closed = 1;
nodes = (
(271,93,o),
(161,202,o),
(161,350,cs),
(161,498,o),
(271,607,o),
(421,607,cs),
(570,607,o),
(680,498,o),
(680,350,cs),
(680,202,o),
(570,93,o),
(421,93,cs)
);
}
);
width = 841;
}
);
unicode = 490;
},
{
color = 3;
glyphname = Oopen;
kernLeft = Oopen;
kernRight = O;
layers = (
{
anchors = (
{
name = bottom;
pos = (298,0);
},
{
name = center;
pos = (570,343);
},
{
name = top;
pos = (298,700);
}
);
layerId = UUID0;
shapes = (
{
closed = 1;
nodes = (
(201,703,o),
(115,673,o),
(55,613,c),
(67,599,l),
(131,660,o),
(208,684,o),
(293,684,cs),
(486,684,o),
(632,539,o),
(632,350,cs),
(632,161,o),
(486,16,o),
(293,16,cs),
(208,16,o),
(131,39,o),
(67,100,c),
(55,86,l),
(115,26,o),
(201,-3,o),
(293,-3,cs),
(498,-3,o),
(652,148,o),
(652,350,cs),
(652,552,o),
(498,703,o),
(293,703,cs)
);
}
);
width = 711;
},
{
anchors = (
{
name = bottom;
pos = (313,0);
},
{
name = center;
pos = (575,344);
},
{
name = top;
pos = (313,700);
}
);
layerId = "708134FE-A11E-43C9-84F0-594DA15B6BD1";
shapes = (
{
closed = 1;
nodes = (
(195,709,o),
(99,670,o),
(35,595,c),
(109,523,l),
(161,580,o),
(226,607,o),
(301,607,cs),
(453,607,o),
(564,499,o),
(564,350,cs),
(564,201,o),
(453,93,o),
(301,93,cs),
(226,93,o),
(161,120,o),
(109,176,c),
(35,104,l),
(99,30,o),
(195,-9,o),
(306,-9,cs),
(520,-9,o),
(679,142,o),
(679,350,cs),
(679,558,o),
(520,709,o),
(307,709,cs)
);
}
);
width = 725;
},
{
anchors = (
{
name = bottom;
pos = (326,0);
},
{
name = center;
pos = (547,340);
},
{
name = top;
pos = (326,700);
}
);
layerId = "5DA6E103-6A94-47F2-987D-4952DB8EA68E";
shapes = (
{
closed = 1;
nodes = (
(185,716,o),
(77,666,o),
(8,576,c),
(157,443,l),
(198,495,o),
(247,525,o),
(310,525,cs),
(408,525,o),
(474,457,o),
(474,350,cs),
(474,243,o),
(408,175,o),
(310,175,cs),
(247,175,o),
(198,205,o),
(157,257,c),
(8,124,l),
(77,34,o),
(185,-16,o),
(322,-16,cs),
(547,-16,o),
(712,135,o),
(712,350,cs),
(712,565,o),
(547,716,o),
(322,716,cs)
);
}
);
width = 741;
}
);
metricLeft = "=|C";
metricRight = O;
unicode = 390;
},
{
color = 4;
glyphname = Oslash;
kernLeft = O;
kernRight = O;
layers = (
{
anchors = (
{
name = bottom;
pos = (418,0);
},
{
name = top;
pos = (418,700);
}
);
background = {
anchors = (
{
name = bottom;
pos = (418,0);
},
{
name = center;
pos = (418,350);
},
{
name = ogonek;
pos = (469,0);
},
{
name = top;
pos = (418,700);
},
{
name = topleft;
pos = (59,700);
},
{
name = topright;
pos = (667,700);
}
);
shapes = (
{
closed = 1;
nodes = (
(623,-3,o),
(777,148,o),
(777,350,cs),
(777,552,o),
(623,703,o),
(418,703,cs),
(213,703,o),
(59,552,o),
(59,350,cs),
(59,148,o),
(213,-3,o),
(418,-3,cs)
);
},
{
closed = 1;
nodes = (
(225,16,o),
(79,159,o),
(79,350,cs),
(79,541,o),
(225,684,o),
(418,684,cs),
(611,684,o),
(757,541,o),
(757,350,cs),
(757,159,o),
(611,16,o),
(418,16,cs)
);
},
{
closed = 1;
nodes = (
(192,-70,l),
(667,770,l),
(644,770,l),
(169,-70,l)
);
}
);
};
layerId = UUID0;
shapes = (
{
ref = O;
},
{
pos = (9,0);
ref = slashlongcomb.case;
}
);
width = 836;
},
{
anchors = (
{
name = bottom;
pos = (424,0);
},
{
name = top;
pos = (424,700);
}
);
layerId = "5DA6E103-6A94-47F2-987D-4952DB8EA68E";
shapes = (
{
ref = O;
},
{
pos = (29,0);
ref = slashlongcomb.case;
}
);
width = 848;
},
{
anchors = (
{
name = bottom;
pos = (421,0);
},
{
name = top;
pos = (421,700);
}
);
layerId = "708134FE-A11E-43C9-84F0-594DA15B6BD1";
shapes = (
{
ref = O;
},
{
pos = (17,0);
ref = slashlongcomb.case;
}
);
width = 841;
}
);
unicode = 216;
},
{
glyphname = OE;
kernLeft = O;
kernRight = E;
layers = (
{
anchors = (
{
name = bottom;
pos = (587,0);
},
{
name = top;
pos = (587,700);
}
);
layerId = UUID0;
shapes = (
{
closed = 1;
nodes = (
(583,0,l),
(583,19,l),
(428,19,ls),
(217,19,o),
(79,158,o),
(79,349,cs),
(79,540,o),
(217,681,o),
(428,681,cs),
(583,681,l),
(583,700,l),
(428,700,ls),
(208,700,o),
(59,551,o),
(59,349,cs),
(59,147,o),
(208,0,o),
(428,0,cs)
);
},
{
closed = 1;
nodes = (
(1043,0,l),
(1043,19,l),
(597,19,l),
(597,681,l),
(1028,681,l),
(1028,700,l),
(577,700,l),
(577,0,l)
);
},
{
closed = 1;
nodes = (
(983,346,l),
(983,365,l),
(592,365,l),
(592,346,l)
);
}
);
width = 1112;
},
{
anchors = (
{
name = bottom;
pos = (649,0);
},
{
name = top;
pos = (649,700);
}
);
layerId = "5DA6E103-6A94-47F2-987D-4952DB8EA68E";
shapes = (
{
closed = 1;
nodes = (
(593,0,l),
(593,184,l),
(434,184,ls),
(335,184,o),
(267,243,o),
(267,350,cs),
(267,457,o),
(335,516,o),
(434,516,cs),
(593,516,l),
(593,700,l),
(424,700,ls),
(190,700,o),
(29,567,o),
(29,350,cs),
(29,133,o),
(190,0,o),
(424,0,cs)
);
},
{
closed = 1;
nodes = (
(1115,0,l),
(1115,178,l),
(765,178,l),
(765,522,l),
(1102,522,l),
(1102,700,l),
(533,700,l),
(533,0,l)
);
},
{
closed = 1;
nodes = (
(1061,270,l),
(1061,440,l),
(749,440,l),
(749,270,l)
);
}
);
width = 1149;
},
{
anchors = (
{
name = bottom;
pos = (614,0);
},
{
name = top;
pos = (614,700);
}
);
layerId = "708134FE-A11E-43C9-84F0-594DA15B6BD1";
shapes = (
{
closed = 1;
nodes = (
(587,0,l),
(587,99,l),
(432,99,ls),
(267,99,o),
(161,199,o),
(161,349,cs),
(161,501,o),
(267,601,o),
(432,601,cs),
(587,601,l),
(587,700,l),
(426,700,ls),
(200,700,o),
(46,559,o),
(46,349,cs),
(46,141,o),
(200,0,o),
(426,0,cs)
);
},
{
closed = 1;
nodes = (
(1074,0,l),
(1074,99,l),
(672,99,l),
(672,601,l),
(1060,601,l),
(1060,700,l),
(558,700,l),
(558,0,l)
);
},
{
closed = 1;
nodes = (
(1017,307,l),
(1017,404,l),
(663,404,l),
(663,307,l)
);
}
);
width = 1128;
}
);
metricLeft = O;
metricRight = E;
unicode = 338;
},
{
glyphname = P;
kernLeft = H;
kernRight = P;
layers = (
{
anchors = (
{
name = bottom;
pos = (355,0);
},
{
name = hook.af;
pos = (133,700);
},
{
name = top;
pos = (355,700);
}
);
layerId = UUID0;
shapes = (
{
closed = 1;
nodes = (
(153,0,l),
(153,249,l),
(144,240,l),
(370,240,ls),
(542,240,o),
(645,325,o),
(645,470,cs),
(645,615,o),
(542,700,o),
(370,700,cs),
(133,700,l),
(133,0,l)
);
},
{
closed = 1;
nodes = (
(153,689,l),
(144,681,l),
(372,681,ls),
(536,681,o),
(625,604,o),
(625,470,cs),
(625,336,o),
(536,259,o),
(372,259,cs),
(144,259,l),
(153,251,l)
);
}
);
width = 710;
},
{
anchors = (
{
name = bottom;
pos = (372,0);
},
{
name = hook.af;
pos = (57,700);
},
{
name = top;
pos = (372,700);
}
);
layerId = "5DA6E103-6A94-47F2-987D-4952DB8EA68E";
shapes = (
{
closed = 1;
nodes = (
(293,0,l),
(293,273,l),
(188,172,l),
(394,172,ls),
(589,172,o),
(713,274,o),
(713,436,cs),
(713,598,o),
(589,700,o),
(394,700,cs),
(57,700,l),
(57,0,l)
);
},
{
closed = 1;
nodes = (
(293,625,l),
(188,518,l),
(379,518,ls),
(444,518,o),
(475,487,o),
(475,436,cs),
(475,385,o),
(444,354,o),
(379,354,cs),
(188,354,l),
(293,247,l)
);
}
);
width = 743;
},
{
anchors = (
{
name = bottom;
pos = (362,0);
},
{
name = hook.af;
pos = (100,700);
},
{
name = top;
pos = (362,700);
}
);
layerId = "708134FE-A11E-43C9-84F0-594DA15B6BD1";
shapes = (
{
closed = 1;
nodes = (
(214,0,l),
(214,261,l),
(163,207,l),
(380,207,ls),
(563,207,o),
(675,300,o),
(675,453,cs),
(675,607,o),
(563,700,o),
(380,700,cs),
(100,700,l),
(100,0,l)
);
},
{
closed = 1;
nodes = (
(214,658,l),
(163,601,l),
(376,601,ls),
(497,601,o),
(560,547,o),
(560,453,cs),
(560,360,o),
(497,306,o),
(376,306,cs),
(163,306,l),
(214,249,l)
);
}
);
width = 724;
}
);
metricLeft = H;
unicode = 80;
},
{
glyphname = Thorn;
kernLeft = H;
kernRight = Thorn;
layers = (
{
layerId = UUID0;
shapes = (
{
closed = 1;
nodes = (
(370,139,ls),
(542,139,o),
(645,224,o),
(645,370,cs),
(645,515,o),
(542,600,o),
(370,600,cs),
(144,600,l),
(144,581,l),
(372,581,ls),
(536,581,o),
(625,504,o),
(625,370,cs),
(625,235,o),
(536,158,o),
(372,158,cs),
(144,158,l),
(144,139,l)
);
},
{
closed = 1;
nodes = (
(153,0,l),
(153,700,l),
(133,700,l),
(133,0,l)
);
}
);
width = 710;
},
{
layerId = "5DA6E103-6A94-47F2-987D-4952DB8EA68E";
shapes = (
{
closed = 1;
nodes = (
(394,105,ls),
(589,105,o),
(713,207,o),
(713,369,cs),
(713,531,o),
(589,633,o),
(394,633,cs),
(245,633,l),
(245,451,l),
(379,451,ls),
(444,451,o),
(475,420,o),
(475,369,cs),
(475,318,o),
(444,287,o),
(379,287,cs),
(245,287,l),
(245,105,l)
);
},
{
closed = 1;
nodes = (
(293,0,l),
(293,701,l),
(57,701,l),
(57,0,l)
);
}
);
width = 743;
},
{
layerId = "708134FE-A11E-43C9-84F0-594DA15B6BD1";
shapes = (
{
closed = 1;
nodes = (
(380,122,ls),
(563,122,o),
(675,216,o),
(675,369,cs),
(675,522,o),
(563,616,o),
(380,616,cs),
(188,616,l),
(188,517,l),
(376,517,ls),
(497,517,o),
(560,463,o),
(560,369,cs),
(560,275,o),
(497,221,o),
(376,221,cs),
(188,221,l),
(188,122,l)
);
},
{
closed = 1;
nodes = (
(214,0,l),
(214,700,l),
(100,700,l),
(100,0,l)
);
}
);
width = 724;
}
);
metricLeft = H;
metricRight = P;
unicode = 222;
},
{
color = 4;
glyphname = Pstroke;
kernLeft = Hbar;
kernRight = P;
layers = (
{
anchors = (
{
name = hook.af;
pos = (133,700);
}
);
background = {
anchors = (
{
name = hook.af;
pos = (133,700);
}
);
shapes = (
{
closed = 1;
nodes = (
(153,0,l),
(153,249,l),
(144,240,l),
(370,240,ls),
(542,240,o),
(645,325,o),
(645,470,cs),
(645,615,o),
(542,700,o),
(370,700,cs),
(133,700,l),
(133,0,l)
);
},
{
closed = 1;
nodes = (
(323,462,l),
(323,481,l),
(13,481,l),
(13,462,l)
);
},
{
closed = 1;
nodes = (
(153,689,l),
(144,681,l),
(372,681,ls),
(536,681,o),
(625,604,o),
(625,470,cs),
(625,336,o),
(536,259,o),
(372,259,cs),
(144,259,l),
(153,251,l)
);
}
);
};
layerId = UUID0;
shapes = (
{
closed = 1;
nodes = (
(153,0,l),
(153,249,l),
(144,240,l),
(370,240,ls),
(542,240,o),
(645,325,o),
(645,470,cs),
(645,615,o),
(542,700,o),
(370,700,cs),
(133,700,l),
(133,0,l)
);
},
{
closed = 1;
nodes = (
(323,462,l),
(323,481,l),
(13,481,l),
(13,462,l)
);
},
{
closed = 1;
nodes = (
(153,689,l),
(144,681,l),
(372,681,ls),
(536,681,o),
(625,604,o),
(625,470,cs),
(625,336,o),
(536,259,o),
(372,259,cs),
(144,259,l),
(153,251,l)
);
}
);
width = 710;
},
{
anchors = (
{
name = hook.af;
pos = (100,700);
}
);
background = {
anchors = (
{
name = hook.af;
pos = (100,700);
}
);
shapes = (
{
closed = 1;
nodes = (
(214,0,l),
(214,261,l),
(163,207,l),
(380,207,ls),
(563,207,o),
(675,300,o),
(675,453,cs),
(675,607,o),
(563,700,o),
(380,700,cs),
(100,700,l),
(100,0,l)
);
},
{
closed = 1;
nodes = (
(364,411,l),
(364,499,l),
(0,499,l),
(0,411,l)
);
},
{
closed = 1;
nodes = (
(214,658,l),
(163,601,l),
(376,601,ls),
(497,601,o),
(560,547,o),
(560,453,cs),
(560,360,o),
(497,306,o),
(376,306,cs),
(163,306,l),
(214,249,l)
);
}
);
};
layerId = "708134FE-A11E-43C9-84F0-594DA15B6BD1";
shapes = (
{
closed = 1;
nodes = (
(214,0,l),
(214,261,l),
(163,207,l),
(380,207,ls),
(563,207,o),
(675,300,o),
(675,453,cs),
(675,607,o),
(563,700,o),
(380,700,cs),
(100,700,l),
(100,0,l)
);
},
{
closed = 1;
nodes = (
(364,411,l),
(364,499,l),
(0,499,l),
(0,411,l)
);
},
{
closed = 1;
nodes = (
(214,658,l),
(163,601,l),
(376,601,ls),
(497,601,o),
(560,547,o),
(560,453,cs),
(560,360,o),
(497,306,o),
(376,306,cs),
(163,306,l),
(214,249,l)
);
}
);
width = 724;
},
{
anchors = (
{
name = hook.af;
pos = (57,700);
}
);
background = {
anchors = (
{
name = hook.af;
pos = (57,700);
}
);
shapes = (
{
closed = 1;
nodes = (
(293,0,l),
(293,273,l),
(188,172,l),
(394,172,ls),
(589,172,o),
(713,274,o),
(713,436,cs),
(713,598,o),
(589,700,o),
(394,700,cs),
(57,700,l),
(57,0,l)
);
},
{
closed = 1;
nodes = (
(388,369,l),
(388,503,l),
(-13,503,l),
(-13,369,l)
);
},
{
closed = 1;
nodes = (
(293,625,l),
(188,527,l),
(379,527,ls),
(441,527,o),
(475,494,o),
(475,436,cs),
(475,377,o),
(441,344,o),
(379,344,cs),
(188,344,l),
(293,247,l)
);
}
);
};
layerId = "5DA6E103-6A94-47F2-987D-4952DB8EA68E";
shapes = (
{
closed = 1;
nodes = (
(293,0,l),
(293,273,l),
(188,172,l),
(394,172,ls),
(589,172,o),
(713,274,o),
(713,436,cs),
(713,598,o),
(589,700,o),
(394,700,cs),
(57,700,l),
(57,0,l)
);
},
{
closed = 1;
nodes = (
(388,369,l),
(388,503,l),
(-13,503,l),
(-13,369,l)
);
},
{
closed = 1;
nodes = (
(293,625,l),
(188,527,l),
(379,527,ls),
(441,527,o),
(475,494,o),
(475,436,cs),
(475,377,o),
(441,344,o),
(379,344,cs),
(188,344,l),
(293,247,l)
);
}
);
width = 743;
}
);
unicode = 11363;
},
{
glyphname = Q;
kernLeft = O;
kernRight = O;
layers = (
{
anchors = (
{
name = top;
pos = (418,700);
}
);
layerId = UUID0;
shapes = (
{
closed = 1;
nodes = (
(623,-3,o),
(777,148,o),
(777,350,cs),
(777,552,o),
(623,703,o),
(418,703,cs),
(213,703,o),
(59,552,o),
(59,350,cs),
(59,148,o),
(213,-3,o),
(418,-3,cs)
);
},
{
closed = 1;
nodes = (
(711,-124,o),
(766,-98,o),
(807,-48,c),
(793,-34,l),
(753,-82,o),
(706,-105,o),
(648,-105,cs),
(585,-105,o),
(519,-67,o),
(451,8,c),
(425,3,l),
(509,-85,o),
(577,-124,o),
(648,-124,cs)
);
},
{
closed = 1;
nodes = (
(225,16,o),
(79,161,o),
(79,350,cs),
(79,539,o),
(225,684,o),
(418,684,cs),
(611,684,o),
(757,539,o),
(757,350,cs),
(757,161,o),
(611,16,o),
(418,16,cs)
);
}
);
width = 836;
},
{
anchors = (
{
name = top;
pos = (425,700);
}
);
layerId = "5DA6E103-6A94-47F2-987D-4952DB8EA68E";
shapes = (
{
closed = 1;
nodes = (
(652,-16,o),
(819,138,o),
(819,350,cs),
(819,562,o),
(652,716,o),
(424,716,cs),
(196,716,o),
(29,562,o),
(29,350,cs),
(29,138,o),
(196,-16,o),
(424,-16,cs)
);
},
{
closed = 1;
nodes = (
(737,-177,o),
(808,-146,o),
(857,-88,c),
(755,32,l),
(726,3,o),
(692,-13,o),
(658,-13,cs),
(616,-13,o),
(593,6,o),
(546,80,c),
(302,20,l),
(442,-133,o),
(521,-177,o),
(653,-177,cs)
);
},
{
closed = 1;
nodes = (
(337,175,o),
(267,241,o),
(267,350,cs),
(267,459,o),
(337,525,o),
(424,525,cs),
(511,525,o),
(581,459,o),
(581,350,cs),
(581,241,o),
(511,175,o),
(424,175,cs)
);
}
);
width = 848;
},
{
anchors = (
{
name = top;
pos = (421,700);
}
);
layerId = "708134FE-A11E-43C9-84F0-594DA15B6BD1";
shapes = (
{
closed = 1;
nodes = (
(636,-9,o),
(795,143,o),
(795,350,cs),
(795,557,o),
(636,709,o),
(421,709,cs),
(205,709,o),
(46,556,o),
(46,350,cs),
(46,144,o),
(205,-9,o),
(421,-9,cs)
);
},
{
closed = 1;
nodes = (
(722,-150,o),
(784,-121,o),
(829,-67,c),
(776,-2,l),
(741,-41,o),
(700,-60,o),
(652,-60,cs),
(599,-60,o),
(551,-32,o),
(493,43,c),
(371,11,l),
(480,-108,o),
(553,-150,o),
(650,-150,cs)
);
},
{
closed = 1;
nodes = (
(271,93,o),
(161,202,o),
(161,350,cs),
(161,498,o),
(271,607,o),
(421,607,cs),
(570,607,o),
(680,498,o),
(680,350,cs),
(680,202,o),
(570,93,o),
(421,93,cs)
);
}
);
width = 841;
}
);
metricLeft = O;
metricWidth = O;
unicode = 81;
},
{
color = 3;
glyphname = Qhooktail;
kernLeft = O;
kernRight = Qhooktail;
layers = (
{
anchors = (
{
name = bottom;
pos = (438,0);
},
{
name = center;
pos = (438,350);
},
{
name = ogonek;
pos = (489,0);
},
{
name = top;
pos = (438,700);
},
{
name = topleft;
pos = (79,700);
},
{
name = topright;
pos = (687,700);
}
);
background = {
anchors = (
{
name = bottom;
pos = (438,0);
},
{
name = center;
pos = (438,350);
},
{
name = ogonek;
pos = (489,0);
},
{
name = top;
pos = (438,700);
},
{
name = topleft;
pos = (79,700);
},
{
name = topright;
pos = (687,700);
}
);
shapes = (
{
closed = 1;
nodes = (
(642,-3,o),
(795,148,o),
(795,350,cs),
(795,552,o),
(642,703,o),
(438,703,cs),
(233,703,o),
(79,552,o),
(79,350,cs),
(79,148,o),
(233,-3,o),
(438,-3,cs)
);
},
{
closed = 1;
nodes = (
(245,16,o),
(99,159,o),
(99,350,cs),
(99,541,o),
(245,684,o),
(438,684,cs),
(631,684,o),
(777,541,o),
(777,350,cs),
(777,159,o),
(631,16,o),
(438,16,cs)
);
},
{
closed = 1;
nodes = (
(776,-58,l),
(776,-210,o),
(923,-227,o),
(1000,-159,c),
(988,-144,l),
(916,-205,o),
(796,-187,o),
(796,-58,c)
);
}
);
};
layerId = UUID0;
shapes = (
{
closed = 1;
nodes = (
(642,-3,o),
(795,148,o),
(795,350,cs),
(795,552,o),
(642,703,o),
(438,703,cs),
(233,703,o),
(79,552,o),
(79,350,cs),
(79,148,o),
(233,-3,o),
(438,-3,cs)
);
},
{
closed = 1;
nodes = (
(245,16,o),
(99,159,o),
(99,350,cs),
(99,541,o),
(245,684,o),
(438,684,cs),
(631,684,o),
(777,541,o),
(777,350,cs),
(777,159,o),
(631,16,o),
(438,16,cs)
);
},
{
closed = 1;
nodes = (
(963,-161,l),
(891,-200,o),
(796,-172,o),
(796,-58,cs),
(796,686,l),
(776,686,l),
(776,448,l),
(779,350,l),
(776,275,l),
(776,-58,ls),
(776,-192,o),
(892,-222,o),
(972,-178,c)
);
}
);
width = 943;
},
{
anchors = (
{
name = bottom;
pos = (427,0);
},
{
name = center;
pos = (427,350);
},
{
name = ogonek;
pos = (509,0);
},
{
name = top;
pos = (427,700);
},
{
name = topleft;
pos = (54,700);
},
{
name = topright;
pos = (639,700);
}
);
background = {
anchors = (
{
name = bottom;
pos = (427,0);
},
{
name = center;
pos = (427,350);
},
{
name = ogonek;
pos = (509,0);
},
{
name = top;
pos = (427,700);
},
{
name = topleft;
pos = (54,700);
},
{
name = topright;
pos = (639,700);
}
);
shapes = (
{
closed = 1;
nodes = (
(627,-9,o),
(776,143,o),
(776,350,cs),
(776,557,o),
(627,709,o),
(422,709,cs),
(213,709,o),
(56,556,o),
(56,350,cs),
(56,144,o),
(213,-9,o),
(422,-9,cs)
);
},
{
closed = 1;
nodes = (
(281,93,o),
(171,202,o),
(171,350,cs),
(171,498,o),
(281,607,o),
(431,607,cs),
(580,607,o),
(690,498,o),
(690,350,cs),
(690,202,o),
(580,93,o),
(431,93,cs)
);
},
{
closed = 1;
nodes = (
(799,-28,l),
(799,700,l),
(685,700,l),
(685,544,l),
(700,351,l),
(685,143,l),
(685,-32,l)
);
},
{
closed = 0;
nodes = (
(685,-28,l),
(685,-176,o),
(822,-232,o),
(938,-186,c),
(907,-97,l),
(856,-116,o),
(799,-92,o),
(799,-28,cs)
);
}
);
};
layerId = "708134FE-A11E-43C9-84F0-594DA15B6BD1";
shapes = (
{
closed = 1;
nodes = (
(627,-9,o),
(776,143,o),
(776,350,cs),
(776,557,o),
(627,709,o),
(422,709,cs),
(213,709,o),
(56,556,o),
(56,350,cs),
(56,144,o),
(213,-9,o),
(422,-9,cs)
);
},
{
closed = 1;
nodes = (
(281,93,o),
(171,202,o),
(171,350,cs),
(171,498,o),
(281,607,o),
(431,607,cs),
(580,607,o),
(690,498,o),
(690,350,cs),
(690,202,o),
(580,93,o),
(431,93,cs)
);
},
{
closed = 1;
nodes = (
(907,-97,l),
(856,-116,o),
(799,-92,o),
(799,-28,cs),
(799,700,l),
(685,700,l),
(685,544,l),
(700,351,l),
(685,143,l),
(685,-32,ls),
(685,-176,o),
(822,-232,o),
(938,-186,c)
);
}
);
width = 910;
},
{
anchors = (
{
name = bottom;
pos = (424,0);
},
{
name = center;
pos = (424,350);
},
{
name = ogonek;
pos = (547,0);
},
{
name = top;
pos = (424,700);
},
{
name = topleft;
pos = (34,700);
},
{
name = topright;
pos = (590,700);
}
);
background = {
anchors = (
{
name = bottom;
pos = (424,0);
},
{
name = center;
pos = (424,350);
},
{
name = ogonek;
pos = (547,0);
},
{
name = top;
pos = (424,700);
},
{
name = topleft;
pos = (34,700);
},
{
name = topright;
pos = (590,700);
}
);
shapes = (
{
closed = 1;
nodes = (
(567,-16,o),
(690,138,o),
(690,350,cs),
(690,562,o),
(567,716,o),
(376,716,cs),
(184,716,o),
(29,562,o),
(29,350,cs),
(29,138,o),
(184,-16,o),
(376,-16,cs)
);
},
{
closed = 1;
nodes = (
(328,175,o),
(267,243,o),
(267,350,cs),
(267,457,o),
(328,525,o),
(424,525,cs),
(520,525,o),
(581,457,o),
(581,350,cs),
(581,243,o),
(520,175,o),
(424,175,cs)
);
},
{
closed = 1;
nodes = (
(886,6,l),
(933,-3,l),
(868,-50,o),
(810,-37,o),
(810,17,cs),
(810,700,l),
(574,700,l),
(581,580,l),
(600,350,l),
(574,166,l),
(574,17,ls),
(574,-216,o),
(810,-255,o),
(988,-163,c),
(947,-192,l)
);
}
);
};
layerId = "5DA6E103-6A94-47F2-987D-4952DB8EA68E";
shapes = (
{
closed = 1;
nodes = (
(567,-16,o),
(690,138,o),
(690,350,cs),
(690,562,o),
(567,716,o),
(376,716,cs),
(184,716,o),
(29,562,o),
(29,350,cs),
(29,138,o),
(184,-16,o),
(376,-16,cs)
);
},
{
closed = 1;
nodes = (
(328,175,o),
(267,243,o),
(267,350,cs),
(267,457,o),
(328,525,o),
(424,525,cs),
(520,525,o),
(581,457,o),
(581,350,cs),
(581,243,o),
(520,175,o),
(424,175,cs)
);
},
{
closed = 1;
nodes = (
(895,-24,l),
(847,-43,o),
(810,-26,o),
(810,17,cs),
(810,700,l),
(574,700,l),
(581,580,l),
(600,350,l),
(574,166,l),
(574,17,ls),
(574,-197,o),
(774,-247,o),
(944,-183,c)
);
}
);
width = 915;
}
);
unicode = 586;
},
{
glyphname = R;
kernLeft = H;
kernRight = R;
layers = (
{
anchors = (
{
name = bottom;
pos = (366,0);
},
{
name = top;
pos = (366,700);
}
);
layerId = UUID0;
shapes = (
{
closed = 1;
nodes = (
(153,0,l),
(153,249,l),
(144,240,l),
(370,240,ls),
(542,240,o),
(645,325,o),
(645,470,cs),
(645,615,o),
(542,700,o),
(370,700,cs),
(133,700,l),
(133,0,l)
);
},
{
closed = 1;
nodes = (
(655,0,l),
(472,254,l),
(447,254,l),
(630,0,l)
);
},
{
closed = 1;
nodes = (
(153,689,l),
(144,681,l),
(372,681,ls),
(536,681,o),
(625,604,o),
(625,470,cs),
(625,336,o),
(536,259,o),
(372,259,cs),
(144,259,l),
(153,251,l)
);
}
);
width = 716;
},
{
anchors = (
{
name = bottom;
pos = (365,0);
},
{
name = top;
pos = (365,700);
}
);
layerId = "5DA6E103-6A94-47F2-987D-4952DB8EA68E";
shapes = (
{
closed = 1;
nodes = (
(293,0,l),
(293,273,l),
(188,176,l),
(394,176,ls),
(589,176,o),
(713,274,o),
(713,436,cs),
(713,598,o),
(599,700,o),
(384,700,cs),
(57,700,l),
(57,0,l)
);
},
{
closed = 1;
nodes = (
(728,0,l),
(554,255,l),
(304,255,l),
(476,0,l)
);
},
{
closed = 1;
nodes = (
(293,625,l),
(188,518,l),
(379,518,ls),
(444,518,o),
(475,487,o),
(475,436,cs),
(475,385,o),
(444,354,o),
(379,354,cs),
(188,354,l),
(293,247,l)
);
}
);
width = 745;
},
{
anchors = (
{
name = bottom;
pos = (367,0);
},
{
name = top;
pos = (367,700);
}
);
layerId = "708134FE-A11E-43C9-84F0-594DA15B6BD1";
shapes = (
{
closed = 1;
nodes = (
(214,0,l),
(214,261,l),
(163,208,l),
(380,208,ls),
(563,208,o),
(675,300,o),
(675,453,cs),
(675,607,o),
(563,700,o),
(380,700,cs),
(100,700,l),
(100,0,l)
);
},
{
closed = 1;
nodes = (
(687,0,l),
(508,254,l),
(385,254,l),
(563,0,l)
);
},
{
closed = 1;
nodes = (
(214,658,l),
(163,601,l),
(376,601,ls),
(497,601,o),
(560,547,o),
(560,453,cs),
(560,360,o),
(497,305,o),
(376,305,cs),
(163,305,l),
(214,249,l)
);
}
);
width = 729;
}
);
metricLeft = H;
unicode = 82;
},
{
color = 4;
glyphname = Rstroke;
kernLeft = Lbar;
kernRight = R;
layers = (
{
anchors = (
{
name = bottom;
pos = (366,0);
},
{
name = top;
pos = (366,700);
}
);
background = {
shapes = (
{
ref = R;
},
{
alignment = -1;
pos = (-91,-100);
ref = strokeshortcomb.case;
scale = (0.8672,0.98);
}
);
};
layerId = UUID0;
shapes = (
{
closed = 1;
nodes = (
(153,0,l),
(153,249,l),
(144,240,l),
(370,240,ls),
(542,240,o),
(645,325,o),
(645,470,cs),
(645,615,o),
(542,700,o),
(370,700,cs),
(133,700,l),
(133,0,l)
);
},
{
closed = 1;
nodes = (
(655,0,l),
(472,254,l),
(447,254,l),
(630,0,l)
);
},
{
closed = 1;
nodes = (
(153,689,l),
(144,681,l),
(372,681,ls),
(536,681,o),
(625,604,o),
(625,470,cs),
(625,336,o),
(536,259,o),
(372,259,cs),
(144,259,l),
(153,251,l)
);
},
{
closed = 1;
nodes = (
(325,240,l),
(325,259,l),
(13,259,l),
(13,240,l)
);
}
);
width = 716;
},
{
anchors = (
{
name = bottom;
pos = (367,0);
},
{
name = top;
pos = (367,700);
}
);
background = {
shapes = (
{
ref = R;
},
{
alignment = -1;
pos = (-84,-92);
ref = strokeshortcomb.case;
scale = (0.88,0.9887);
}
);
};
layerId = "708134FE-A11E-43C9-84F0-594DA15B6BD1";
shapes = (
{
closed = 1;
nodes = (
(214,0,l),
(214,261,l),
(163,208,l),
(380,208,ls),
(563,208,o),
(675,300,o),
(675,453,cs),
(675,607,o),
(563,700,o),
(380,700,cs),
(100,700,l),
(100,0,l)
);
},
{
closed = 1;
nodes = (
(687,0,l),
(508,254,l),
(385,254,l),
(563,0,l)
);
},
{
closed = 1;
nodes = (
(214,658,l),
(163,601,l),
(376,601,ls),
(497,601,o),
(560,547,o),
(560,453,cs),
(560,360,o),
(497,305,o),
(376,305,cs),
(163,305,l),
(214,249,l)
);
},
{
closed = 1;
nodes = (
(360,216,l),
(360,306,l),
(0,306,l),
(0,216,l)
);
}
);
width = 729;
},
{
anchors = (
{
name = bottom;
pos = (365,0);
},
{
name = top;
pos = (365,700);
}
);
background = {
shapes = (
{
ref = R;
},
{
alignment = -1;
pos = (-70,-70);
ref = strokeshortcomb.case;
scale = (0.88,1);
}
);
};
layerId = "5DA6E103-6A94-47F2-987D-4952DB8EA68E";
shapes = (
{
closed = 1;
nodes = (
(293,0,l),
(293,273,l),
(188,176,l),
(394,176,ls),
(589,176,o),
(713,274,o),
(713,436,cs),
(713,598,o),
(599,700,o),
(384,700,cs),
(57,700,l),
(57,0,l)
);
},
{
closed = 1;
nodes = (
(728,0,l),
(554,255,l),
(304,255,l),
(476,0,l)
);
},
{
closed = 1;
nodes = (
(293,625,l),
(188,518,l),
(379,518,ls),
(444,518,o),
(475,487,o),
(475,436,cs),
(475,385,o),
(444,354,o),
(379,354,cs),
(188,354,l),
(293,247,l)
);
},
{
closed = 1;
nodes = (
(401,218,l),
(401,354,l),
(-13,354,l),
(-13,218,l)
);
}
);
width = 745;
}
);
unicode = 588;
},
{
color = 3;
glyphname = Rtail;
kernLeft = H;
kernRight = R;
layers = (
{
anchors = (
{
name = bottom;
pos = (380,0);
},
{
name = top;
pos = (380,700);
}
);
background = {
anchors = (
{
name = bottom;
pos = (380,0);
},
{
name = top;
pos = (380,700);
}
);
shapes = (
{
closed = 1;
nodes = (
(351,-137,l),
(370,-140,l),
(294,-207,o),
(167,-186,o),
(167,-63,cs),
(167,249,l),
(158,240,l),
(384,240,ls),
(556,240,o),
(659,325,o),
(659,470,cs),
(659,615,o),
(556,700,o),
(384,700,cs),
(147,700,l),
(147,-66,ls),
(147,-205,o),
(298,-230,o),
(378,-156,c),
(378,-178,l)
);
},
{
closed = 1;
nodes = (
(669,0,l),
(486,254,l),
(461,254,l),
(644,0,l)
);
},
{
closed = 1;
nodes = (
(167,689,l),
(158,681,l),
(386,681,ls),
(550,681,o),
(639,604,o),
(639,470,cs),
(639,336,o),
(550,259,o),
(386,259,cs),
(158,259,l),
(167,251,l)
);
}
);
};
layerId = UUID0;
shapes = (
{
closed = 1;
nodes = (
(359,-144,l),
(287,-205,o),
(167,-187,o),
(167,-58,cs),
(167,249,l),
(158,240,l),
(384,240,ls),
(556,240,o),
(659,325,o),
(659,470,cs),
(659,615,o),
(556,700,o),
(384,700,cs),
(147,700,l),
(147,-58,ls),
(147,-210,o),
(294,-227,o),
(371,-159,c)
);
},
{
closed = 1;
nodes = (
(669,0,l),
(486,254,l),
(461,254,l),
(644,0,l)
);
},
{
closed = 1;
nodes = (
(167,689,l),
(158,681,l),
(386,681,ls),
(550,681,o),
(639,604,o),
(639,470,cs),
(639,336,o),
(550,259,o),
(386,259,cs),
(158,259,l),
(167,251,l)
);
}
);
width = 754;
},
{
anchors = (
{
name = bottom;
pos = (384,0);
},
{
name = top;
pos = (384,700);
}
);
background = {
shapes = (
{
closed = 0;
nodes = (
(112,-31,ls),
(112,-200,o),
(286,-239,o),
(405,-166,c),
(367,-81,l),
(303,-121,o),
(226,-105,o),
(226,-27,cs)
);
}
);
};
layerId = "708134FE-A11E-43C9-84F0-594DA15B6BD1";
shapes = (
{
closed = 1;
nodes = (
(367,-81,l),
(303,-121,o),
(226,-105,o),
(226,-28,cs),
(226,261,l),
(175,208,l),
(392,208,ls),
(575,208,o),
(687,300,o),
(687,453,cs),
(687,607,o),
(575,700,o),
(392,700,cs),
(112,700,l),
(112,-32,ls),
(112,-200,o),
(286,-239,o),
(405,-166,c)
);
},
{
closed = 1;
nodes = (
(699,0,l),
(520,254,l),
(397,254,l),
(575,0,l)
);
},
{
closed = 1;
nodes = (
(226,658,l),
(175,601,l),
(388,601,ls),
(509,601,o),
(572,547,o),
(572,453,cs),
(572,360,o),
(509,305,o),
(388,305,cs),
(175,305,l),
(226,249,l)
);
}
);
width = 753;
},
{
anchors = (
{
name = bottom;
pos = (388,0);
},
{
name = top;
pos = (388,700);
}
);
background = {
anchors = (
{
name = bottom;
pos = (388,0);
},
{
name = top;
pos = (388,700);
}
);
shapes = (
{
closed = 1;
nodes = (
(400,6,l),
(430,-3,l),
(365,-50,o),
(302,-41,o),
(302,17,cs),
(302,273,l),
(197,176,l),
(403,176,ls),
(598,176,o),
(722,274,o),
(722,436,cs),
(722,598,o),
(598,700,o),
(403,700,cs),
(66,700,l),
(66,17,ls),
(66,-216,o),
(307,-255,o),
(485,-163,c),
(469,-192,l)
);
},
{
closed = 1;
nodes = (
(737,0,l),
(563,255,l),
(313,255,l),
(485,0,l)
);
},
{
closed = 1;
nodes = (
(302,625,l),
(197,518,l),
(388,518,ls),
(453,518,o),
(484,487,o),
(484,436,cs),
(484,385,o),
(453,354,o),
(388,354,cs),
(197,354,l),
(302,247,l)
);
}
);
};
layerId = "5DA6E103-6A94-47F2-987D-4952DB8EA68E";
shapes = (
{
closed = 1;
nodes = (
(408,-17,l),
(351,-47,o),
(302,-34,o),
(302,17,cs),
(302,223,l),
(257,176,l),
(403,176,ls),
(598,176,o),
(722,274,o),
(722,436,cs),
(722,598,o),
(598,700,o),
(403,700,cs),
(66,700,l),
(66,17,ls),
(66,-206,o),
(287,-251,o),
(463,-174,c)
);
},
{
closed = 1;
nodes = (
(737,0,l),
(563,255,l),
(313,255,l),
(485,0,l)
);
},
{
closed = 1;
nodes = (
(302,575,l),
(257,518,l),
(388,518,ls),
(453,518,o),
(484,487,o),
(484,436,cs),
(484,385,o),
(453,354,o),
(388,354,cs),
(257,354,l),
(302,297,l)
);
}
);
width = 759;
}
);
unicode = 11364;
},
{
glyphname = S;
kernLeft = S;
kernRight = S;
layers = (
{
anchors = (
{
name = bottom;
pos = (318,0);
},
{
name = top;
pos = (318,700);
}
);
layerId = UUID0;
shapes = (
{
closed = 1;
nodes = (
(470,-3,o),
(543,79,o),
(543,172,cs),
(543,425,o),
(98,290,o),
(98,526,cs),
(98,613,o),
(166,684,o),
(313,684,cs),
(376,684,o),
(448,664,o),
(504,623,c),
(515,639,l),
(464,678,o),
(387,703,o),
(312,703,cs),
(148,703,o),
(78,619,o),
(78,527,cs),
(78,269,o),
(523,407,o),
(523,172,cs),
(523,86,o),
(455,16,o),
(303,16,cs),
(205,16,o),
(116,57,o),
(72,109,c),
(58,96,l),
(105,38,o),
(202,-3,o),
(304,-3,cs)
);
}
);
width = 601;
},
{
anchors = (
{
name = bottom;
pos = (329,0);
},
{
name = top;
pos = (329,700);
}
);
layerId = "5DA6E103-6A94-47F2-987D-4952DB8EA68E";
shapes = (
{
closed = 1;
nodes = (
(535,-16,o),
(644,92,o),
(644,220,cs),
(644,478,o),
(257,408,o),
(257,492,cs),
(257,516,o),
(279,536,o),
(348,536,cs),
(409,536,o),
(474,519,o),
(543,484,c),
(614,655,l),
(541,696,o),
(444,716,o),
(350,716,cs),
(133,716,o),
(24,610,o),
(24,480,cs),
(24,219,o),
(411,290,o),
(411,202,cs),
(411,178,o),
(387,164,o),
(320,164,cs),
(243,164,o),
(155,189,o),
(89,228,c),
(13,56,l),
(83,13,o),
(201,-16,o),
(318,-16,cs)
);
}
);
width = 657;
},
{
anchors = (
{
name = bottom;
pos = (323,0);
},
{
name = top;
pos = (323,700);
}
);
layerId = "708134FE-A11E-43C9-84F0-594DA15B6BD1";
shapes = (
{
closed = 1;
nodes = (
(498,-9,o),
(587,85,o),
(587,195,cs),
(587,452,o),
(167,350,o),
(167,509,cs),
(167,566,o),
(215,612,o),
(328,612,cs),
(390,612,o),
(459,594,o),
(521,556,c),
(558,647,l),
(498,687,o),
(412,709,o),
(329,709,cs),
(141,709,o),
(54,615,o),
(54,504,cs),
(54,244,o),
(474,347,o),
(474,187,cs),
(474,131,o),
(425,88,o),
(310,88,cs),
(222,88,o),
(133,121,o),
(79,167,c),
(38,77,l),
(95,26,o),
(202,-9,o),
(310,-9,cs)
);
}
);
width = 625;
}
);
unicode = 83;
},
{
glyphname = Saltillo;
kernLeft = saltillo;
kernRight = saltillo;
layers = (
{
layerId = UUID0;
shapes = (
{
closed = 1;
nodes = (
(114,299,l),
(114,700,l),
(94,700,l),
(94,299,l)
);
}
);
width = 208;
},
{
layerId = "5DA6E103-6A94-47F2-987D-4952DB8EA68E";
shapes = (
{
closed = 1;
nodes = (
(257,296,l),
(287,701,l),
(55,701,l),
(55,296,l)
);
}
);
width = 342;
},
{
layerId = "708134FE-A11E-43C9-84F0-594DA15B6BD1";
shapes = (
{
closed = 1;
nodes = (
(176,297,l),
(190,700,l),
(77,700,l),
(77,297,l)
);
}
);
width = 267;
}
);
unicode = 42891;
},
{
glyphname = Germandbls;
kernLeft = A.ss01;
kernRight = B;
layers = (
{
layerId = UUID0;
shapes = (
{
closed = 1;
nodes = (
(589,-3,o),
(677,65,o),
(677,193,cs),
(677,321,o),
(588,388,o),
(454,388,cs),
(426,388,o),
(398,385,o),
(374,377,c),
(375,367,l),
(616,615,l),
(616,631,l),
(560,680,o),
(484,703,o),
(402,703,cs),
(228,703,o),
(127,597,o),
(127,424,cs),
(127,0,l),
(147,0,l),
(147,422,ls),
(147,591,o),
(237,684,o),
(404,684,cs),
(479,684,o),
(551,665,o),
(603,618,c),
(606,630,l),
(356,373,l),
(363,357,l),
(389,365,o),
(422,369,o),
(454,369,cs),
(576,369,o),
(657,310,o),
(657,193,cs),
(657,77,o),
(578,16,o),
(458,16,cs),
(408,16,o),
(365,25,o),
(327,44,c),
(319,25,l),
(361,6,o),
(401,-3,o),
(452,-3,cs)
);
}
);
width = 742;
},
{
guides = (
{
angle = 49.4672;
pos = (308,308);
}
);
layerId = "5DA6E103-6A94-47F2-987D-4952DB8EA68E";
shapes = (
{
closed = 1;
nodes = (
(647,-16,o),
(772,68,o),
(772,211,cs),
(772,354,o),
(645,438,o),
(507,438,cs),
(478,438,o),
(454,435,o),
(433,430,c),
(521,308,l),
(698,515,l),
(698,650,l),
(631,692,o),
(519,716,o),
(431,716,cs),
(187,716,o),
(51,586,o),
(51,379,cs),
(51,0,l),
(287,0,l),
(287,374,ls),
(287,476,o),
(336,536,o),
(434,536,cs),
(500,536,o),
(551,517,o),
(603,487,c),
(588,635,l),
(355,363,l),
(395,268,l),
(412,274,o),
(434,278,o),
(457,278,cs),
(509,278,o),
(534,258,o),
(534,221,cs),
(534,184,o),
(509,164,o),
(454,164,cs),
(427,164,o),
(393,172,o),
(369,183,c),
(337,7,l),
(378,-8,o),
(428,-16,o),
(494,-16,cs)
);
}
);
width = 798;
},
{
layerId = "708134FE-A11E-43C9-84F0-594DA15B6BD1";
shapes = (
{
closed = 1;
nodes = (
(616,-9,o),
(719,66,o),
(719,202,cs),
(719,340,o),
(613,415,o),
(477,415,cs),
(449,415,o),
(422,412,o),
(400,406,c),
(449,339,l),
(652,567,l),
(652,641,l),
(591,686,o),
(500,709,o),
(412,709,cs),
(211,709,o),
(94,591,o),
(94,401,cs),
(94,0,l),
(208,0,l),
(208,398,ls),
(208,535,o),
(280,612,o),
(419,612,cs),
(488,612,o),
(551,593,o),
(603,555,c),
(588,633,l),
(356,369,l),
(377,315,l),
(399,322,o),
(430,326,o),
(458,326,cs),
(547,326,o),
(603,285,o),
(603,207,cs),
(603,128,o),
(548,88,o),
(459,88,cs),
(416,88,o),
(377,96,o),
(345,111,c),
(327,16,l),
(368,-1,o),
(416,-9,o),
(466,-9,cs)
);
}
);
width = 767;
}
);
metricLeft = "=|U";
metricRight = B;
unicode = 7838;
},
{
color = 4;
glyphname = Sobliquestroke;
kernLeft = S;
kernRight = S;
layers = (
{
anchors = (
{
name = bottom;
pos = (318,0);
},
{
name = top;
pos = (318,700);
}
);
background = {
shapes = (
{
closed = 1;
nodes = (
(466,-3,o),
(544,72,o),
(544,177,cs),
(544,439,o),
(109,282,o),
(109,521,cs),
(109,607,o),
(168,674,o),
(309,674,cs),
(380,674,o),
(454,652,o),
(505,607,c),
(520,629,l),
(471,672,o),
(387,700,o),
(309,700,cs),
(151,700,o),
(83,614,o),
(83,521,cs),
(83,251,o),
(520,410,o),
(520,177,cs),
(520,86,o),
(459,23,o),
(308,23,cs),
(205,23,o),
(119,66,o),
(72,114,c),
(58,92,l),
(106,37,o),
(204,-3,o),
(308,-3,cs)
);
},
{
closed = 1;
nodes = (
(386,484,l),
(367,496,l),
(188,223,l),
(206,211,l)
);
}
);
};
layerId = UUID0;
shapes = (
{
closed = 1;
nodes = (
(470,-3,o),
(543,79,o),
(543,172,cs),
(543,425,o),
(98,290,o),
(98,526,cs),
(98,613,o),
(166,684,o),
(313,684,cs),
(376,684,o),
(448,664,o),
(504,623,c),
(515,639,l),
(464,678,o),
(387,703,o),
(312,703,cs),
(148,703,o),
(78,619,o),
(78,527,cs),
(78,269,o),
(523,407,o),
(523,172,cs),
(523,86,o),
(455,16,o),
(303,16,cs),
(205,16,o),
(116,57,o),
(72,109,c),
(58,96,l),
(105,38,o),
(202,-3,o),
(304,-3,cs)
);
},
{
closed = 1;
nodes = (
(386,484,l),
(369,495,l),
(190,221,l),
(206,211,l)
);
}
);
width = 601;
},
{
anchors = (
{
name = bottom;
pos = (321,0);
},
{
name = top;
pos = (321,700);
}
);
background = {
shapes = (
{
closed = 1;
nodes = (
(474,-6,o),
(584,74,o),
(584,206,cs),
(584,480,o),
(188,350,o),
(188,501,cs),
(188,552,o),
(234,587,o),
(328,587,cs),
(389,587,o),
(450,574,o),
(510,534,c),
(565,649,l),
(509,687,o),
(413,711,o),
(330,711,cs),
(165,711,o),
(57,627,o),
(57,495,cs),
(57,214,o),
(454,346,o),
(454,202,cs),
(454,150,o),
(412,118,o),
(313,118,cs),
(233,118,o),
(147,147,o),
(92,188,c),
(37,73,l),
(92,28,o),
(197,-6,o),
(303,-6,cs)
);
},
{
closed = 1;
nodes = (
(417,490,l),
(337,533,l),
(182,206,l),
(262,163,l)
);
}
);
};
layerId = "708134FE-A11E-43C9-84F0-594DA15B6BD1";
shapes = (
{
closed = 1;
nodes = (
(498,-9,o),
(587,85,o),
(587,195,cs),
(587,452,o),
(167,350,o),
(167,509,cs),
(167,566,o),
(215,612,o),
(328,612,cs),
(390,612,o),
(459,594,o),
(521,556,c),
(558,647,l),
(498,687,o),
(412,709,o),
(329,709,cs),
(141,709,o),
(54,615,o),
(54,504,cs),
(54,244,o),
(474,347,o),
(474,187,cs),
(474,131,o),
(425,88,o),
(310,88,cs),
(222,88,o),
(133,121,o),
(79,167,c),
(38,77,l),
(95,26,o),
(202,-9,o),
(310,-9,cs)
);
},
{
closed = 1;
nodes = (
(414,493,l),
(342,527,l),
(185,203,l),
(257,167,l)
);
}
);
width = 625;
},
{
anchors = (
{
name = bottom;
pos = (325,0);
},
{
name = top;
pos = (325,700);
}
);
background = {
shapes = (
{
closed = 1;
nodes = (
(521,-9,o),
(635,90,o),
(635,233,cs),
(635,500,o),
(246,384,o),
(246,496,cs),
(246,539,o),
(285,555,o),
(337,555,cs),
(404,555,o),
(493,529,o),
(544,506,c),
(613,666,l),
(539,701,o),
(434,716,o),
(351,716,cs),
(141,716,o),
(23,620,o),
(23,471,cs),
(23,201,o),
(413,300,o),
(413,209,cs),
(413,167,o),
(375,152,o),
(322,152,cs),
(244,152,o),
(136,184,o),
(80,213,c),
(11,52,l),
(83,15,o),
(201,-9,o),
(305,-9,cs)
);
},
{
closed = 1;
nodes = (
(449,486,l),
(352,536,l),
(169,231,l),
(269,174,l)
);
}
);
};
layerId = "5DA6E103-6A94-47F2-987D-4952DB8EA68E";
shapes = (
{
closed = 1;
nodes = (
(527,-15,o),
(634,91,o),
(634,217,cs),
(634,475,o),
(242,401,o),
(242,494,cs),
(242,523,o),
(268,546,o),
(343,546,cs),
(405,546,o),
(470,528,o),
(537,493,c),
(604,654,l),
(534,694,o),
(439,715,o),
(344,715,cs),
(131,715,o),
(25,610,o),
(25,483,cs),
(25,222,o),
(416,297,o),
(416,200,cs),
(416,172,o),
(389,154,o),
(316,154,cs),
(236,154,o),
(148,181,o),
(85,220,c),
(13,59,l),
(84,13,o),
(203,-15,o),
(314,-15,cs)
);
},
{
closed = 1;
nodes = (
(449,483,l),
(352,533,l),
(169,228,l),
(269,171,l)
);
}
);
width = 647;
}
);
metricLeft = S;
metricRight = S;
unicode = 42920;
},
{
glyphname = T;
kernLeft = T;
kernRight = T;
layers = (
{
anchors = (
{
name = bottom;
pos = (274,0);
},
{
name = center;
pos = (274,355);
},
{
name = top;
pos = (274,700);
}
);
layerId = UUID0;
shapes = (
{
closed = 1;
nodes = (
(284,0,l),
(284,681,l),
(544,681,l),
(544,700,l),
(4,700,l),
(4,681,l),
(264,681,l),
(264,0,l)
);
}
);
width = 548;
},
{
anchors = (
{
name = bottom;
pos = (327,0);
},
{
name = center;
pos = (327,340);
},
{
name = top;
pos = (327,700);
}
);
layerId = "5DA6E103-6A94-47F2-987D-4952DB8EA68E";
shapes = (
{
closed = 1;
nodes = (
(445,0,l),
(445,517,l),
(650,517,l),
(650,700,l),
(4,700,l),
(4,517,l),
(209,517,l),
(209,0,l)
);
}
);
width = 654;
},
{
anchors = (
{
name = bottom;
pos = (297,0);
},
{
name = center;
pos = (297,359);
},
{
name = top;
pos = (297,700);
}
);
layerId = "708134FE-A11E-43C9-84F0-594DA15B6BD1";
shapes = (
{
closed = 1;
nodes = (
(354,0,l),
(354,601,l),
(590,601,l),
(590,700,l),
(4,700,l),
(4,601,l),
(240,601,l),
(240,0,l)
);
}
);
width = 594;
}
);
metricRight = "=|";
unicode = 84;
},
{
glyphname = Tbar;
kernLeft = T;
kernRight = T;
layers = (
{
anchors = (
{
name = bottom;
pos = (274,0);
},
{
name = center;
pos = (274,355);
},
{
name = top;
pos = (274,700);
}
);
background = {
anchors = (
{
name = bottom;
pos = (274,0);
},
{
name = center;
pos = (274,355);
},
{
name = top;
pos = (274,700);
}
);
shapes = (
{
closed = 1;
nodes = (
(284,0,l),
(284,681,l),
(544,681,l),
(544,700,l),
(4,700,l),
(4,681,l),
(264,681,l),
(264,0,l)
);
},
{
closed = 1;
nodes = (
(455,345,l),
(455,364,l),
(94,364,l),
(94,345,l)
);
}
);
};
layerId = UUID0;
shapes = (
{
closed = 1;
nodes = (
(284,0,l),
(284,681,l),
(544,681,l),
(544,700,l),
(4,700,l),
(4,681,l),
(264,681,l),
(264,0,l)
);
},
{
closed = 1;
nodes = (
(454,345,l),
(454,364,l),
(94,364,l),
(94,345,l)
);
}
);
width = 548;
},
{
anchors = (
{
name = bottom;
pos = (327,0);
},
{
name = center;
pos = (327,340);
},
{
name = top;
pos = (327,700);
}
);
background = {
anchors = (
{
name = bottom;
pos = (327,0);
},
{
name = center;
pos = (327,340);
},
{
name = top;
pos = (327,700);
}
);
shapes = (
{
closed = 1;
nodes = (
(445,0,l),
(445,517,l),
(650,517,l),
(650,700,l),
(4,700,l),
(4,517,l),
(209,517,l),
(209,0,l)
);
},
{
closed = 1;
nodes = (
(550,246,l),
(550,382,l),
(103,382,l),
(103,246,l)
);
}
);
};
layerId = "5DA6E103-6A94-47F2-987D-4952DB8EA68E";
shapes = (
{
closed = 1;
nodes = (
(445,0,l),
(445,517,l),
(650,517,l),
(650,700,l),
(4,700,l),
(4,517,l),
(209,517,l),
(209,0,l)
);
},
{
closed = 1;
nodes = (
(550,246,l),
(550,382,l),
(103,382,l),
(103,246,l)
);
}
);
width = 654;
},
{
anchors = (
{
name = bottom;
pos = (297,0);
},
{
name = center;
pos = (297,359);
},
{
name = top;
pos = (297,700);
}
);
background = {
anchors = (
{
name = bottom;
pos = (297,0);
},
{
name = center;
pos = (297,359);
},
{
name = top;
pos = (297,700);
}
);
shapes = (
{
closed = 1;
nodes = (
(354,0,l),
(354,601,l),
(590,601,l),
(590,700,l),
(4,700,l),
(4,601,l),
(240,601,l),
(240,0,l)
);
},
{
closed = 1;
nodes = (
(504,314,l),
(504,404,l),
(90,404,l),
(90,314,l)
);
}
);
};
layerId = "708134FE-A11E-43C9-84F0-594DA15B6BD1";
shapes = (
{
closed = 1;
nodes = (
(354,0,l),
(354,601,l),
(590,601,l),
(590,700,l),
(4,700,l),
(4,601,l),
(240,601,l),
(240,0,l)
);
},
{
closed = 1;
nodes = (
(504,314,l),
(504,404,l),
(90,404,l),
(90,314,l)
);
}
);
width = 594;
}
);
unicode = 358;
},
{
color = 4;
glyphname = Tdiagonalstroke;
kernLeft = T;
kernRight = T;
layers = (
{
anchors = (
{
name = bottom;
pos = (274,0);
},
{
name = center;
pos = (274,356);
},
{
name = top;
pos = (274,700);
}
);
background = {
anchors = (
{
name = bottom;
pos = (274,0);
},
{
name = center;
pos = (274,356);
},
{
name = top;
pos = (274,700);
}
);
shapes = (
{
closed = 1;
nodes = (
(284,0,l),
(284,681,l),
(544,681,l),
(544,700,l),
(4,700,l),
(4,681,l),
(264,681,l),
(264,0,l)
);
},
{
closed = 1;
nodes = (
(92,-70,l),
(482,770,l),
(462,770,l),
(72,-70,l)
);
}
);
};
layerId = UUID0;
shapes = (
{
closed = 1;
nodes = (
(284,0,l),
(284,681,l),
(544,681,l),
(544,700,l),
(4,700,l),
(4,681,l),
(264,681,l),
(264,0,l)
);
},
{
closed = 1;
nodes = (
(92,-70,l),
(482,770,l),
(462,770,l),
(72,-70,l)
);
}
);
width = 548;
},
{
anchors = (
{
name = bottom;
pos = (296,0);
},
{
name = center;
pos = (296,338);
},
{
name = top;
pos = (296,700);
}
);
background = {
anchors = (
{
name = bottom;
pos = (296,0);
},
{
name = center;
pos = (296,338);
},
{
name = top;
pos = (296,700);
}
);
shapes = (
{
closed = 1;
nodes = (
(350,0,l),
(350,601,l),
(586,601,l),
(586,700,l),
(4,700,l),
(4,601,l),
(240,601,l),
(240,0,l)
);
},
{
closed = 1;
nodes = (
(191,-70,l),
(568,770,l),
(478,770,l),
(101,-70,l)
);
}
);
};
layerId = "708134FE-A11E-43C9-84F0-594DA15B6BD1";
shapes = (
{
closed = 1;
nodes = (
(350,0,l),
(350,601,l),
(586,601,l),
(586,700,l),
(4,700,l),
(4,601,l),
(240,601,l),
(240,0,l)
);
},
{
closed = 1;
nodes = (
(191,-70,l),
(568,770,l),
(478,770,l),
(101,-70,l)
);
}
);
width = 590;
},
{
anchors = (
{
name = bottom;
pos = (327,0);
},
{
name = center;
pos = (327,315);
},
{
name = top;
pos = (327,700);
}
);
background = {
anchors = (
{
name = bottom;
pos = (327,0);
},
{
name = center;
pos = (327,315);
},
{
name = top;
pos = (327,700);
}
);
shapes = (
{
closed = 1;
nodes = (
(435,0,l),
(435,517,l),
(650,517,l),
(650,700,l),
(4,700,l),
(4,517,l),
(219,517,l),
(219,0,l)
);
},
{
closed = 1;
nodes = (
(229,-70,l),
(625,770,l),
(511,770,l),
(115,-70,l)
);
}
);
};
layerId = "5DA6E103-6A94-47F2-987D-4952DB8EA68E";
shapes = (
{
closed = 1;
nodes = (
(435,0,l),
(435,517,l),
(650,517,l),
(650,700,l),
(4,700,l),
(4,517,l),
(219,517,l),
(219,0,l)
);
},
{
closed = 1;
nodes = (
(229,-70,l),
(625,770,l),
(511,770,l),
(115,-70,l)
);
}
);
width = 654;
},
{
anchors = (
{
name = bottom;
pos = (274,0);
},
{
name = center;
pos = (274,356);
},
{
name = top;
pos = (274,700);
}
);
associatedMasterId = UUID0;
attr = {
axisRules = (
{
min = 155;
}
);
};
layerId = "DD082E1A-119A-4562-8F96-B59BF1B6678C";
name = "[155]";
shapes = (
{
closed = 1;
nodes = (
(284,0,l),
(284,681,l),
(544,681,l),
(544,700,l),
(4,700,l),
(4,681,l),
(264,681,l),
(264,0,l)
);
},
{
closed = 1;
nodes = (
(445,691,l),
(482,770,l),
(462,770,l),
(425,691,l)
);
},
{
closed = 1;
nodes = (
(273,362,l),
(72,-70,l),
(92,-70,l),
(273,319,l)
);
}
);
width = 548;
},
{
anchors = (
{
name = bottom;
pos = (296,0);
},
{
name = center;
pos = (296,338);
},
{
name = top;
pos = (296,700);
}
);
associatedMasterId = "708134FE-A11E-43C9-84F0-594DA15B6BD1";
attr = {
axisRules = (
{
min = 155;
}
);
};
background = {
shapes = (
{
pos = (-2,0);
ref = T;
}
);
};
layerId = "EBD5E91A-0A62-4662-A9E9-0367C3A9EB73";
name = "[155]";
shapes = (
{
closed = 1;
nodes = (
(350,0,l),
(350,601,l),
(586,601,l),
(586,700,l),
(4,700,l),
(4,601,l),
(240,601,l),
(240,0,l)
);
},
{
closed = 1;
nodes = (
(515,651,l),
(568,770,l),
(478,770,l),
(425,651,l)
);
},
{
closed = 1;
nodes = (
(294,361,l),
(101,-70,l),
(191,-70,l),
(294,160,l)
);
}
);
width = 590;
},
{
anchors = (
{
name = bottom;
pos = (327,0);
},
{
name = center;
pos = (327,315);
},
{
name = top;
pos = (327,700);
}
);
associatedMasterId = "5DA6E103-6A94-47F2-987D-4952DB8EA68E";
attr = {
axisRules = (
{
min = 155;
}
);
};
background = {
shapes = (
{
ref = T;
}
);
};
layerId = "C6D1BE93-3D8C-4AC1-AB04-0097EDE1CCCB";
name = "[155]";
shapes = (
{
closed = 1;
nodes = (
(435,0,l),
(435,517,l),
(650,517,l),
(650,700,l),
(4,700,l),
(4,517,l),
(219,517,l),
(219,0,l)
);
},
{
closed = 1;
nodes = (
(556,625,l),
(625,770,l),
(511,770,l),
(442,625,l)
);
},
{
closed = 1;
nodes = (
(324,374,l),
(115,-70,l),
(229,-70,l),
(324,132,l)
);
}
);
width = 654;
}
);
metricLeft = T;
metricRight = T;
unicode = 574;
},
{
color = 3;
glyphname = Thook;
kernLeft = Hhook;
kernRight = T;
layers = (
{
background = {
anchors = (
{
name = bottom;
pos = (319,0);
},
{
name = center;
pos = (319,356);
},
{
name = top;
pos = (319,700);
}
);
shapes = (
{
closed = 1;
nodes = (
(329,0,l),
(329,681,l),
(589,681,l),
(589,700,l),
(249,700,l),
(249,681,l),
(309,681,l),
(309,0,l)
);
},
{
pos = (-5,0);
ref = hookcomb.left;
}
);
};
layerId = UUID0;
shapes = (
{
closed = 1;
nodes = (
(329,0,l),
(329,690,l),
(320,681,l),
(589,681,l),
(589,700,l),
(207,700,ls),
(27,700,o),
(1,548,o),
(84,445,c),
(97,456,l),
(24,559,o),
(53,681,o),
(206,681,cs),
(318,681,l),
(309,690,l),
(309,0,l)
);
}
);
width = 593;
},
{
background = {
anchors = (
{
name = bottom;
pos = (375,0);
},
{
name = center;
pos = (375,336);
},
{
name = top;
pos = (375,700);
}
);
shapes = (
{
closed = 1;
nodes = (
(432,0,l),
(432,601,l),
(668,601,l),
(668,700,l),
(199,700,l),
(199,601,l),
(318,601,l),
(318,0,l)
);
},
{
pos = (-8,0);
ref = hookcomb.left;
}
);
};
layerId = "708134FE-A11E-43C9-84F0-594DA15B6BD1";
shapes = (
{
closed = 1;
nodes = (
(432,0,l),
(432,621,l),
(411,601,l),
(668,601,l),
(668,700,l),
(206,700,ls),
(6,700,o),
(-16,486,o),
(104,373,c),
(178,426,l),
(107,493,o),
(111,601,o),
(206,601,cs),
(341,601,l),
(318,621,l),
(318,0,l)
);
}
);
width = 672;
},
{
background = {
anchors = (
{
name = bottom;
pos = (455,0);
},
{
name = center;
pos = (455,315);
},
{
name = top;
pos = (455,700);
}
);
shapes = (
{
closed = 1;
nodes = (
(573,0,l),
(573,517,l),
(778,517,l),
(778,700,l),
(276,700,l),
(276,517,l),
(337,517,l),
(337,0,l)
);
},
{
pos = (7,0);
ref = hookcomb.left;
}
);
};
layerId = "5DA6E103-6A94-47F2-987D-4952DB8EA68E";
shapes = (
{
closed = 1;
nodes = (
(573,0,l),
(573,553,l),
(517,517,l),
(778,517,l),
(778,700,l),
(269,700,ls),
(11,700,o),
(-44,467,o),
(62,317,c),
(232,393,l),
(194,461,o),
(206,517,o),
(265,517,cs),
(383,517,l),
(337,553,l),
(337,0,l)
);
}
);
width = 782;
}
);
metricLeft = Hhook;
metricRight = T;
unicode = 428;
},
